<svg width="20" height="20" viewBox="0 0 20 20" fill="none" xmlns="http://www.w3.org/2000/svg">
<g clip-path="url(#clip0_420_375)">
<path d="M3.33328 3.34641C3.33328 4.26682 2.58713 5.01297 1.66672 5.01297C0.746155 5.01297 0 4.26682 0 3.34641C0 2.42584 0.746155 1.67969 1.66672 1.67969C2.58713 1.67969 3.33328 2.42584 3.33328 3.34641Z" fill="white"/>
<path d="M3.33328 10.013C3.33328 10.9336 2.58713 11.6797 1.66672 11.6797C0.746155 11.6797 0 10.9336 0 10.013C0 9.09259 0.746155 8.34644 1.66672 8.34644C2.58713 8.34644 3.33328 9.09259 3.33328 10.013Z" fill="white"/>
<path d="M3.33328 16.6797C3.33328 17.6001 2.58713 18.3464 1.66672 18.3464C0.746155 18.3464 0 17.6001 0 16.6797C0 15.7592 0.746155 15.0129 1.66672 15.0129C2.58713 15.0129 3.33328 15.7592 3.33328 16.6797Z" fill="white"/>
<path d="M6.66644 4.17966H19.1664C19.6273 4.17966 19.9997 3.80719 19.9997 3.34637C19.9997 2.88556 19.6273 2.51294 19.1664 2.51294H6.66644C6.20563 2.51294 5.83301 2.88556 5.83301 3.34637C5.83301 3.80719 6.20563 4.17966 6.66644 4.17966Z" fill="white"/>
<path d="M19.1664 9.17969H6.66644C6.20563 9.17969 5.83301 9.55215 5.83301 10.013C5.83301 10.4738 6.20563 10.8464 6.66644 10.8464H19.1664C19.6273 10.8464 19.9997 10.4738 19.9997 10.013C19.9997 9.55215 19.6273 9.17969 19.1664 9.17969Z" fill="white"/>
<path d="M19.1664 15.8464H6.66644C6.20563 15.8464 5.83301 16.2189 5.83301 16.6797C5.83301 17.1405 6.20563 17.513 6.66644 17.513H19.1664C19.6273 17.513 19.9997 17.1405 19.9997 16.6797C19.9997 16.2189 19.6273 15.8464 19.1664 15.8464Z" fill="white"/>
</g>
<defs>
<clipPath id="clip0_420_375">
<rect width="20" height="20" fill="white"/>
</clipPath>
</defs>
</svg>
