<svg width="14" height="14" viewBox="0 0 14 14" fill="none" xmlns="http://www.w3.org/2000/svg">
<path d="M0.565595 0.5H5.65646C5.69185 0.5 5.72222 0.530664 5.72222 0.565595V5.65646C5.72222 5.67243 5.71606 5.6886 5.70232 5.70235C5.68863 5.71605 5.67253 5.72222 5.65646 5.72222H0.565595C0.54968 5.72222 0.533627 5.71611 0.519916 5.70239C0.506167 5.68863 0.5 5.67243 0.5 5.65646V0.565595C0.5 0.530567 0.530465 0.5 0.565595 0.5Z" stroke="white"/>
<path d="M0.565595 8.27777H5.65646C5.69185 8.27777 5.72222 8.30843 5.72222 8.34337V13.4342C5.72222 13.4502 5.71606 13.4664 5.70232 13.4801C5.68863 13.4938 5.67253 13.5 5.65646 13.5H0.565595C0.54968 13.5 0.533627 13.4939 0.519916 13.4802C0.506167 13.4664 0.5 13.4502 0.5 13.4342V8.34337C0.5 8.30834 0.530465 8.27777 0.565595 8.27777Z" stroke="white"/>
<path d="M8.34343 0.5H13.4343C13.4697 0.5 13.5001 0.530664 13.5001 0.565595V5.65646C13.5001 5.67243 13.4939 5.6886 13.4802 5.70235C13.4665 5.71605 13.4504 5.72222 13.4343 5.72222H8.34343C8.32751 5.72222 8.31146 5.71611 8.29775 5.70239C8.284 5.68863 8.27783 5.67243 8.27783 5.65646V0.565595C8.27783 0.530567 8.3083 0.5 8.34343 0.5Z" stroke="white"/>
<path d="M8.34343 8.27777H13.4343C13.4697 8.27777 13.5001 8.30843 13.5001 8.34337V13.4342C13.5001 13.4502 13.4939 13.4664 13.4802 13.4801C13.4665 13.4938 13.4504 13.5 13.4343 13.5H8.34343C8.32751 13.5 8.31146 13.4939 8.29775 13.4802C8.284 13.4664 8.27783 13.4502 8.27783 13.4342V8.34337C8.27783 8.30834 8.3083 8.27777 8.34343 8.27777Z" stroke="white"/>
</svg>
