<svg width="80" height="31" viewBox="0 0 80 31" fill="none" xmlns="http://www.w3.org/2000/svg">
<g clip-path="url(#clip0_193_297)">
<path d="M51.9027 29.4462C53.3168 29.4462 54.4631 28.2856 54.4631 26.8539C54.4631 25.4223 53.3168 24.2617 51.9027 24.2617C50.4886 24.2617 49.3423 25.4223 49.3423 26.8539C49.3423 28.2856 50.4886 29.4462 51.9027 29.4462Z" fill="white"/>
<path d="M18.9952 14.8565C18.9952 14.8565 20.7529 15.1857 20.8174 15.8441C20.8818 16.5026 20.4922 23.3598 21.4033 23.9856C22.3144 24.6115 22.2821 24.8754 25.3113 24.9733C28.3404 25.0712 43.0497 24.8102 43.0497 24.8102C43.0497 24.8102 45.2966 25.1394 45.4255 22.7014C45.5544 20.2634 45.6218 15.9124 45.6218 15.9124C45.6218 15.9124 46.4685 14.7586 47.6725 14.8565C48.8766 14.9544 49.3423 16.1407 49.3423 16.1407C49.3423 16.1407 49.5943 23.9204 48.0299 25.7978C46.4655 27.6753 45.7185 28.2032 43.3426 28.3693C40.9668 28.5354 23.5858 28.3693 23.5858 28.3693C23.5858 28.3693 20.4277 28.3367 19.3526 27.1503C18.2775 25.9639 17.3371 23.7899 17.2375 21.6455C17.1379 19.5011 16.9123 16.4373 17.0441 16.0755C17.1759 15.7136 17.7589 14.9217 18.9952 14.8565Z" fill="white"/>
<path d="M13.5609 20.1625C13.5609 20.1625 13.9183 19.8007 13.0072 19.4388C12.0961 19.077 2.49304 14.4294 2.49304 14.4294C2.49304 14.4294 31.8207 2.39952 32.7963 2.36689C33.7718 2.33427 35.1399 2.96008 36.672 3.58589C38.2042 4.21171 49.5269 8.98984 50.0483 8.95721C50.5698 8.92459 51.2846 8.00218 50.9272 7.83609C50.5698 7.66999 34.718 -0.00585938 33.6107 -0.00585938C32.5033 -0.00585938 0 14.1001 0 14.1001L12.6146 20.1625C12.6146 20.1625 13.1361 20.557 13.5609 20.1625Z" fill="white"/>
<path d="M52.9457 8.26562V9.5825C52.9457 9.5825 64.2098 13.8357 64.0779 14.1323C63.9461 14.4288 53.3031 19.2396 52.9457 19.6341C52.8726 19.7126 52.8259 19.8123 52.812 19.9193C52.7982 20.0262 52.818 20.1348 52.8686 20.2297C52.9192 20.3246 52.998 20.4009 53.0939 20.4479C53.1898 20.4948 53.2978 20.51 53.4027 20.4912C53.8245 20.3934 66.2253 14.2301 66.1931 13.9335C66.1609 13.6369 52.9457 8.26562 52.9457 8.26562Z" fill="white"/>
<path d="M51.9057 7.53978C51.9057 7.53978 51.2202 7.21056 51.1879 8.26643C51.1557 9.32231 51.5453 23.5559 51.5453 23.5559H52.099L52.2953 8.26643C52.2996 8.12125 52.2658 7.97751 52.1974 7.84986C52.1289 7.72222 52.0283 7.61522 51.9057 7.53978Z" fill="white"/>
<path d="M64.6954 27.8454L64.5969 30.4114H63.6957V28.6865H63.1888V27.8454H64.6954ZM58.5704 28.6865V21.3877H59.4011V27.8739H63.1184V21.3877H63.9491V28.6865H58.5704Z" fill="white"/>
<path d="M65.9778 28.6865V21.6955H70.1452V22.4465H66.8139V24.8087H69.9294V25.5597H66.8139V27.9355H70.1991V28.6865H65.9778Z" fill="white"/>
<path d="M72.0569 21.6955L73.8372 24.6039H73.8911L75.6714 21.6955H76.6559L74.4845 25.191L76.6559 28.6865H75.6714L73.8911 25.8328H73.8372L72.0569 28.6865H71.0724L73.2977 25.191L71.0724 21.6955H72.0569Z" fill="white"/>
</g>
<defs>
<clipPath id="clip0_193_297">
<rect width="80" height="31" fill="white"/>
</clipPath>
</defs>
</svg>
