<svg width="1440" height="874" viewBox="0 0 1440 874" fill="none" xmlns="http://www.w3.org/2000/svg">
<path d="M1938.98 0.887C1805.35 23.7012 1373.93 -40.4077 1151.81 55.4513C906.748 161.213 754.178 579.493 509.39 720.125C264.602 860.757 -248.843 894.851 -519.969 859.954M1892.93 184.85C1962.69 379.623 1913.04 757.523 1484.44 756.909C948.689 756.142 504.822 453.212 145.792 458.632C-213.237 464.051 -480.421 683.594 -539.128 763.609M1904.18 177.359C1964.25 363.944 1896.42 720.796 1477.65 724.776C955.747 729.081 525.752 460.495 172.162 472.353C-181.428 484.211 -460.338 694.924 -529.16 769.466M1914.07 169.678C1964.46 348.074 1878.45 683.877 1469.51 692.451C961.449 701.829 545.325 467.586 197.175 485.883C-150.974 504.18 -441.612 706.062 -520.549 775.133M1922.5 161.792C1963.21 332 1859.02 646.755 1459.92 659.923C965.692 674.374 563.44 474.475 220.73 499.21C-121.979 523.946 -424.343 716.997 -513.396 780.595M1929.41 153.693C1960.43 315.712 1838.06 609.419 1448.79 627.181C968.411 646.705 580.03 481.148 242.76 512.323C-94.275 543.476 -408.164 727.461 -507.561 785.723L-507.767 785.844M1934.78 145.378C1956.12 299.209 1815.57 571.868 1436.13 594.224C969.592 618.821 595.082 487.607 263.252 525.221C-68.5771 562.834 -394.395 738.222 -503.677 790.877M1938.66 136.854C1950.31 282.496 1791.58 534.107 1421.98 561.057C969.28 590.726 608.641 493.857 282.252 537.908C-44.1376 581.96 -381.682 748.518 -501.08 795.701M1941.15 128.135C1943.11 265.589 1766.2 496.152 1406.43 527.696C967.577 562.438 620.809 499.912 299.86 550.402C-21.0887 600.893 -370.36 758.619 -499.873 800.33M1942.39 119.242C1934.66 248.507 1739.58 458.022 1389.64 494.16C964.626 533.975 631.73 505.791 316.22 562.721C0.711475 619.65 -360.287 768.546 -499.915 804.785M1942.54 110.195C1925.13 231.272 1711.87 419.739 1371.76 460.471C960.59 505.359 641.565 511.519 331.496 574.887C21.4269 638.255 -351.298 778.32 -501.041 809.086M1942.24 101.087C1915.15 213.975 1683.71 381.394 1353.43 426.719C956.103 476.68 650.949 517.184 346.32 586.99C41.6913 656.797 -342.76 788.031 -502.619 813.326M1941.95 91.9771C1905.17 196.677 1655.54 343.048 1335.1 392.967C956.997 447.229 668.526 520.751 373.735 595.884L361.145 599.093C61.9564 675.338 -334.222 797.741 -504.196 817.564M1941.65 82.8684C1895.19 179.379 1627.38 304.703 1316.77 359.216C947.13 419.322 669.718 528.512 375.969 611.196C82.2209 693.881 -325.684 807.453 -505.773 821.803M1941.35 73.7589C1885.2 162.081 1599.22 266.357 1298.44 325.464C942.643 390.643 679.102 534.177 390.794 623.299C102.485 712.422 -317.146 817.163 -507.351 826.042M1941.06 64.6502C1875.22 144.784 1571.06 228.011 1280.11 291.713C938.156 361.965 688.487 539.841 405.618 635.403C122.75 730.964 -308.609 826.875 -508.928 830.281M1940.76 55.5415C1865.24 127.487 1542.9 189.666 1261.79 257.961C933.669 333.286 697.871 545.506 420.443 647.506C143.015 749.506 -300.07 836.586 -510.505 834.521M1940.46 46.4321C1855.26 110.189 1514.74 151.32 1243.46 224.209C929.182 304.607 707.256 551.17 435.268 659.609C163.279 768.048 -291.533 846.296 -512.083 838.759M1940.17 37.3233C1845.27 92.8916 1486.58 112.975 1225.13 190.458C924.695 275.928 716.64 556.835 450.092 671.713C183.544 786.59 -282.995 856.008 -513.66 842.998M1939.87 28.2139C1835.29 75.5936 1458.41 74.6288 1206.8 156.706C920.209 247.249 726.024 562.499 464.916 683.815C203.808 805.131 -274.457 865.718 -515.238 847.237M1939.57 19.1052C1825.31 58.2964 1430.25 36.2836 1188.47 122.955C915.722 218.571 735.409 568.164 479.741 695.919C224.073 823.674 -265.919 875.43 -516.814 851.476M1939.28 9.99573C1815.33 40.9984 1402.09 -2.06242 1170.14 89.2026C911.235 189.891 744.793 573.828 494.566 708.022C244.338 842.215 -257.381 885.14 -518.392 855.715" stroke="url(#paint0_linear_176_2658)"/>
<defs>
<linearGradient id="paint0_linear_176_2658" x1="-44.4999" y1="693" x2="1901.01" y2="477.149" gradientUnits="userSpaceOnUse">
<stop offset="0.0802359" stop-color="white" stop-opacity="0.2"/>
<stop offset="0.368726" stop-color="#216DFF" stop-opacity="0.5"/>
<stop offset="0.541776" stop-color="#1C63EC"/>
</linearGradient>
</defs>
</svg>
