<svg width="1400" height="644" viewBox="0 0 1400 644" fill="none" xmlns="http://www.w3.org/2000/svg">
<rect width="1400" height="644" rx="30" fill="#216DFF"/>
<g clip-path="url(#clip0_206_269)">
<path opacity="0.5" d="M-0.79248 1009.44C53.7318 771.373 271.825 359.275 708.003 615.388M-16.0467 -687C-70.571 -448.937 -288.664 -36.8394 -724.842 -292.952M-0.980957 988.492C62.7333 752.722 296.642 349.391 722.561 622.225M-1.16913 967.548C71.6393 734.426 321.011 340.468 736.031 629.612M-1.35754 946.605C80.4355 716.481 344.896 332.489 748.391 637.508M-1.54572 925.661C89.1089 698.882 368.259 325.433 759.625 645.868M-1.73413 904.717C97.6458 681.624 391.067 319.28 769.713 654.65M-1.92261 883.773C106.033 664.702 413.284 314.008 778.641 663.807M-2.11072 862.83C114.258 648.109 434.876 309.593 786.395 673.296M-2.29919 841.886C122.308 631.839 455.811 306.009 792.962 683.069M-2.48737 820.943C130.171 615.885 476.057 303.232 798.335 693.081M-2.67572 799.999C137.834 600.24 495.583 301.234 802.502 703.286M-2.8642 779.055C145.286 584.894 514.36 299.985 805.458 713.636M-3.05237 758.112C152.515 569.841 532.359 299.457 807.198 724.085M-3.24078 737.168C159.51 555.072 549.552 299.62 807.72 734.585M-3.42896 716.224C166.26 540.576 565.915 300.44 807.022 745.088M-3.61737 695.281C172.755 526.344 581.42 301.885 805.105 755.548M-3.80579 674.337C178.984 512.366 596.046 303.923 801.972 765.918M-3.99396 653.394C184.939 498.632 609.769 306.517 797.626 776.15M-4.18243 632.45C190.61 485.13 622.57 309.633 792.075 786.197M-4.37054 611.506C195.987 471.851 634.428 313.234 785.327 796.012M-4.55902 590.563C201.063 458.781 645.324 317.285 777.39 805.551M-4.74744 569.619C205.83 445.91 655.244 321.746 768.277 814.766M-4.93561 548.675C210.28 433.224 664.17 326.58 758.002 823.612M-5.12396 527.732C214.407 420.713 672.091 331.749 746.579 832.045M-5.31244 506.788C218.203 408.362 678.992 337.212 734.025 840.02M-5.50067 485.844C221.663 396.159 684.865 342.93 720.36 847.494M-5.68903 464.901C224.782 384.091 689.699 348.863 705.603 854.424M-5.8772 443.957C227.554 372.145 693.487 354.97 689.776 860.768M-6.06567 423.013C229.974 360.307 696.223 361.211 672.902 866.485M-6.25403 402.07C232.04 348.563 697.903 367.546 655.007 871.535M-6.44226 381.126C233.747 336.899 698.524 373.932 636.118 875.879M-6.63068 360.182C235.093 325.302 698.084 380.329 616.262 879.479M-6.81885 339.239C236.075 313.757 696.585 386.696 595.469 882.297M-7.00726 318.295C236.692 302.252 694.027 392.991 573.771 884.299M-7.19568 297.351C236.943 290.77 690.415 399.175 551.199 885.45M-7.38385 276.408C236.826 279.297 685.754 405.204 527.787 885.716M-7.5722 255.464C236.342 267.821 680.05 411.041 503.57 885.066M-7.76044 234.521C235.491 256.326 673.313 416.643 478.584 883.468M-7.94885 213.577C234.274 244.798 665.55 421.971 452.867 880.895M-8.13727 192.633C232.693 233.223 656.775 426.986 426.456 877.318M-8.32544 171.69C230.75 221.587 646.999 431.648 399.392 872.71M-8.51392 150.746C228.447 209.876 636.238 435.919 371.715 867.049M-8.70209 129.802C225.788 198.076 624.507 439.762 343.466 860.31M-8.89044 108.859C222.776 186.174 611.824 443.138 314.687 852.473M-9.07892 87.9149C219.415 174.155 598.207 446.011 285.421 843.516M-9.26697 66.9715C215.711 162.007 583.677 448.346 255.713 833.424M-9.45544 46.0277C211.669 149.715 568.254 450.107 225.606 822.179M-9.64368 25.084C207.294 137.267 551.963 451.261 195.145 809.766M-9.83209 4.1402C202.592 124.651 534.827 451.773 164.377 796.173M-10.0205 -16.8032C197.571 111.854 516.872 451.612 133.346 781.389M-10.2087 -37.7469C192.238 98.8629 498.125 450.747 102.1 765.404M-10.3972 -58.6907C186.6 85.6663 478.613 449.146 70.6842 748.211M-10.5852 -79.6342C180.666 72.2529 458.365 446.782 39.1472 729.804M-10.7736 -100.578C174.445 58.6108 437.412 443.627 7.53516 710.18M-10.9622 -121.522C167.944 44.7292 415.785 439.652 -24.1046 689.337M-11.1503 -142.465C161.175 30.5976 393.516 434.834 -55.7242 667.274M-11.3387 -163.409C154.147 16.2061 370.638 429.147 -87.2771 643.993M-11.5269 -184.353C146.869 1.54395 347.186 422.569 -118.715 619.497M-11.7153 -205.296C139.353 -13.3978 323.194 415.078 -149.993 593.793M-11.9039 -226.24C131.61 -28.6281 298.699 406.654 -181.062 566.886M-12.0919 -247.184C123.652 -44.1553 273.737 397.278 -211.877 538.787M-12.2804 -268.127C115.489 -59.9882 248.344 386.933 -242.392 509.506M-12.4688 -289.071C107.134 -76.1342 222.559 375.602 -272.56 479.054M-12.657 -310.014C98.5989 -92.6001 196.421 363.273 -302.337 447.448M-12.8454 -330.958C89.8965 -109.393 169.969 349.929 -331.678 414.702M-13.0336 -351.902C81.0398 -126.52 143.241 335.562 -360.54 380.835M-13.2219 -372.845C72.0414 -143.985 116.279 320.161 -388.879 345.866M-13.4104 -393.789C62.9147 -161.795 89.1212 303.718 -416.653 309.815M-13.5986 -414.733C53.6734 -179.954 61.8099 286.225 -443.821 272.707M-13.787 -435.676C44.3308 -198.465 34.3849 267.679 -470.341 234.564M-13.9753 -456.62C34.9008 -217.334 6.88742 248.074 -496.175 195.413M-14.1636 -477.564C25.3974 -236.562 -20.6413 227.409 -521.284 155.282M-14.3519 -498.507C15.8343 -256.153 -48.1604 205.685 -545.629 114.199M-14.5402 -519.451C6.22603 -276.108 -75.6284 182.9 -569.176 72.1936M-14.7286 -540.395C-3.41376 -296.43 -103.005 159.06 -591.888 29.2986M-14.9168 -561.338C-13.0703 -317.118 -130.248 134.167 -613.733 -14.4531M-15.1052 -582.282C-22.7298 -338.174 -157.318 108.228 -634.676 -59.0271M-15.2937 -603.226C-32.3779 -359.597 -184.175 81.2508 -654.688 -104.389M-15.4818 -624.169C-42 -381.386 -210.777 53.2445 -673.738 -150.5M-15.6703 -645.113C-51.5826 -403.541 -237.085 24.2185 -691.798 -197.324M-15.8584 -666.057C-61.1107 -426.058 -263.061 -5.81398 -708.841 -244.822" stroke="url(#paint0_linear_206_269)"/>
</g>
<defs>
<linearGradient id="paint0_linear_206_269" x1="254.5" y1="864.607" x2="-4.50006" y2="-25" gradientUnits="userSpaceOnUse">
<stop stop-color="white"/>
<stop offset="1" stop-color="white" stop-opacity="0"/>
</linearGradient>
<clipPath id="clip0_206_269">
<rect width="808" height="644" rx="30" fill="white"/>
</clipPath>
</defs>
</svg>
