<svg width="1400" height="644" fill="none" xmlns="http://www.w3.org/2000/svg"><rect width="1400" height="644" rx="30" fill="#216DFF"/><g clip-path="url(#clip0_206_269)"><path opacity=".5" d="M-.792 1009.44c54.524-238.067 272.617-650.165 708.795-394.052M-16.047-687C-70.57-448.937-288.664-36.84-724.842-292.952M-.981 988.492c63.714-235.77 297.623-639.101 723.542-366.267M-1.169 967.548c72.808-233.122 322.18-627.08 737.2-337.936M-1.358 946.605c81.794-230.124 346.254-614.116 749.749-309.097M-1.546 925.661C89.11 698.882 368.26 325.433 759.625 645.868M-1.735 904.717C97.646 681.624 391.068 319.28 769.714 654.65M-1.923 883.773c107.956-219.071 415.207-569.765 780.564-219.966M-2.111 862.83c116.369-214.721 436.987-553.237 788.506-189.534M-2.299 841.886c124.607-210.047 458.11-535.877 795.261-158.817M-2.488 820.943c132.659-205.058 478.545-517.711 800.823-127.862M-2.675 799.999c140.509-199.759 498.258-498.765 805.177-96.713M-2.864 779.055c148.15-194.161 517.224-479.07 808.322-65.419m-808.51 44.476c155.567-188.271 535.411-458.655 810.25-34.027M-3.241 737.168C159.51 555.072 549.552 299.62 807.72 734.585M-3.429 716.224C166.26 540.576 565.915 300.44 807.022 745.088m-810.64-49.807c176.373-168.937 585.038-393.396 808.723 60.267m-808.91-81.211c182.789-161.971 599.851-370.414 805.777 91.581M-3.994 653.394c188.933-154.762 613.763-346.877 801.62 122.756M-4.182 632.45C190.61 485.13 622.57 309.633 792.075 786.197M-4.371 611.506c200.358-139.655 638.799-298.272 789.698 184.506M-4.559 590.563C201.063 458.781 645.324 317.285 777.39 805.551M-4.747 569.619C205.83 445.91 655.244 321.746 768.277 814.766M-4.936 548.675C210.28 433.224 664.17 326.58 758.002 823.612M-5.124 527.732c219.531-107.019 677.215-195.983 751.703 304.313M-5.312 506.788c223.515-98.426 684.304-169.576 739.337 333.232M-5.501 485.844c227.164-89.685 690.366-142.914 725.861 361.65M-5.689 464.901c230.471-80.81 695.388-116.038 711.292 389.523M-5.877 443.957c233.431-71.812 699.364-88.987 695.653 416.811M-6.066 423.013c236.04-62.706 702.289-61.802 678.968 443.472M-6.254 402.07c238.294-53.507 704.157-34.524 661.261 469.465M-6.443 381.126c240.19-44.227 704.967-7.194 642.561 494.753M-6.631 360.182c241.724-34.88 704.715 20.147 622.893 519.297m-623.08-540.24c242.893-25.482 703.403 47.457 602.287 543.058M-7.007 318.295c243.699-16.043 701.034 74.696 580.778 566.004M-7.196 297.351C236.943 290.77 690.415 399.175 551.2 885.45M-7.384 276.408c244.21 2.889 693.138 128.796 535.171 609.308M-7.573 255.464C236.343 267.821 680.05 411.041 503.57 885.066M-7.76 234.521c243.251 21.805 681.073 182.122 486.344 648.947M-7.949 213.577c242.223 31.221 673.499 208.394 460.816 667.318M-8.137 192.633c240.83 40.59 664.912 234.353 434.593 684.685M-8.325 171.69c239.075 49.897 655.324 259.958 407.717 701.02M-8.514 150.746c236.961 59.13 644.752 285.173 380.229 716.303M-8.702 129.802c234.49 68.274 633.209 309.96 352.168 730.508M-8.89 108.859c231.666 77.315 620.714 334.279 323.577 743.614M-9.079 87.915c228.494 86.24 607.286 358.096 294.5 755.601M-9.267 66.972c224.978 95.035 592.944 381.374 264.98 766.452M-9.455 46.028c221.124 103.687 577.709 404.079 235.061 776.151M-9.644 25.084c216.938 112.183 561.607 426.177 204.789 784.682M-9.832 4.14c212.424 120.511 544.659 447.633 174.209 792.033M-10.021-16.803c207.592 128.657 526.893 468.415 143.367 798.192M-10.209-37.747C192.238 98.863 498.125 450.747 102.1 765.404M-10.397-58.691C186.6 85.666 478.613 449.146 70.684 748.211m-81.27-827.845C180.667 72.253 458.366 446.782 39.148 729.804m-49.92-830.382C174.444 58.611 437.411 443.627 7.534 710.18m-18.497-831.702C167.944 44.729 415.785 439.652-24.105 689.337m12.955-831.802C161.175 30.598 393.516 434.834-55.724 667.274m44.385-830.683C154.147 16.206 370.638 429.147-87.277 643.993m75.75-828.346C146.87 1.544 347.186 422.569-118.715 619.497m107-824.793C139.353-13.398 323.194 415.078-149.993 593.793m138.09-820.033C131.61-28.628 298.698 406.654-181.063 566.886m168.97-814.07c135.745 203.029 285.83 644.462-199.784 785.971M-12.28-268.127c127.769 208.139 260.624 655.06-230.112 777.633m229.923-798.577C107.134-76.134 222.56 375.602-272.56 479.054m259.903-789.068C98.599-92.6 196.421 363.273-302.337 447.448m289.492-778.406c102.742 221.565 182.814 680.887-318.833 745.66m318.644-766.604C81.04-126.52 143.241 335.562-360.54 380.835m347.318-753.68c85.263 228.86 129.501 693.006-375.657 718.711M-13.41-393.789C62.915-161.795 89.12 303.718-416.653 309.815m403.054-724.548C53.673-179.954 61.81 286.225-443.82 272.707m430.034-708.383c58.118 237.211 48.172 703.355-456.554 670.24M-13.975-456.62C34.9-217.334 6.887 248.074-496.175 195.413m482.011-672.977c39.561 241.002-6.477 704.973-507.12 632.846m506.932-653.789C15.834-256.153-48.16 205.685-545.629 114.199m531.089-633.65C6.226-276.108-75.628 182.9-569.176 72.194m554.447-612.589C-3.414-296.43-103.005 159.06-591.888 29.299m576.971-590.637c1.847 244.22-115.331 695.505-598.816 546.885m598.628-567.829c-7.625 244.108-142.213 690.51-619.571 523.255m619.382-544.199C-32.378-359.597-184.175 81.251-654.688-104.389m639.206-519.78C-42-381.386-210.777 53.244-673.738-150.5M-15.67-645.113C-51.583-403.541-237.085 24.219-691.798-197.324m675.94-468.733C-61.111-426.058-263.061-5.814-708.841-244.822" stroke="url(#paint0_linear_206_269)"/></g><defs><linearGradient id="paint0_linear_206_269" x1="254.5" y1="864.607" x2="-4.5" y2="-25" gradientUnits="userSpaceOnUse"><stop stop-color="#fff"/><stop offset="1" stop-color="#fff" stop-opacity="0"/></linearGradient><clipPath id="clip0_206_269"><rect width="808" height="644" rx="30" fill="#fff"/></clipPath></defs></svg>