<svg width="261" height="1283" fill="none" xmlns="http://www.w3.org/2000/svg"><path d="M-169.505 1C-129.258 98.113-37.412 310.019 7.991 380.741c56.755 88.402 176.64 209.052 168.038 327.478-8.602 118.426-128.532 283.554-128.532 347.491 0 63.94-39.402 226.29-217.002 226.29-155.24 0-472.953-63.94-620.96-152.34m566.988-869.569c-15.766 90.441-47.296 271.323 31.715 349.718 79.011 78.394 434.004 199.6 451.253 339.709 17.249 140.112-408.965 152.902-527.482 204.602-118.516 51.71-539.352 97.67-725.009 29.47M-172.075 13.338C-134.12 107.979-47.211 313.025-3.968 383.537c54.053 87.351 168.794 205.343 162.483 319.996-4.43 116.519-101.744 279.556-100.923 347.127.821 67.56-57 222.79-231.787 225.25-153.491 2.46-476.115-56.24-625.914-143.68M-174.645 25.675c35.663 92.171 117.636 290.356 158.717 360.659 51.352 86.3 160.949 201.632 156.929 312.512-.258 114.614-74.957 275.559-73.314 346.754 1.642 71.19-74.598 219.3-246.572 224.22-151.742 4.93-479.277-48.55-630.869-135.02M-177.216 38.013c33.372 89.7 110.408 281.024 149.329 351.117 48.65 85.249 153.104 197.923 151.374 305.03 3.914 112.707-48.17 271.561-45.705 346.38 2.464 74.82-92.197 215.81-261.357 223.19-149.993 7.39-482.438-40.85-635.823-126.37M-179.786 50.35c31.08 87.229 103.18 271.692 139.939 341.577 45.948 84.197 145.259 194.212 145.821 297.547 8.086 110.801-21.383 267.563-18.097 346.006 3.285 78.45-109.795 212.31-276.141 222.16-148.245 9.85-485.601-33.15-640.779-117.71M-182.356 62.688c28.788 84.758 95.95 262.36 130.55 332.035C-8.56 477.869 85.606 585.226 88.46 684.788c12.258 108.894 5.405 263.565 9.512 345.642 4.107 82.07-127.393 208.81-290.926 221.12-146.496 12.31-488.763-25.46-645.734-109.05M-184.926 75.026c26.496 82.287 88.722 253.028 121.16 322.494 40.545 82.094 129.569 186.793 134.712 282.582 16.43 106.988 32.192 259.567 37.121 345.268 4.928 85.7-144.991 205.32-305.711 220.09-144.747 14.78-491.924-17.76-650.688-100.39M-187.496 87.364c24.204 79.815 81.493 243.696 111.77 312.952C-37.882 481.36 45.998 583.399 53.432 675.415c20.602 105.082 58.98 255.57 64.73 344.895 5.749 89.33-162.59 201.83-320.496 219.06-142.998 17.24-495.086-10.07-655.642-91.73m667.91-1047.939c21.912 77.345 74.265 234.365 102.38 303.412 35.143 79.992 113.88 179.373 123.604 267.616 24.774 103.176 85.768 251.572 92.339 344.531 6.571 92.95-180.188 198.33-335.28 218.02-141.251 19.7-498.248-2.37-660.598-83.08m674.985-1038.161c19.62 74.873 67.036 225.033 92.99 293.87C-67.203 484.85 6.39 581.572 18.405 666.043 47.351 767.312 130.96 913.617 138.352 1010.2c7.392 96.58-197.786 194.84-350.065 217-139.502 22.16-501.41 5.32-665.553-74.43m682.06-1028.393c17.328 72.402 59.807 215.701 83.601 284.329 29.74 77.889 98.19 171.953 112.496 252.651 33.118 99.363 139.342 243.576 147.556 343.783 8.213 100.21-215.385 191.34-364.85 215.97-137.753 24.62-504.572 13.01-670.507-65.77m689.134-1018.626c15.036 69.932 52.579 206.37 74.212 274.788 27.038 76.838 90.343 168.243 106.94 245.169 37.291 97.457 166.13 239.578 175.165 343.419 9.035 103.83-232.982 187.84-379.634 214.93-136.004 27.08-507.733 20.71-675.462-57.11m696.209-1008.858c12.744 67.46 45.35 197.037 64.822 265.247 24.336 75.786 82.499 164.533 101.387 237.685C7.325 747.535 158.78 887.565 168.636 995.03c9.857 107.46-250.58 184.35-394.419 213.9-134.255 29.54-510.895 28.41-680.416-48.45m703.282-999.09c10.453 64.989 38.123 187.705 55.433 255.705 21.635 74.736 74.654 160.824 95.833 230.203 45.635 93.645 219.705 231.583 230.382 342.675 10.678 111.097-268.179 180.857-409.203 212.867-132.507 32.01-514.058 36.1-685.372-39.8m710.357-989.313c8.161 62.518 30.894 178.374 46.044 246.165 18.933 73.684 66.808 157.113 90.278 222.72 49.807 91.738 246.492 227.585 257.991 342.304 11.5 114.724-285.777 177.364-423.988 211.834-130.758 34.47-517.219 43.8-690.326-31.14m717.431-979.545c5.869 60.047 23.665 169.042 36.654 236.623 16.232 72.633 58.964 153.404 84.724 215.238 53.979 89.832 273.28 223.587 285.6 341.933 12.321 118.351-303.375 173.871-438.773 210.801-129.009 36.93-520.381 51.49-695.281-22.48m724.506-969.777c3.577 57.576 16.436 159.71 27.265 227.082 13.53 71.581 51.118 149.693 79.169 207.755 58.151 87.925 300.067 219.589 313.209 341.563 13.143 121.977-320.974 170.367-453.558 209.767-127.26 39.4-523.542 59.19-700.235-13.82m731.58-960.009c1.285 55.104 9.208 150.378 17.875 217.54 10.829 70.531 43.273 145.984 73.616 200.272 62.322 86.02 326.854 215.592 340.817 341.193 13.964 125.604-338.572 166.874-468.343 208.734-125.511 41.86-526.704 66.89-705.19-5.16m738.655-950.242c-1.007 52.634 1.979 141.047 8.485 208 8.128 69.479 35.429 142.274 68.062 192.789 66.495 84.114 353.641 211.594 368.426 340.822 14.785 129.231-356.17 163.381-483.127 207.701-123.763 44.32-529.867 74.58-710.145 3.5m745.729-940.474c-3.299 50.162-5.249 131.715-.904 198.458 5.426 68.428 27.583 138.564 62.507 185.307 70.667 82.207 380.429 207.596 396.035 340.451 15.606 132.858-373.769 159.888-497.912 206.668-122.014 46.78-533.028 82.28-715.1 12.15m752.804-930.697c-5.591 47.692-12.478 122.384-10.294 188.918 2.725 67.376 19.738 134.854 56.953 177.824 74.839 80.301 407.217 203.598 423.644 340.08 16.428 136.485-391.367 156.395-512.697 205.635-120.265 49.25-536.19 89.97-720.055 20.81" stroke="url(#paint0_linear_170_2761)"/><defs><linearGradient id="paint0_linear_170_2761" x1="-24.5" y1="203" x2="-312.747" y2="970.297" gradientUnits="userSpaceOnUse"><stop offset=".193" stop-color="#A3A3A3" stop-opacity=".2"/><stop offset=".647" stop-color="#71A1FD" stop-opacity=".5"/><stop offset="1" stop-color="#1C63EC"/></linearGradient></defs></svg>