<svg width="261" height="1283" viewBox="0 0 261 1283" fill="none" xmlns="http://www.w3.org/2000/svg">
<path d="M-169.505 1C-129.258 98.1128 -37.4121 310.019 7.99139 380.741C64.7458 469.143 184.631 589.793 176.029 708.219C167.427 826.645 47.4968 991.773 47.4968 1055.71C47.4968 1119.65 8.09546 1282 -169.505 1282C-324.745 1282 -642.458 1218.06 -790.465 1129.66M-223.477 260.091C-239.243 350.532 -270.773 531.414 -191.762 609.809C-112.751 688.203 242.242 809.409 259.491 949.518C276.74 1089.63 -149.474 1102.42 -267.991 1154.12C-386.507 1205.83 -807.343 1251.79 -993 1183.59M-172.075 13.3376C-134.12 107.979 -47.2108 313.025 -3.9682 383.537C50.0847 470.888 164.826 588.88 158.515 703.533C154.085 820.052 56.7705 983.089 57.5919 1050.66C58.4133 1118.22 0.592178 1273.45 -174.195 1275.91C-327.686 1278.37 -650.31 1219.67 -800.109 1132.23M-174.645 25.6753C-138.982 117.846 -57.0095 316.031 -15.9279 386.334C35.4235 472.634 145.021 587.966 141.001 698.846C140.743 813.46 66.044 974.405 67.6868 1045.6C69.3295 1116.79 -6.91124 1264.9 -178.885 1269.82C-330.627 1274.75 -658.162 1221.27 -809.754 1134.8M-177.216 38.0129C-143.844 127.713 -66.8081 319.037 -27.8875 389.13C20.7624 474.379 125.217 587.053 123.487 694.16C127.401 806.867 75.3176 965.721 77.7817 1040.54C80.2459 1115.36 -14.4145 1256.35 -183.575 1263.73C-333.568 1271.12 -666.013 1222.88 -819.398 1137.36M-179.786 50.3506C-148.706 137.579 -76.6067 322.042 -39.847 391.927C6.10138 476.124 105.412 586.139 105.974 689.474C114.06 800.275 84.5913 957.037 87.8768 1035.48C91.1623 1113.93 -21.9178 1247.79 -188.264 1257.64C-336.509 1267.49 -673.865 1224.49 -829.043 1139.93M-182.356 62.6882C-153.568 147.446 -86.4055 325.048 -51.8068 394.723C-8.5598 477.869 85.6074 585.226 88.4596 684.788C100.718 793.682 93.8648 948.353 97.9717 1030.43C102.079 1112.5 -29.4212 1239.24 -192.954 1251.55C-339.45 1263.86 -681.717 1226.09 -838.688 1142.5M-184.926 75.0262C-158.43 157.313 -96.204 328.054 -63.7663 397.52C-23.2208 479.614 65.8028 584.313 70.9458 680.102C87.3761 787.09 103.138 939.669 108.067 1025.37C112.995 1111.07 -36.9244 1230.69 -197.644 1245.46C-342.391 1260.24 -689.568 1227.7 -848.332 1145.07M-187.496 87.3638C-163.292 167.179 -106.003 331.06 -75.7259 400.316C-37.8819 481.36 45.9982 583.399 53.432 675.415C74.0343 780.497 112.412 930.985 118.162 1020.31C123.911 1109.64 -44.4277 1222.14 -202.334 1239.37C-345.332 1256.61 -697.42 1229.3 -857.976 1147.64M-190.066 99.7014C-168.154 177.046 -115.801 334.066 -87.6857 403.113C-52.5432 483.105 26.1935 582.486 35.9181 670.729C60.6924 773.905 121.686 922.301 128.257 1015.26C134.828 1108.21 -51.9311 1213.59 -207.023 1233.28C-348.274 1252.98 -705.271 1230.91 -867.621 1150.2M-192.636 112.039C-173.016 186.912 -125.6 337.072 -99.6452 405.909C-67.2042 484.85 6.38873 581.572 18.4042 666.043C47.3507 767.312 130.959 913.617 138.352 1010.2C145.744 1106.78 -59.4345 1205.04 -211.713 1227.2C-351.215 1249.36 -713.123 1232.52 -877.266 1152.77M-195.206 124.377C-177.878 196.779 -135.399 340.078 -111.605 408.706C-81.8653 486.595 -13.4158 580.659 0.890503 661.357C34.009 760.72 140.233 904.933 148.447 1005.14C156.66 1105.35 -66.9377 1196.48 -216.403 1221.11C-354.156 1245.73 -720.975 1234.12 -886.91 1155.34M-197.776 136.714C-182.74 206.646 -145.197 343.084 -123.564 411.502C-96.5264 488.34 -33.2206 579.745 -16.6234 656.671C20.6671 754.128 149.506 896.249 158.541 1000.09C167.576 1103.92 -74.4411 1187.93 -221.093 1215.02C-357.097 1242.1 -728.826 1235.73 -896.555 1157.91M-200.346 149.052C-187.602 216.512 -154.996 346.089 -135.524 414.299C-111.188 490.085 -53.0252 578.832 -34.1372 651.984C7.32539 747.535 158.78 887.565 168.636 995.03C178.493 1102.49 -81.9443 1179.38 -225.783 1208.93C-360.038 1238.47 -736.678 1237.34 -906.199 1160.48M-202.917 161.39C-192.464 226.379 -164.794 349.095 -147.484 417.095C-125.849 491.831 -72.8299 577.919 -51.6511 647.298C-6.01644 740.943 168.054 878.881 178.731 989.973C189.409 1101.07 -89.4476 1170.83 -230.472 1202.84C-362.979 1234.85 -744.53 1238.94 -915.844 1163.04M-205.487 173.727C-197.326 236.245 -174.593 352.101 -159.443 419.892C-140.51 493.576 -92.6346 577.005 -69.1649 642.612C-19.3583 734.35 177.327 870.197 188.826 984.916C200.326 1099.64 -96.9511 1162.28 -235.162 1196.75C-365.92 1231.22 -752.381 1240.55 -925.488 1165.61M-208.057 186.065C-202.188 246.112 -184.392 355.107 -171.403 422.688C-155.171 495.321 -112.439 576.092 -86.6787 637.926C-32.7 727.758 186.601 861.513 198.921 979.859C211.242 1098.21 -104.454 1153.73 -239.852 1190.66C-368.861 1227.59 -760.233 1242.15 -935.133 1168.18M-210.627 198.403C-207.05 255.979 -194.191 358.113 -183.362 425.485C-169.832 497.066 -132.244 575.178 -104.193 633.24C-46.0418 721.165 195.874 852.829 209.016 974.803C222.159 1096.78 -111.958 1145.17 -244.542 1184.57C-371.802 1223.97 -768.084 1243.76 -944.777 1170.75M-213.197 210.741C-211.912 265.845 -203.989 361.119 -195.322 428.281C-184.493 498.812 -152.049 574.265 -121.706 628.553C-59.3837 714.573 205.148 844.145 219.111 969.746C233.075 1095.35 -119.461 1136.62 -249.232 1178.48C-374.743 1220.34 -775.936 1245.37 -954.422 1173.32M-215.767 223.078C-216.774 275.712 -213.788 364.125 -207.282 431.078C-199.154 500.557 -171.853 573.352 -139.22 623.867C-72.7254 707.981 214.421 835.461 229.206 964.689C243.991 1093.92 -126.964 1128.07 -253.921 1172.39C-377.684 1216.71 -783.788 1246.97 -964.066 1175.89M-218.337 235.416C-221.636 285.578 -223.586 367.131 -219.241 433.874C-213.815 502.302 -191.658 572.438 -156.734 619.181C-86.0671 701.388 223.695 826.777 239.301 959.632C254.907 1092.49 -134.468 1119.52 -258.611 1166.3C-380.625 1213.08 -791.639 1248.58 -973.711 1178.45M-220.907 247.753C-226.498 295.445 -233.385 370.137 -231.201 436.671C-228.476 504.047 -211.463 571.525 -174.248 614.495C-99.409 694.796 232.969 818.093 249.396 954.575C265.824 1091.06 -141.971 1110.97 -263.301 1160.21C-383.566 1209.46 -799.491 1250.18 -983.356 1181.02" stroke="url(#paint0_linear_170_2761)"/>
<defs>
<linearGradient id="paint0_linear_170_2761" x1="-24.5" y1="203" x2="-312.747" y2="970.297" gradientUnits="userSpaceOnUse">
<stop offset="0.1926" stop-color="#A3A3A3" stop-opacity="0.2"/>
<stop offset="0.646899" stop-color="#71A1FD" stop-opacity="0.5"/>
<stop offset="1" stop-color="#1C63EC"/>
</linearGradient>
</defs>
</svg>
