<svg width="80" height="27" viewBox="0 0 80 27" fill="none" xmlns="http://www.w3.org/2000/svg">
<g clip-path="url(#clip0_193_248)">
<path d="M13.2447 25.265C11.1634 25.2658 9.12188 24.6839 7.34294 23.5827C7.31308 23.5645 7.28706 23.5405 7.26637 23.512C7.24568 23.4835 7.23075 23.451 7.22243 23.4166C7.2141 23.3822 7.21256 23.3464 7.21788 23.3114C7.22321 23.2763 7.23529 23.2427 7.25344 23.2125C7.28927 23.1515 7.34737 23.1075 7.41498 23.0902C7.48259 23.0728 7.55419 23.0835 7.61408 23.1199C9.12199 24.0517 10.8298 24.5955 12.59 24.7041C14.3501 24.8128 16.1098 24.4832 17.7171 23.7437C17.7486 23.7291 17.7827 23.721 17.8173 23.7199C17.8519 23.7187 17.8864 23.7245 17.9188 23.737C17.9512 23.7495 17.9808 23.7683 18.0061 23.7925C18.0313 23.8167 18.0516 23.8457 18.0659 23.8779C18.0804 23.9101 18.0885 23.9449 18.0897 23.9803C18.0909 24.0158 18.0853 24.0511 18.073 24.0843C18.0608 24.1174 18.0422 24.1478 18.0184 24.1736C17.9946 24.1995 17.966 24.2202 17.9342 24.2347C16.4616 24.917 14.8623 25.2683 13.2447 25.265Z" fill="white"/>
<path d="M13.2447 21.4336C12.792 21.4331 12.3402 21.3928 11.8943 21.3128C11.8595 21.3073 11.8262 21.2948 11.7962 21.2759C11.7663 21.257 11.7404 21.2322 11.72 21.203C11.6996 21.1737 11.6852 21.1405 11.6776 21.1055C11.67 21.0704 11.6694 21.0342 11.6758 20.9989C11.6877 20.9288 11.7264 20.8664 11.7835 20.8254C11.8405 20.7844 11.9111 20.7682 11.9799 20.7802C12.3958 20.8548 12.8172 20.8925 13.2395 20.8929C17.2064 20.8929 20.4337 17.5766 20.4337 13.4997C20.4342 13.0234 20.3902 12.5481 20.3021 12.0803C20.2934 12.045 20.2919 12.0083 20.2976 11.9724C20.3034 11.9365 20.3162 11.9021 20.3353 11.8714C20.3545 11.8408 20.3795 11.8143 20.409 11.7938C20.4385 11.7733 20.4717 11.7591 20.5067 11.7521C20.5418 11.7451 20.5778 11.7454 20.6127 11.753C20.6476 11.7607 20.6806 11.7755 20.7097 11.7965C20.7388 11.8175 20.7634 11.8444 20.7821 11.8754C20.8007 11.9064 20.8129 11.941 20.818 11.977C20.9128 12.4788 20.9604 12.9887 20.9602 13.4997C20.9654 17.8745 17.5026 21.4336 13.2447 21.4336Z" fill="white"/>
<path d="M7.65092 13.8285C7.58111 13.8285 7.51415 13.8003 7.46479 13.75C7.41542 13.6996 7.38769 13.6314 7.38769 13.5602C7.3735 12.5486 7.61054 11.5498 8.07676 10.6566C8.54298 9.76339 9.22324 9.00489 10.0543 8.45162C10.0833 8.43237 10.1158 8.41915 10.1498 8.41271C10.1838 8.40627 10.2188 8.40674 10.2527 8.41409C10.2865 8.42144 10.3186 8.43553 10.3472 8.45556C10.3757 8.47558 10.4 8.50114 10.4188 8.53077C10.4381 8.56045 10.4515 8.59375 10.458 8.62873C10.4645 8.66371 10.4642 8.69966 10.457 8.7345C10.4497 8.76934 10.4358 8.80236 10.4159 8.83165C10.396 8.86093 10.3706 8.88589 10.3412 8.90507C9.58497 9.4085 8.96591 10.0987 8.54158 10.9114C8.11725 11.7241 7.90142 12.633 7.91416 13.5535C7.91416 13.6247 7.88642 13.6929 7.83706 13.7433C7.78769 13.7936 7.72074 13.8218 7.65092 13.8218V13.8285Z" fill="white"/>
<path d="M24.6942 13.4996C24.691 16.5948 23.4995 19.5658 21.3748 21.777C21.3733 21.7813 21.3705 21.7851 21.3669 21.7877C21.3507 21.8057 21.3336 21.8228 21.3155 21.8387C20.6099 22.5636 19.8133 23.1902 18.9464 23.7021C18.9163 23.7196 18.8832 23.7309 18.8488 23.7353C18.8145 23.7397 18.7796 23.7371 18.7463 23.7278C18.7129 23.7184 18.6817 23.7025 18.6543 23.6808C18.627 23.6591 18.6042 23.6322 18.5871 23.6015C18.5695 23.5708 18.558 23.5369 18.5534 23.5016C18.5487 23.4664 18.551 23.4306 18.5601 23.3963C18.5692 23.362 18.5848 23.3298 18.6062 23.3017C18.6275 23.2736 18.6541 23.2501 18.6845 23.2326C19.4454 22.7849 20.15 22.2443 20.7825 21.6227L19.8361 20.6595C18.8116 21.6544 17.583 22.4049 16.2392 22.8568C14.8954 23.3087 13.4698 23.4507 12.0656 23.2725C10.6614 23.0944 9.31349 22.6005 8.11937 21.8265C6.92524 21.0526 5.9147 20.018 5.16074 18.7974L4.00908 19.5084C4.72418 20.6634 5.63985 21.6758 6.7112 22.4961C6.73933 22.5171 6.76307 22.5437 6.78104 22.5742C6.79901 22.6047 6.81085 22.6385 6.81587 22.6737C6.82089 22.7089 6.819 22.7448 6.81029 22.7792C6.80158 22.8137 6.78624 22.846 6.76516 22.8744C6.72369 22.9313 6.66178 22.9692 6.59296 22.9798C6.52415 22.9904 6.45403 22.9727 6.39795 22.9307C4.73083 21.6458 3.43505 19.9258 2.64739 17.9525C1.85974 15.9792 1.60944 13.8257 1.92294 11.7194C1.92165 11.7146 1.92165 11.7095 1.92294 11.7047C2.05593 10.8005 2.29363 9.91561 2.63104 9.06851C2.64393 9.03568 2.66305 9.00577 2.68732 8.9805C2.71158 8.95523 2.74051 8.93509 2.77243 8.92125C2.80435 8.90741 2.83865 8.90014 2.87334 8.89986C2.90803 8.89958 2.94243 8.90628 2.97457 8.9196C3.00698 8.93284 3.03648 8.95253 3.06135 8.97751C3.08623 9.00249 3.10598 9.03227 3.11945 9.06511C3.13293 9.09794 3.13986 9.13318 3.13984 9.16878C3.13982 9.20437 3.13286 9.2396 3.11935 9.27243C2.83044 9.99923 2.61779 10.7552 2.48495 11.5276L3.80902 11.7368C4.16637 9.64263 5.18482 7.72461 6.70954 6.27438C8.23426 4.82415 10.1819 3.92103 12.2563 3.70232C12.2908 3.69861 12.3256 3.70188 12.3589 3.71196C12.3921 3.72203 12.4231 3.7387 12.45 3.76102C12.4769 3.78334 12.4993 3.81086 12.5157 3.84199C12.5321 3.87313 12.5424 3.90727 12.5458 3.94245C12.5498 3.97783 12.5469 4.01366 12.5372 4.04787C12.5275 4.08207 12.5112 4.11396 12.4892 4.14168C12.4673 4.1694 12.4402 4.1924 12.4095 4.20933C12.3787 4.22625 12.345 4.23677 12.3102 4.24028C10.3062 4.45077 8.42844 5.3367 6.97419 6.75775C5.51994 8.1788 4.57236 10.0537 4.28153 12.0857C4.21216 12.5537 4.1774 13.0263 4.17755 13.4996C4.17765 13.9214 4.20491 14.3426 4.25916 14.7607C4.26892 14.8311 4.25083 14.9027 4.20887 14.9595C4.16691 15.0164 4.10452 15.0539 4.03541 15.0639H3.99987C3.9354 15.0644 3.87298 15.0408 3.82446 14.9975C3.77594 14.9542 3.74469 14.8943 3.73663 14.8291C3.6254 13.9795 3.62097 13.1189 3.72347 12.2681L2.3994 12.0588C2.09772 14.4717 2.56318 16.9196 3.72742 19.0429L4.87908 18.3319C4.47429 17.5948 4.16462 16.8075 3.95775 15.9896C3.94861 15.9554 3.9462 15.9197 3.95066 15.8846C3.95512 15.8494 3.96636 15.8155 3.98374 15.7849C4.00112 15.7542 4.02428 15.7273 4.0519 15.7058C4.07952 15.6843 4.11104 15.6686 4.14465 15.6595C4.17818 15.6507 4.2131 15.6486 4.24741 15.6535C4.28172 15.6585 4.31474 15.6702 4.34457 15.6882C4.37441 15.7061 4.40047 15.7299 4.42128 15.7581C4.44208 15.7864 4.45721 15.8185 4.4658 15.8527C4.68061 16.7009 5.01206 17.5139 5.4503 18.2675C5.45588 18.2797 5.46249 18.2914 5.47004 18.3024C5.47142 18.3072 5.47365 18.3118 5.47662 18.3158C6.18004 19.5158 7.14227 20.5367 8.29037 21.3012C9.43846 22.0658 10.7423 22.5538 12.1029 22.7283C13.4636 22.9029 14.8454 22.7593 16.1435 22.3086C17.4417 21.8579 18.6221 21.1118 19.5953 20.1269C19.6256 20.0974 19.6545 20.0652 19.6848 20.0343C20.5322 19.1484 21.1984 18.0995 21.6446 16.9488C21.6572 16.9159 21.6761 16.8858 21.7002 16.8604C21.7242 16.8349 21.753 16.8146 21.7848 16.8005C21.8166 16.7864 21.8508 16.7789 21.8854 16.7783C21.9201 16.7777 21.9545 16.7841 21.9868 16.7972C22.0191 16.8103 22.0486 16.8298 22.0735 16.8547C22.0984 16.8795 22.1183 16.9091 22.1319 16.9418C22.1454 16.9745 22.1525 17.0096 22.1527 17.0451C22.1529 17.0806 22.1461 17.1158 22.1329 17.1487C21.6853 18.3046 21.0285 19.3645 20.1968 20.2731L21.1523 21.2404C23.0889 19.1461 24.1683 16.3775 24.1703 13.4996V13.4728L22.8331 13.5104C22.832 14.3593 22.7245 15.2046 22.5132 16.0258C22.4987 16.0832 22.4659 16.1341 22.4199 16.1706C22.3739 16.207 22.3174 16.2268 22.2592 16.227C22.2366 16.2265 22.214 16.2234 22.1921 16.2176C22.1582 16.2087 22.1264 16.1931 22.0986 16.1716C22.0707 16.15 22.0473 16.123 22.0298 16.0922C22.0123 16.0613 22.001 16.0272 21.9965 15.9919C21.9921 15.9565 21.9946 15.9206 22.0039 15.8863C22.2056 15.1056 22.3073 14.3016 22.3066 13.4943C22.3066 13.4151 22.3066 13.336 22.3066 13.2568V13.2447C22.2714 11.9777 21.9834 10.7311 21.4603 9.58115C20.9371 8.43117 20.1897 7.40181 19.2636 6.55579L18.412 7.59683C19.3648 8.47573 20.0884 9.5821 20.5179 10.8165C20.53 10.8499 20.5355 10.8854 20.534 10.9209C20.5326 10.9565 20.5242 10.9914 20.5094 11.0236C20.4945 11.0558 20.4736 11.0847 20.4477 11.1086C20.4218 11.1324 20.3916 11.1508 20.3587 11.1627C20.326 11.1746 20.2914 11.1798 20.2567 11.178C20.2221 11.1762 20.1881 11.1674 20.1568 11.1522C20.1255 11.137 20.0974 11.1157 20.0743 11.0894C20.0511 11.0631 20.0332 11.0324 20.0217 10.999C19.6983 10.0751 19.1975 9.22629 18.5484 8.50207C17.8994 7.77785 17.1152 7.19282 16.2417 6.78117L15.731 8.04893C16.6186 8.47928 17.3868 9.12875 17.9658 9.93841C18.5448 10.7481 18.9162 11.6923 19.0464 12.6853C19.1904 13.7534 19.0511 14.8412 18.643 15.8359C18.2349 16.8305 17.573 17.6956 16.726 18.3413C16.6806 18.3754 16.6257 18.3937 16.5694 18.3936C16.5281 18.3935 16.4874 18.3835 16.4505 18.3644C16.4137 18.3453 16.3819 18.3176 16.3575 18.2836C16.3357 18.2549 16.3198 18.2221 16.3109 18.187C16.3019 18.1519 16.3 18.1153 16.3053 18.0794C16.3106 18.0436 16.3229 18.0092 16.3416 17.9783C16.3603 17.9475 16.385 17.9208 16.4141 17.8999C16.5828 17.7729 16.7437 17.6354 16.8958 17.4881L15.9324 16.5315C15.388 17.0403 14.7152 17.3841 13.9897 17.5243C13.7445 17.5718 13.4956 17.596 13.246 17.5967C12.5477 17.5963 11.8618 17.4084 11.2573 17.0521C11.2267 17.0344 11.1999 17.0107 11.1784 16.9824C11.157 16.954 11.1413 16.9215 11.1324 16.8869C11.1234 16.8523 11.1213 16.8162 11.1263 16.7807C11.1312 16.7453 11.1431 16.7112 11.1612 16.6805C11.1961 16.6193 11.2534 16.5747 11.3204 16.5564C11.3875 16.538 11.4589 16.5474 11.5192 16.5825C12.1866 16.9759 12.9641 17.13 13.7275 17.0204C14.4909 16.9107 15.1962 16.5435 15.731 15.9775L15.7507 15.9574C15.9834 15.7053 16.1789 15.4202 16.3312 15.1108C16.347 15.0794 16.3687 15.0514 16.3951 15.0285C16.4215 15.0057 16.4521 14.9883 16.4851 14.9775C16.5181 14.9666 16.5529 14.9625 16.5874 14.9654C16.622 14.9682 16.6557 14.978 16.6865 14.9941C16.7174 15.0102 16.7448 15.0324 16.7673 15.0593C16.7897 15.0863 16.8067 15.1174 16.8174 15.1511C16.828 15.1847 16.832 15.2201 16.8292 15.2554C16.8264 15.2906 16.8168 15.3249 16.801 15.3563C16.6616 15.6377 16.4912 15.9019 16.293 16.1438L17.2564 17.1004C17.7574 16.5094 18.1292 15.8166 18.3471 15.0678C18.565 14.319 18.6239 13.5316 18.52 12.7578C18.4283 12.0456 18.1994 11.3589 17.8463 10.7372C17.4933 10.1156 17.0231 9.57126 16.4628 9.13559C15.6106 8.46609 14.5774 8.0793 13.5027 8.02747V9.40792C14.0328 9.44443 14.5503 9.58855 15.025 9.83184C15.4996 10.0751 15.9218 10.4127 16.2667 10.8246C16.2896 10.8514 16.3071 10.8825 16.3182 10.9162C16.3292 10.9499 16.3336 10.9855 16.331 11.021C16.3284 11.0564 16.319 11.091 16.3032 11.1227C16.2874 11.1544 16.2656 11.1826 16.239 11.2056C16.186 11.2514 16.1174 11.2741 16.0481 11.2685C15.9788 11.263 15.9145 11.2298 15.8692 11.1761C15.5436 10.7889 15.1399 10.478 14.6856 10.2645C14.2313 10.051 13.7371 9.94005 13.2368 9.93918C12.6715 9.93934 12.115 10.0813 11.6162 10.3524C11.1174 10.6236 10.6918 11.0156 10.3768 11.494C10.1908 11.7749 10.0446 12.0811 9.94242 12.4036L11.2507 12.7269C11.3005 12.5862 11.3649 12.4512 11.4429 12.3244C11.4626 12.2923 11.4837 12.2614 11.5047 12.2292C11.5247 12.2004 11.55 12.1758 11.5792 12.157C11.6085 12.1381 11.6411 12.1254 11.6752 12.1194C11.7093 12.1134 11.7443 12.1143 11.778 12.1221C11.8118 12.1299 11.8437 12.1444 11.8719 12.1648C11.9005 12.1852 11.9248 12.2113 11.9434 12.2414C11.962 12.2715 11.9745 12.305 11.9803 12.3401C11.986 12.3752 11.9849 12.4111 11.9769 12.4457C11.9689 12.4803 11.9543 12.513 11.9338 12.5418C11.918 12.5659 11.9022 12.5887 11.8877 12.6142C11.7962 12.7625 11.7282 12.9246 11.6864 13.0945C11.6834 13.1041 11.6812 13.114 11.6798 13.124C11.6075 13.4413 11.6292 13.7733 11.7421 14.078C11.855 14.3828 12.0541 14.6465 12.3142 14.8358C12.4856 14.9615 12.6799 15.0512 12.8857 15.0997C13.0914 15.1482 13.3046 15.1545 13.5128 15.1183C13.7209 15.0821 13.92 15.0041 14.0983 14.8888C14.2767 14.7735 14.4308 14.6233 14.5517 14.4468C14.796 14.0911 14.8936 13.6519 14.8235 13.2236C14.7533 12.7953 14.521 12.4122 14.1766 12.1568C13.9541 11.9937 13.694 11.8922 13.4216 11.8621C13.1492 11.832 12.8737 11.8744 12.6222 11.985C12.5903 11.999 12.556 12.0063 12.5213 12.0067C12.4867 12.0071 12.4523 12.0005 12.4201 11.9873C12.3879 11.9741 12.3586 11.9545 12.3339 11.9297C12.3092 11.9049 12.2895 11.8754 12.276 11.8428C12.2619 11.8102 12.2544 11.775 12.2538 11.7394C12.2532 11.7037 12.2596 11.6683 12.2726 11.6352C12.2856 11.6021 12.3049 11.572 12.3295 11.5466C12.354 11.5212 12.3832 11.5011 12.4155 11.4873C12.7498 11.3403 13.1158 11.2842 13.4777 11.3244C13.8397 11.3646 14.1852 11.4998 14.4806 11.7167C14.8402 11.9782 15.1111 12.3472 15.2558 12.7725L16.572 12.4801C16.5329 12.343 16.4855 12.2086 16.4299 12.0776C16.4154 12.0454 16.4072 12.0106 16.406 11.9751C16.4048 11.9397 16.4104 11.9044 16.4227 11.8712C16.4349 11.838 16.4535 11.8076 16.4773 11.7818C16.5011 11.756 16.5297 11.7352 16.5615 11.7208C16.6249 11.6921 16.6968 11.6902 16.7616 11.7153C16.8264 11.7404 16.8789 11.7906 16.9076 11.8549C17.0114 12.1003 17.0912 12.3555 17.1459 12.6169C17.1524 12.6504 17.1603 12.6853 17.1669 12.7189C17.2562 13.2003 17.2606 13.6941 17.1801 14.1771C17.17 14.2406 17.1379 14.2983 17.0896 14.3397C17.0412 14.381 16.9799 14.4033 16.9169 14.4025H16.8721C16.8377 14.3965 16.8047 14.3836 16.7752 14.3645C16.7457 14.3455 16.7203 14.3206 16.7003 14.2914C16.6803 14.2621 16.6663 14.2292 16.6589 14.1944C16.6516 14.1595 16.6511 14.1236 16.6576 14.0886C16.7181 13.7271 16.7234 13.3583 16.6734 12.9952L15.3572 13.289C15.405 13.807 15.2701 14.3255 14.9768 14.7513C14.8162 14.9848 14.6117 15.1836 14.3754 15.3362C14.139 15.4889 13.8753 15.5923 13.5995 15.6405C13.3238 15.6888 13.0413 15.681 12.7685 15.6174C12.4958 15.5539 12.238 15.436 12.0101 15.2705C11.699 15.0426 11.4531 14.7343 11.2978 14.3772C11.1426 14.0202 11.0836 13.6274 11.127 13.2394L9.8187 12.9147C9.71659 13.5679 9.79262 14.2371 10.0385 14.8492C10.1942 15.2397 10.417 15.5986 10.6966 15.9091C10.7206 15.9349 10.7394 15.9654 10.7517 15.9987C10.7641 16.032 10.7698 16.0675 10.7686 16.103C10.7674 16.1386 10.7592 16.1736 10.7446 16.206C10.73 16.2383 10.7092 16.2673 10.6834 16.2914C10.6355 16.3389 10.5713 16.3654 10.5044 16.3652C10.4682 16.3649 10.4325 16.357 10.3994 16.342C10.3664 16.327 10.3367 16.3052 10.3123 16.278C10.0475 15.9873 9.82577 15.6587 9.65418 15.3027L8.41697 15.8299C8.89877 16.8773 9.69535 17.741 10.6912 18.2958C11.6871 18.8506 12.8304 19.0676 13.9555 18.9155C14.4916 18.8412 15.0133 18.6828 15.502 18.4459C15.5336 18.4311 15.5677 18.4229 15.6025 18.4216C15.6372 18.4204 15.6719 18.4261 15.7045 18.4386C15.737 18.4511 15.7668 18.47 15.7921 18.4943C15.8175 18.5186 15.8378 18.5477 15.8521 18.5801C15.8672 18.6125 15.8758 18.6477 15.8774 18.6836C15.8789 18.7194 15.8734 18.7552 15.8611 18.7889C15.8488 18.8225 15.8301 18.8533 15.8059 18.8795C15.7817 18.9056 15.7527 18.9265 15.7204 18.941C14.95 19.3148 14.1085 19.5117 13.2552 19.5178C12.0964 19.5116 10.965 19.1573 10.0026 18.4992C9.04023 17.8411 8.28955 16.9085 7.84443 15.8178L7.83653 15.7964C7.70042 15.46 7.59512 15.1115 7.52197 14.7553C7.51394 14.7206 7.51278 14.6846 7.51857 14.6494C7.52436 14.6142 7.53698 14.5805 7.55569 14.5504C7.5744 14.5202 7.59883 14.4942 7.62754 14.4738C7.65625 14.4533 7.68866 14.439 7.72289 14.4315C7.75712 14.424 7.79247 14.4235 7.82687 14.4301C7.86128 14.4367 7.89404 14.4502 7.92326 14.4699C7.95247 14.4896 7.97754 14.515 7.997 14.5446C8.01646 14.5743 8.02992 14.6076 8.03659 14.6426C8.08571 14.8806 8.15035 15.115 8.23007 15.3443L9.46465 14.8144C9.40527 14.634 9.35778 14.4498 9.3225 14.263C9.12289 13.1957 9.34679 12.0914 9.94505 11.1922C10.2375 10.7465 10.6141 10.3647 11.053 10.0692C11.4919 9.77365 11.9842 9.57028 12.5011 9.47098C12.6597 9.43978 12.8202 9.41916 12.9815 9.40926V8.03149C12.8288 8.0382 12.6761 8.05296 12.5221 8.07442C12.0995 8.13318 11.6853 8.24399 11.2889 8.40444C11.2566 8.41723 11.2222 8.42342 11.1877 8.42266C11.1531 8.42189 11.119 8.41419 11.0873 8.39999C11.0557 8.38578 11.0271 8.36536 11.0032 8.33988C10.9792 8.3144 10.9605 8.28437 10.948 8.25151C10.935 8.21867 10.9284 8.18352 10.9288 8.1481C10.9292 8.11268 10.9364 8.07769 10.9501 8.04514C10.9638 8.01258 10.9837 7.98312 11.0087 7.95844C11.0336 7.93377 11.0631 7.91437 11.0954 7.90136C11.5313 7.72505 11.9865 7.60298 12.4511 7.53781C12.7053 7.50156 12.9617 7.48318 13.2184 7.4828H13.2552C13.9328 7.47986 14.6054 7.60025 15.2414 7.83831L15.7533 6.56921C14.9516 6.2607 14.1017 6.10254 13.2447 6.10235C9.27775 6.10235 6.05048 9.42 6.05048 13.4956C6.04633 15.0358 6.51451 16.5387 7.38955 17.7943C8.2646 19.0499 9.50275 19.9954 10.9309 20.4985C10.9928 20.5167 11.046 20.5574 11.0804 20.6128C11.1149 20.6683 11.1282 20.7348 11.1178 20.7996C11.1074 20.8644 11.0741 20.923 11.0241 20.9645C10.9741 21.0059 10.911 21.0272 10.8466 21.0244C10.8179 21.0247 10.7894 21.0197 10.7624 21.0096C9.22971 20.4705 7.90074 19.4565 6.96145 18.1094C6.02217 16.7623 5.51957 15.1496 5.524 13.497C5.524 9.12217 8.98687 5.56305 13.2447 5.56305C14.2419 5.56332 15.2294 5.76342 16.1508 6.15198L16.2311 6.18552C16.8632 6.46052 17.4571 6.81911 17.9974 7.25205L18.849 6.20967C17.3019 4.93772 15.3834 4.22689 13.3961 4.1893C13.3263 4.18823 13.2597 4.15894 13.2111 4.10787C13.1625 4.05679 13.1357 3.98812 13.1368 3.91696C13.1378 3.8458 13.1666 3.77798 13.2167 3.72842C13.2668 3.67886 13.3342 3.65161 13.404 3.65268C14.0627 3.66233 14.7186 3.74192 15.3611 3.89014L15.6915 2.54859C13.3398 1.99963 10.8759 2.2616 8.68593 3.29342C6.496 4.32524 4.7039 6.06859 3.59054 8.25017C3.57446 8.28152 3.55246 8.30931 3.52579 8.33196C3.49913 8.35461 3.46835 8.37167 3.4352 8.38214C3.40205 8.39261 3.36719 8.3963 3.33264 8.39299C3.29808 8.38968 3.26451 8.37944 3.23385 8.36286C3.20304 8.34635 3.17574 8.32378 3.15354 8.29645C3.13134 8.26913 3.11468 8.23758 3.10452 8.20365C3.09436 8.16971 3.0909 8.13405 3.09435 8.09875C3.0978 8.06344 3.10808 8.02918 3.12461 7.99796C4.0882 6.10876 5.54175 4.52518 7.32706 3.41959C9.11236 2.314 11.161 1.72875 13.25 1.72756C14.984 1.72414 16.6954 2.12812 18.2515 2.90812C18.2828 2.92357 18.3108 2.9452 18.3339 2.97175C18.3569 2.9983 18.3746 3.02925 18.3859 3.06281C18.3971 3.09637 18.4017 3.13187 18.3995 3.16726C18.3972 3.20266 18.388 3.23723 18.3725 3.269C18.3576 3.30082 18.3367 3.32932 18.3109 3.35289C18.2852 3.37645 18.2551 3.39461 18.2225 3.40632C18.1898 3.41803 18.1553 3.42307 18.1207 3.42114C18.0862 3.41922 18.0523 3.41037 18.0211 3.3951C17.4355 3.10208 16.8249 2.86409 16.1969 2.68408L15.8679 4.01624C17.1714 4.39724 18.379 5.06028 19.4084 5.96014C19.64 6.15869 19.8629 6.37021 20.077 6.5947C21.7254 8.30975 22.6998 10.5812 22.816 12.9791L24.1545 12.9416C24.0744 11.128 23.5618 9.36176 22.6612 7.7956C21.7606 6.22944 20.4991 4.91058 18.9859 3.95319C18.956 3.93466 18.93 3.91025 18.9095 3.88137C18.889 3.85249 18.8743 3.81974 18.8663 3.78501C18.8584 3.75029 18.8573 3.7143 18.8631 3.67913C18.8689 3.64397 18.8816 3.61035 18.9003 3.58024C18.9185 3.55013 18.9423 3.52398 18.9705 3.50329C18.9986 3.4826 19.0304 3.46778 19.0642 3.45968C19.0979 3.45158 19.1329 3.45035 19.1672 3.45608C19.2014 3.4618 19.2342 3.47436 19.2636 3.49303C20.8831 4.51792 22.227 5.93743 23.1741 7.62365C24.1212 9.30986 24.6417 11.2098 24.6889 13.1522C24.6889 13.1844 24.6889 13.2152 24.6889 13.2474C24.6928 13.3279 24.6942 13.4124 24.6942 13.4996Z" fill="white"/>
<path d="M0.325099 5.65731C0.282234 5.65713 0.239823 5.64835 0.200286 5.63147C0.16075 5.61459 0.124863 5.58993 0.0946753 5.55891C0.0644873 5.52789 0.0405886 5.49112 0.0243446 5.45069C0.00810068 5.41025 -0.000170527 5.36695 2.66459e-06 5.32326V0.562109C-0.000347531 0.413616 0.0571007 0.27104 0.159745 0.165663C0.26239 0.0602854 0.401849 0.000710067 0.547533 0H5.18048C5.26775 0 5.35145 0.0353361 5.41315 0.0982334C5.47486 0.161131 5.50953 0.246437 5.50953 0.335387C5.50953 0.424337 5.47486 0.509643 5.41315 0.572541C5.35145 0.635438 5.26775 0.670774 5.18048 0.670774H0.650195V5.32594C0.649507 5.41361 0.615035 5.49749 0.554216 5.55948C0.493397 5.62147 0.411107 5.65661 0.325099 5.65731Z" fill="white"/>
<path d="M5.18049 27.0003H0.547536C0.475288 27 0.403815 26.9851 0.337198 26.9566C0.270581 26.9281 0.210125 26.8865 0.159282 26.8342C0.108439 26.7819 0.0682044 26.7199 0.0408758 26.6517C0.0135472 26.5835 -0.000340186 26.5105 6.32815e-06 26.4369V21.6771C6.32815e-06 21.5892 0.0342569 21.5049 0.0952243 21.4428C0.156192 21.3806 0.238882 21.3457 0.325103 21.3457C0.411324 21.3457 0.494013 21.3806 0.55498 21.4428C0.615948 21.5049 0.650199 21.5892 0.650199 21.6771V26.3322H5.18049C5.26776 26.3322 5.35145 26.3676 5.41316 26.4305C5.47487 26.4934 5.50953 26.5787 5.50953 26.6676C5.50953 26.7566 5.47487 26.8419 5.41316 26.9048C5.35145 26.9677 5.26776 27.003 5.18049 27.003V27.0003Z" fill="white"/>
<path d="M25.9419 27.0001H21.309C21.2217 27.0001 21.138 26.9647 21.0763 26.9019C21.0146 26.839 20.9799 26.7536 20.9799 26.6647C20.9799 26.5757 21.0146 26.4904 21.0763 26.4275C21.138 26.3646 21.2217 26.3293 21.309 26.3293H25.8393V21.6741C25.8393 21.5863 25.8735 21.502 25.9345 21.4398C25.9954 21.3777 26.0781 21.3428 26.1643 21.3428C26.2506 21.3428 26.3333 21.3777 26.3942 21.4398C26.4552 21.502 26.4894 21.5863 26.4894 21.6741V26.4339C26.4901 26.5078 26.4765 26.5811 26.4493 26.6496C26.4222 26.7181 26.382 26.7804 26.3311 26.833C26.2802 26.8856 26.2197 26.9274 26.1529 26.9561C26.0861 26.9848 26.0144 26.9997 25.9419 27.0001Z" fill="white"/>
<path d="M26.1643 5.65706C26.1215 5.65689 26.0791 5.64811 26.0395 5.63123C26 5.61434 25.9641 5.58969 25.9339 5.55867C25.9037 5.52765 25.8798 5.49088 25.8636 5.45044C25.8474 5.41001 25.8391 5.36671 25.8393 5.32302V0.667844H21.309C21.2217 0.667844 21.138 0.632512 21.0763 0.569615C21.0146 0.506718 20.9799 0.421408 20.9799 0.332457C20.9799 0.243507 21.0146 0.158201 21.0763 0.0953037C21.138 0.0324064 21.2217 -0.00292969 21.309 -0.00292969H25.9419C26.0876 -0.00221962 26.2271 0.0573598 26.3297 0.162737C26.4323 0.268115 26.4898 0.410686 26.4894 0.559179V5.32034C26.4898 5.3642 26.4817 5.40771 26.4655 5.44838C26.4494 5.48904 26.4255 5.52606 26.3953 5.55733C26.3651 5.5886 26.3292 5.6135 26.2896 5.63061C26.2499 5.64772 26.2074 5.65671 26.1643 5.65706Z" fill="white"/>
<path d="M37.4637 11.7374H33.8455L33.0953 13.4734H32.0937L35.1775 6.53223H36.1409L39.2353 13.4734H38.2126L37.4637 11.7374ZM37.1241 10.9446L35.654 7.54375L34.1825 10.9446H37.1241Z" fill="white"/>
<path d="M40.412 6.53213H41.3754V11.8862L45.4029 6.53213H46.2979V13.4733H45.345V8.12857L41.307 13.4733H40.412V6.53213ZM41.6676 4.6875H42.3573C42.3678 5.20265 42.7377 5.50048 43.3405 5.50048C43.9433 5.50048 44.3039 5.20265 44.3237 4.6875H45.0041C44.9949 5.55012 44.3908 6.04649 43.3405 6.04649C42.2902 6.04649 41.6768 5.55012 41.6676 4.6875Z" fill="white"/>
<path d="M53.0986 7.39484H50.7663V13.4734H49.8134V7.39484H47.4851V6.53223H53.0986V7.39484Z" fill="white"/>
<path d="M54.2858 6.53223H55.2493V11.8863L59.2768 6.53223H60.1718V13.4734H59.2176V8.12867L55.1808 13.4734H54.2858V6.53223Z" fill="white"/>
<path d="M35.4118 19.1786H33.9903V22.2319H33.0374V15.2908H33.9903V18.3025H35.4302L37.5717 15.2881H38.6128L36.1805 18.65L38.7286 22.2293H37.6204L35.4118 19.1786Z" fill="white"/>
<path d="M44.0604 20.4976H40.4409L39.692 22.2322H38.6904L41.7742 15.291H42.7377L45.8307 22.2322H44.8093L44.0604 20.4976ZM43.7195 19.7047L42.2507 16.3025L40.7818 19.7047H43.7195Z" fill="white"/>
<path d="M51.3481 16.1566H49.0132V22.2351H48.059V16.1566H45.7346V15.2939H51.3481V16.1566Z" fill="white"/>
<path d="M56.6207 20.4976H53.0038L52.2536 22.2322H51.252L54.3358 15.291H55.2993L58.3923 22.2322H57.3709L56.6207 20.4976ZM56.2798 19.7047L54.811 16.3025L53.3421 19.7047H56.2798Z" fill="white"/>
<path d="M65.1627 15.291V22.2322H64.2098V16.1563H61.1931L61.126 18.1901C61.0378 20.9456 60.6193 22.3154 59.2768 22.3154C59.0702 22.316 58.8644 22.2889 58.6647 22.2349L58.7319 21.3535C58.8337 21.3804 58.9386 21.3934 59.0438 21.3924C59.8901 21.3924 60.1823 20.3715 60.2599 18.2196L60.3666 15.2937L65.1627 15.291Z" fill="white"/>
<path d="M66.7197 18.7617C66.7197 16.7292 68.257 15.2119 70.3484 15.2119C72.4398 15.2119 73.9574 16.7198 73.9574 18.7617C73.9574 20.8035 72.4214 22.3127 70.3484 22.3127C68.2755 22.3127 66.7197 20.7954 66.7197 18.7617ZM72.9847 18.7617C72.9847 17.2256 71.8568 16.0947 70.3524 16.0947C68.848 16.0947 67.6924 17.2296 67.6924 18.7617C67.6924 20.2937 68.8217 21.43 70.3484 21.43C71.8752 21.43 72.9847 20.2991 72.9847 18.7617Z" fill="white"/>
<path d="M79.9855 16.1563H76.4871L76.4976 22.2349H75.5342V15.291H80L79.9855 16.1563Z" fill="white"/>
</g>
<defs>
<clipPath id="clip0_193_248">
<rect width="80" height="27" fill="white"/>
</clipPath>
</defs>
</svg>
