<svg width="80" height="74" viewBox="0 0 80 74" fill="none" xmlns="http://www.w3.org/2000/svg">
<g clip-path="url(#clip0_180_2676)">
<path fill-rule="evenodd" clip-rule="evenodd" d="M45.155 29.1018C45.155 36.7127 39.024 42.8827 31.4613 42.8827C23.8983 42.8827 17.7676 36.7127 17.7676 29.1018C17.7676 21.4904 23.8983 15.3203 31.4613 15.3203C39.024 15.3203 45.155 21.4904 45.155 29.1018Z" fill="white"/>
<path fill-rule="evenodd" clip-rule="evenodd" d="M31.459 0.159485V8.42933C20.1163 8.42933 10.9184 17.6861 10.9184 29.1014H2.70117C2.70117 13.1209 15.5752 0.159485 31.459 0.159485Z" fill="white"/>
<path fill-rule="evenodd" clip-rule="evenodd" d="M77.3712 8.42836H36.29V0.159485H77.3712V8.42836Z" fill="white"/>
<path fill-rule="evenodd" clip-rule="evenodd" d="M60.9426 42.8865H52.7266V16.666H60.9426V42.8865Z" fill="white"/>
<path fill-rule="evenodd" clip-rule="evenodd" d="M28.1893 59.5506C29.0813 59.5506 29.565 59.1939 29.565 58.5121C29.565 57.8417 29.1029 57.5171 28.1893 57.5171H26.448V59.5506H28.1893ZM24.7178 53.2772H30.7903V54.6726H26.448V56.2301H28.5331C30.3497 56.2301 31.3276 57.0088 31.3276 58.4584C31.3276 59.9725 30.2207 60.8487 28.286 60.8487H24.7178V53.2772Z" fill="white"/>
<path fill-rule="evenodd" clip-rule="evenodd" d="M39.1748 53.2772V60.8487H37.4552V54.7047H34.8758L34.8219 56.284C34.725 59.2588 34.306 60.9677 32.5435 60.9677C32.2856 60.9677 32.006 60.9245 31.6835 60.8487L31.7913 59.3669C31.8986 59.3991 31.9952 59.4099 32.1029 59.4099C32.9843 59.4099 33.2097 58.2853 33.285 56.3489L33.3925 53.2772H39.1748Z" fill="white"/>
<path fill-rule="evenodd" clip-rule="evenodd" d="M46.9992 57.0631C46.9992 55.6246 45.9888 54.6403 44.6456 54.6403C43.3021 54.6403 42.2917 55.6246 42.2917 57.0631C42.2917 58.5019 43.3021 59.486 44.6456 59.486C45.9888 59.486 46.9992 58.5019 46.9992 57.0631ZM40.5292 57.0631C40.5292 54.8133 42.2705 53.1476 44.6456 53.1476C47.01 53.1476 48.7617 54.8025 48.7617 57.0631C48.7617 59.3238 47.01 60.9786 44.6456 60.9786C42.2705 60.9786 40.5292 59.3129 40.5292 57.0631Z" fill="white"/>
<path fill-rule="evenodd" clip-rule="evenodd" d="M53.0152 57.7985H51.8114V60.8487H50.0811V53.2772H51.8114V56.3383H53.0579L55.0358 53.2772H56.8734L54.4124 56.9332L56.9489 60.8487H54.9711L53.0152 57.7985Z" fill="white"/>
<path fill-rule="evenodd" clip-rule="evenodd" d="M6.71027 67.6878H4.30282V73.8314H2.58319V67.6878H0.186523V66.2601H6.71027V67.6878Z" fill="white"/>
<path fill-rule="evenodd" clip-rule="evenodd" d="M13.6326 72.4252V73.8314H7.8075V66.2601H13.493V67.6663H9.53785V69.3101H13.0308V70.6729H9.53785V72.4252H13.6326Z" fill="white"/>
<path fill-rule="evenodd" clip-rule="evenodd" d="M16.3193 66.2601L17.8777 68.5529L19.4361 66.2601H21.4782L18.9741 69.8834L21.6825 73.8314H19.6296L17.8777 71.3219L16.1473 73.8314H14.1377L16.8243 69.9589L14.3094 66.2601H16.3193Z" fill="white"/>
<path fill-rule="evenodd" clip-rule="evenodd" d="M29.3902 66.2601V73.8314H27.6491V70.7274H24.2312V73.8314H22.4902V66.2601H24.2312V69.2452H27.6491V66.2601H29.3902Z" fill="white"/>
<path fill-rule="evenodd" clip-rule="evenodd" d="M37.2112 70.0464C37.2112 68.6077 36.201 67.6236 34.8575 67.6236C33.514 67.6236 32.5036 68.6077 32.5036 70.0464C32.5036 71.485 33.514 72.4691 34.8575 72.4691C36.201 72.4691 37.2112 71.485 37.2112 70.0464ZM30.7412 70.0464C30.7412 67.7966 32.482 66.1306 34.8575 66.1306C37.222 66.1306 38.974 67.7858 38.974 70.0464C38.974 72.3071 37.222 73.9619 34.8575 73.9619C32.482 73.9619 30.7412 72.296 30.7412 70.0464Z" fill="white"/>
<path fill-rule="evenodd" clip-rule="evenodd" d="M46.8108 66.2601V73.8314H45.091V67.6876H42.5117L42.458 69.2669C42.3611 72.2413 41.9421 73.9504 40.1796 73.9504C39.9217 73.9504 39.6421 73.9074 39.3196 73.8314L39.4272 72.3496C39.5347 72.3818 39.6311 72.3927 39.739 72.3927C40.6202 72.3927 40.8459 71.2681 40.9213 69.3316L41.0286 66.2601H46.8108Z" fill="white"/>
<path fill-rule="evenodd" clip-rule="evenodd" d="M54.635 70.0464C54.635 68.6077 53.6248 67.6236 52.2815 67.6236C50.9382 67.6236 49.9274 68.6077 49.9274 70.0464C49.9274 71.485 50.9382 72.4691 52.2815 72.4691C53.6248 72.4691 54.635 71.485 54.635 70.0464ZM48.165 70.0464C48.165 67.7966 49.9062 66.1306 52.2815 66.1306C54.6458 66.1306 56.3978 67.7858 56.3978 70.0464C56.3978 72.3071 54.6458 73.9619 52.2815 73.9619C49.9062 73.9619 48.165 72.296 48.165 70.0464Z" fill="white"/>
<path fill-rule="evenodd" clip-rule="evenodd" d="M63.0406 67.6878H59.4618L59.4724 73.8314H57.7422V66.2601H63.0514L63.0406 67.6878Z" fill="white"/>
<path fill-rule="evenodd" clip-rule="evenodd" d="M64.1133 66.2601H65.8433V71.1923L69.4335 66.2601H71.0668V73.8314H69.3472V68.9099L65.7576 73.8314H64.1133V66.2601Z" fill="white"/>
<path fill-rule="evenodd" clip-rule="evenodd" d="M74.3199 64.1171H75.5129C75.5235 64.6362 75.8137 64.9068 76.4048 64.9068C76.9745 64.9068 77.286 64.6362 77.297 64.1171H78.4899C78.4792 65.1771 77.8127 65.7721 76.4048 65.7721C74.9756 65.7721 74.3305 65.1771 74.3199 64.1171ZM72.9335 66.2589H74.6639V71.1911L78.2537 66.2589H79.8872V73.8302H78.1674V68.9085L74.5776 73.8302H72.9335V66.2589Z" fill="white"/>
</g>
<defs>
<clipPath id="clip0_180_2676">
<rect width="80" height="74" fill="white"/>
</clipPath>
</defs>
</svg>
