<svg width="80" height="74" fill="none" xmlns="http://www.w3.org/2000/svg"><g clip-path="url(#clip0_180_2676)" fill-rule="evenodd" clip-rule="evenodd" fill="#fff"><path d="M45.155 29.102c0 7.61-6.131 13.78-13.694 13.78-7.563 0-13.693-6.17-13.693-13.78 0-7.612 6.13-13.782 13.693-13.782s13.694 6.17 13.694 13.782z"/><path d="M31.459.16v8.27c-11.343 0-20.54 9.256-20.54 20.671H2.7C2.701 13.121 15.575.16 31.46.16zm45.912 8.268H36.29V.16h41.081v8.27zM60.943 42.886h-8.216v-26.22h8.216v26.22zM28.19 59.55c.891 0 1.375-.356 1.375-1.038 0-.67-.462-.995-1.376-.995h-1.741v2.034h1.741zm-3.472-6.273h6.072v1.396h-4.342v1.557h2.085c1.817 0 2.795.779 2.795 2.228 0 1.514-1.107 2.39-3.042 2.39h-3.568v-7.57zm14.457 0v7.572h-1.72v-6.144h-2.58l-.053 1.579c-.097 2.975-.516 4.684-2.279 4.684a3.79 3.79 0 01-.86-.12l.108-1.481c.108.032.204.043.312.043.881 0 1.107-1.125 1.182-3.061l.108-3.072h5.782zM47 57.063c0-1.438-1.011-2.423-2.354-2.423-1.344 0-2.354.985-2.354 2.423 0 1.439 1.01 2.423 2.354 2.423 1.343 0 2.353-.984 2.353-2.423zm-6.47 0c0-2.25 1.74-3.915 4.116-3.915 2.364 0 4.116 1.654 4.116 3.915 0 2.26-1.752 3.916-4.116 3.916-2.376 0-4.117-1.666-4.117-3.916zm12.485.735h-1.204v3.05h-1.73v-7.57h1.73v3.06h1.247l1.978-3.06h1.837l-2.46 3.655 2.536 3.916H54.97l-1.956-3.05zM6.71 67.688H4.303v6.143h-1.72v-6.143H.187V66.26H6.71v1.428zm6.923 4.737v1.406H7.808v-7.57h5.685v1.405H9.538v1.644h3.493v1.363H9.538v1.752h4.095zm2.687-6.165l1.558 2.293 1.558-2.293h2.042l-2.504 3.623 2.709 3.948H19.63l-1.752-2.51-1.73 2.51h-2.01l2.686-3.872-2.515-3.699h2.01zm13.07 0v7.571h-1.74v-3.104h-3.42v3.104h-1.74v-7.57h1.74v2.984h3.418V66.26h1.741zm7.821 3.786c0-1.438-1.01-2.422-2.353-2.422-1.344 0-2.354.984-2.354 2.422 0 1.439 1.01 2.423 2.354 2.423 1.343 0 2.353-.984 2.353-2.423zm-6.47 0c0-2.25 1.741-3.915 4.117-3.915 2.364 0 4.116 1.655 4.116 3.915 0 2.261-1.752 3.916-4.116 3.916-2.376 0-4.117-1.666-4.117-3.916zM46.81 66.26v7.571h-1.719v-6.143h-2.58l-.053 1.579c-.097 2.974-.516 4.683-2.278 4.683a3.78 3.78 0 01-.86-.119l.107-1.481c.108.032.204.043.312.043.881 0 1.107-1.125 1.182-3.061l.108-3.072h5.782zm7.825 3.786c0-1.438-1.01-2.422-2.353-2.422-1.344 0-2.355.984-2.355 2.422 0 1.439 1.011 2.423 2.355 2.423 1.343 0 2.353-.984 2.353-2.423zm-6.47 0c0-2.25 1.741-3.915 4.117-3.915 2.364 0 4.116 1.655 4.116 3.915 0 2.261-1.752 3.916-4.117 3.916-2.375 0-4.116-1.666-4.116-3.916zm14.875-2.358h-3.578l.01 6.143h-1.73v-7.57h5.31l-.011 1.427zm1.073-1.428h1.73v4.932l3.59-4.932h1.634v7.571h-1.72V68.91l-3.59 4.921h-1.644v-7.57zm10.207-2.143h1.193c.01.52.3.79.892.79.57 0 .881-.27.892-.79h1.193c-.01 1.06-.677 1.655-2.085 1.655-1.43 0-2.075-.595-2.085-1.655zm-1.386 2.142h1.73v4.932l3.59-4.932h1.633v7.571h-1.72v-4.92l-3.59 4.921h-1.644V66.26z"/></g><defs><clipPath id="clip0_180_2676"><path fill="#fff" d="M0 0h80v74H0z"/></clipPath></defs></svg>