<svg width="1400" height="562" viewBox="0 0 1400 562" fill="none" xmlns="http://www.w3.org/2000/svg">
<rect width="1400" height="562" rx="30" fill="#216DFF"/>
<path opacity="0.5" d="M-208 -87C-144.833 -60.1667 68.4398 -62.5265 169.5 19.5C281 110 326.5 394 435.5 507C544.5 620 790.833 688.5 924.5 690.5M-198.184 36C-245.184 155.5 -246.784 404.1 -39.1838 442.5C220.316 490.5 455.825 335 629.325 371C802.825 407 917.316 573 940.316 630M-203.123 30.1431C-244.877 145.23 -236.245 381.88 -33.718 422.357C218.734 472.381 445.196 337.81 615.624 377.476C786.053 417.143 906.822 578.5 935.091 632.881M-207.392 24.2856C-243.9 134.96 -225.036 359.659 -27.5823 402.214C217.823 454.262 435.236 340.619 602.593 383.952C769.95 427.286 896.997 584 930.537 635.762M-210.941 18.4287C-242.203 124.691 -213.107 337.439 -20.7265 382.072C217.631 436.143 425.996 343.429 590.281 390.429C754.567 437.429 887.892 589.5 926.702 638.643M-213.737 12.5713C-239.753 114.42 -200.425 315.219 -13.1179 361.928C218.192 418.024 417.509 346.238 578.723 396.905C739.825 447.536 879.347 594.795 923.528 641.427L923.62 641.524M-215.773 6.71436C-236.543 104.151 -186.983 292.999 -4.7496 341.786C219.512 399.905 409.781 349.048 567.924 403.381C726.067 457.714 871.949 600.5 921.298 644.405M-217.073 0.856934C-232.597 93.8807 -172.804 270.778 4.3557 321.643C221.57 381.785 402.791 351.857 557.862 409.857C712.934 467.857 865.094 606 919.713 647.286M-217.686 -5C-227.964 83.6111 -157.939 248.558 14.1475 301.5C224.314 363.667 396.487 354.667 548.487 416.333C700.487 478 858.925 611.5 918.814 650.167M-217.682 -10.8569C-222.714 73.3415 -142.458 226.338 24.5559 281.357C227.675 345.548 390.8 357.476 539.728 422.81C688.657 488.143 853.373 617 918.532 653.048M-217.143 -16.7144C-216.929 63.0714 -126.44 204.117 35.5 261.214C231.571 327.428 385.648 360.286 531.505 429.286C677.362 498.286 848.357 622.5 918.786 655.929M-216.381 -22.5713C-210.921 52.8017 -110.2 181.897 46.6667 241.072C235.691 309.31 380.719 363.095 523.505 435.762C666.291 508.429 843.564 628 919.262 658.81M-215.619 -28.4287C-204.913 42.5316 -93.9602 159.676 57.8332 220.928C237.256 290.204 371.965 363.809 509.625 439.026L515.504 442.238C655.219 518.571 838.77 633.5 919.738 661.69M-214.857 -34.2856C-198.905 32.262 -77.7202 137.456 68.9999 200.786C243.929 273.071 370.861 368.714 507.504 448.714C644.147 528.714 833.976 639 920.214 664.571M-214.095 -40.1431C-192.897 21.9919 -61.4801 115.236 80.1667 180.643C248.048 254.952 365.932 371.524 499.504 455.19C633.075 538.857 829.182 644.5 920.69 667.452M-213.333 -46C-186.889 11.7222 -45.2401 93.0157 91.3334 160.5C252.167 236.833 361.003 374.333 491.503 461.667C622.003 549 824.389 650 921.167 670.333M-212.572 -51.8569C-180.881 1.45259 -29.0003 70.7956 102.5 140.357C256.286 218.714 356.074 377.143 483.503 468.143C610.931 559.143 819.595 655.5 921.643 673.214M-211.81 -57.7144C-174.873 -8.81753 -12.7603 48.575 113.667 120.214C260.405 200.595 351.145 379.952 475.502 474.619C599.859 569.286 814.802 661 922.119 676.095M-211.048 -63.5713C-168.865 -19.0872 3.47983 26.3549 124.833 100.072C264.524 182.476 346.216 382.762 467.502 481.095C588.787 579.429 810.008 666.5 922.595 678.976M-210.286 -69.4287C-162.857 -29.3573 19.7199 4.13432 136 79.9284C268.643 164.357 341.287 385.571 459.501 487.571C577.716 589.571 805.214 672 923.072 681.857M-209.524 -75.2856C-156.849 -39.6269 35.9597 -18.0858 147.167 59.7858C272.762 146.238 336.358 388.381 451.501 494.048C566.644 599.714 800.42 677.5 923.547 684.738M-208.762 -81.1431C-150.841 -49.897 52.1997 -40.3064 158.333 39.6426C276.881 128.119 331.429 391.19 443.5 500.524C555.572 609.857 795.627 683 924.024 687.619" stroke="url(#paint0_linear_312_268)"/>
<defs>
<linearGradient id="paint0_linear_312_268" x1="817.5" y1="580.5" x2="205.453" y2="-189.699" gradientUnits="userSpaceOnUse">
<stop stop-color="white"/>
<stop offset="0.981206" stop-color="white" stop-opacity="0"/>
</linearGradient>
</defs>
</svg>
