<svg width="140" height="57" viewBox="0 0 140 57" fill="none" xmlns="http://www.w3.org/2000/svg">
<g clip-path="url(#clip0_401_2858)">
<path d="M71.8171 28.5186V38.813H69.4146V30.4609H64.7057V38.813H62.3032V28.5186H71.8171Z" fill="white"/>
<path d="M83.6594 28.5186V38.813H81.27V30.4609H77.6859L77.6116 32.6118C77.4762 36.6556 76.8953 38.9786 74.4469 38.9786C74.0437 38.9699 73.6429 38.9158 73.2522 38.8173L73.4007 36.8018C73.5422 36.8442 73.6896 36.8646 73.8375 36.8621C75.0628 36.8621 75.3664 35.3327 75.48 32.7L75.6307 28.5229L83.6594 28.5186Z" fill="white"/>
<path d="M93.3501 36.6061H88.497L87.571 38.813H85.092L89.7507 28.5186H92.1401L96.8119 38.813H94.2761L93.3501 36.6061ZM92.5878 34.7993L90.9301 30.8566L89.2724 34.7993H92.5878Z" fill="white"/>
<path d="M107.789 28.5186V38.813H105.369V34.5928H100.621V38.813H98.2031V28.5186H100.621V32.5774H105.369V28.5186H107.789Z" fill="white"/>
<path d="M118.496 36.9008V38.813H110.401V28.5186H118.301V30.4307H112.806V32.6656H117.659V34.5197H112.806V36.9008H118.496Z" fill="white"/>
<path d="M128.44 30.4611H125.094V38.8133H122.704V30.4611H119.376V28.5253H128.44V30.4611Z" fill="white"/>
<path d="M136.516 36.6061H131.666L130.739 38.813H128.263L132.921 28.5186H135.311L139.985 38.813H137.436L136.516 36.6061ZM135.756 34.7993L134.099 30.8566L132.441 34.7993H135.756Z" fill="white"/>
<path d="M61.5737 51.3122C61.5737 48.2106 63.9937 45.9886 67.2524 45.9886C69.0586 45.9886 70.5678 46.6339 71.5528 47.8126L69.9999 49.2236C69.6818 48.8433 69.2813 48.5378 68.8279 48.3294C68.3744 48.121 67.8794 48.015 67.379 48.0191C65.4134 48.0191 64.0352 49.3721 64.0352 51.3122C64.0352 53.2524 65.4221 54.6075 67.379 54.6075C67.8812 54.6117 68.3778 54.504 68.8317 54.2924C69.2856 54.0809 69.6849 53.7709 69.9999 53.3857L71.5528 54.7967C70.5678 55.9884 69.0586 56.6358 67.2371 56.6358C63.9937 56.6358 61.5737 54.416 61.5737 51.3122Z" fill="white"/>
<path d="M72.1753 51.3122C72.1753 48.2536 74.5953 45.9886 77.8954 45.9886C81.1956 45.9886 83.6134 48.2385 83.6134 51.3122C83.6134 54.3859 81.1803 56.6358 77.8954 56.6358C74.6106 56.6358 72.1753 54.3709 72.1753 51.3122ZM81.165 51.3122C81.165 49.357 79.7606 48.0191 77.8889 48.0191C76.0171 48.0191 74.6127 49.357 74.6127 51.3122C74.6127 53.2674 76.0149 54.6075 77.8889 54.6075C79.7628 54.6075 81.165 53.2674 81.165 51.3122Z" fill="white"/>
<path d="M92.3935 55.7984V56.9169H90.1679V55.7833C86.6297 55.5682 84.6902 53.9765 84.6902 51.2835C84.6902 48.5906 86.6297 46.9817 90.1679 46.7859V45.7255H92.3935V46.7709C95.9186 46.9752 97.8537 48.5927 97.8537 51.2878C97.8537 53.983 95.9382 55.622 92.3935 55.7984ZM90.1679 53.9313V48.6529C88.0493 48.8444 87.0337 49.6811 87.0337 51.2835C87.0337 52.886 88.1542 53.7249 90.1679 53.9313ZM95.5298 51.2706C95.5298 49.6811 94.4683 48.8293 92.3935 48.6529V53.9313C94.4989 53.7399 95.5298 52.8731 95.5298 51.2706Z" fill="white"/>
<path d="M107.514 48.108H104.159V56.4601H101.772V48.108H98.4412V46.1722H107.514V48.108Z" fill="white"/>
<path d="M52.9341 23.3373C52.9315 23.3903 52.9234 23.4429 52.9101 23.4943C52.8605 23.7026 52.7511 23.8924 52.5949 24.0411C52.4387 24.1897 52.2424 24.291 52.0293 24.3327C51.8163 24.3745 51.5955 24.3549 51.3935 24.2764C51.1914 24.1979 51.0165 24.0638 50.8898 23.8901C50.8878 23.8852 50.8839 23.8814 50.879 23.8794C50.874 23.8773 50.8685 23.8773 50.8636 23.8793C50.8587 23.8813 50.8548 23.8852 50.8527 23.89C50.8507 23.8948 50.8506 23.9003 50.8527 23.9051C51.2965 25.9813 51.4334 28.1098 51.2589 30.2246C51.2393 30.459 51.2174 30.6913 51.1912 30.9237C51.1002 31.1251 50.9507 31.2955 50.7616 31.4133C50.5724 31.5312 50.3521 31.5913 50.1283 31.586C49.9045 31.5807 49.6873 31.5103 49.5041 31.3836C49.3209 31.2569 49.1799 31.0797 49.0988 30.8742C49.0959 30.8657 49.09 30.8585 49.0822 30.8538C49.0744 30.8491 49.0652 30.8472 49.0561 30.8485C49.0471 30.8497 49.0387 30.8541 49.0326 30.8607C49.0264 30.8674 49.0228 30.8759 49.0224 30.8849C48.7875 32.7957 48.2725 34.6628 47.4935 36.4279C47.4608 36.5054 47.4258 36.5806 47.3909 36.643C47.2528 36.8523 47.045 37.0077 46.8033 37.0826C46.5615 37.1576 46.3009 37.1474 46.0659 37.0539C45.831 36.9603 45.6364 36.7891 45.5155 36.5698C45.3946 36.3504 45.355 36.0965 45.4034 35.8515C45.4112 35.8185 45.4215 35.7862 45.4339 35.7547C45.458 35.7009 45.482 35.6428 45.5082 35.5869C45.9373 34.6143 46.2793 33.6067 46.5304 32.5756C47.4927 28.6104 47.048 24.4403 45.2703 20.7586C43.4925 17.0768 40.4888 14.1052 36.7584 12.3376C33.028 10.5701 28.7958 10.1132 24.7652 11.0429C20.7346 11.9726 17.1485 14.2328 14.6031 17.4479C12.0577 20.663 10.7063 24.6392 10.7735 28.7155C10.8408 32.7918 12.3227 36.7226 14.9729 39.8545C17.623 42.9864 21.2818 45.1307 25.3409 45.9309C29.4001 46.7311 33.615 46.139 37.2851 44.2531L37.3725 51.7814C37.3752 51.9944 37.4403 52.2021 37.56 52.3796C37.6797 52.557 37.849 52.6966 38.0474 52.7816C38.2452 52.8685 38.4646 52.8966 38.6785 52.8622C38.8924 52.8278 39.0913 52.7324 39.2508 52.588L40.0524 51.8782L40.8495 53.5623C40.9595 53.7935 41.1366 53.9874 41.3584 54.1194C36.631 56.3401 31.3795 57.2533 26.1657 56.7612C20.9519 56.2692 15.972 54.3904 11.7588 51.326C7.54565 48.2616 4.25768 44.1268 2.24668 39.3639C0.235689 34.6011 -0.422666 29.3894 0.342056 24.2865C1.10678 19.1836 3.2658 14.3814 6.58814 10.3938C9.91048 6.40612 14.2711 3.38301 19.2036 1.64787C24.136 -0.0872774 29.4547 -0.469161 34.5905 0.543071C39.7263 1.5553 44.4861 3.92356 48.3606 7.39448C48.5332 7.5515 48.7079 7.71068 48.8783 7.86985C48.9848 7.99231 49.0409 8.14962 49.0355 8.31079C49.0321 8.42971 49.016 8.54795 48.9875 8.66355C48.9531 8.8062 48.8905 8.94078 48.8032 9.05961C48.716 9.17843 48.6059 9.27917 48.4791 9.35607C48.3523 9.43297 48.2114 9.48452 48.0645 9.50779C47.9175 9.53105 47.7672 9.52557 47.6224 9.49165C47.5437 9.47193 47.4669 9.4453 47.3931 9.41207C47.4042 9.4195 47.4145 9.42816 47.4236 9.43788C49.3213 11.2387 50.9402 13.3041 52.2286 15.5681C52.3444 15.7724 52.458 15.9746 52.5672 16.1811C52.5944 16.3324 52.5899 16.4875 52.5541 16.6371C52.5199 16.7796 52.4576 16.9141 52.3705 17.0328C52.2835 17.1515 52.1735 17.2521 52.0469 17.3289C51.9202 17.4056 51.7795 17.457 51.6326 17.48C51.4858 17.503 51.3358 17.4973 51.1912 17.4631C51.0467 17.4298 50.9102 17.3692 50.7893 17.2845C50.7835 17.2789 50.7759 17.2757 50.7678 17.2753C50.7597 17.275 50.7518 17.2776 50.7455 17.2827C50.7393 17.2878 50.7352 17.2949 50.734 17.3028C50.7328 17.3107 50.7346 17.3187 50.7391 17.3254C51.629 19.0144 52.3123 20.8014 52.7747 22.649C52.8336 22.8813 52.8839 23.1093 52.9341 23.3373Z" fill="white"/>
<path d="M44.514 49.5213C44.4948 49.5747 44.4659 49.6242 44.4288 49.6675C44.3718 49.7384 44.2963 49.7927 44.2104 49.8245C44.1686 49.8409 44.1243 49.8503 44.0794 49.8525L42.1726 49.9859L43.3346 52.3756C43.3765 52.4603 43.401 52.5524 43.4067 52.6466C43.4123 52.7407 43.3989 52.835 43.3673 52.924C43.3064 53.0937 43.1833 53.2348 43.0223 53.3198L42.4129 53.6382C42.2577 53.7201 42.0774 53.743 41.9062 53.7027L41.8428 53.6855C41.7477 53.655 41.6598 53.6058 41.5847 53.5407C41.5096 53.4756 41.4488 53.396 41.406 53.3069L40.2441 50.8763L38.8179 52.1433C38.7463 52.2069 38.6576 52.2488 38.5624 52.2641C38.4672 52.2794 38.3696 52.2674 38.2811 52.2295C38.1927 52.1917 38.1172 52.1295 38.0637 52.0505C38.0101 51.9715 37.9808 51.879 37.9792 51.7841L37.8896 44.088V44.0536C37.8941 43.989 37.9145 43.9266 37.949 43.8715C37.9835 43.8165 38.031 43.7706 38.0876 43.7377C38.1442 43.7049 38.208 43.6861 38.2736 43.6831C38.3392 43.68 38.4046 43.6928 38.4641 43.7202C38.501 43.7381 38.5355 43.7605 38.5667 43.7868L44.3677 48.9943C44.441 49.0589 44.4938 49.143 44.5197 49.2365C44.5457 49.33 44.5437 49.4289 44.514 49.5213Z" fill="white"/>
</g>
<defs>
<clipPath id="clip0_401_2858">
<rect width="140" height="57" fill="white"/>
</clipPath>
</defs>
</svg>
