<svg width="1440" height="874" viewBox="0 0 1440 874" fill="none" xmlns="http://www.w3.org/2000/svg">
<path d="M1918.98 0.887C1785.35 23.7012 1353.93 -40.4077 1131.81 55.4513C886.748 161.213 734.178 579.493 489.39 720.125C244.602 860.757 -268.843 894.851 -539.969 859.954M1872.93 184.85C1942.69 379.623 1893.04 757.523 1464.44 756.909C928.689 756.142 484.822 453.212 125.792 458.632C-233.237 464.051 -500.421 683.594 -559.128 763.609M1884.18 177.359C1944.25 363.944 1876.42 720.796 1457.65 724.776C935.747 729.081 505.752 460.495 152.162 472.353C-201.428 484.211 -480.338 694.924 -549.16 769.466M1894.07 169.678C1944.46 348.074 1858.45 683.877 1449.51 692.451C941.449 701.829 525.325 467.586 177.175 485.883C-170.974 504.18 -461.612 706.062 -540.549 775.133M1902.5 161.792C1943.21 332 1839.02 646.755 1439.92 659.923C945.692 674.374 543.44 474.475 200.73 499.21C-141.979 523.946 -444.343 716.997 -533.396 780.595M1909.41 153.693C1940.43 315.712 1818.06 609.419 1428.79 627.181C948.411 646.705 560.03 481.148 222.76 512.323C-114.275 543.476 -428.164 727.461 -527.561 785.723L-527.767 785.844M1914.78 145.378C1936.12 299.209 1795.57 571.868 1416.13 594.224C949.592 618.821 575.082 487.607 243.252 525.221C-88.5771 562.834 -414.395 738.222 -523.677 790.877M1918.66 136.854C1930.31 282.496 1771.58 534.107 1401.98 561.057C949.28 590.726 588.641 493.857 262.252 537.908C-64.1376 581.96 -401.682 748.518 -521.08 795.701M1921.15 128.135C1923.11 265.589 1746.2 496.152 1386.43 527.696C947.577 562.438 600.809 499.912 279.86 550.402C-41.0887 600.893 -390.36 758.619 -519.873 800.33M1922.39 119.242C1914.66 248.507 1719.58 458.022 1369.64 494.16C944.626 533.975 611.73 505.791 296.22 562.721C-19.2885 619.65 -380.287 768.546 -519.915 804.785M1922.54 110.195C1905.13 231.272 1691.87 419.739 1351.76 460.471C940.59 505.359 621.565 511.519 311.496 574.887C1.42689 638.255 -371.298 778.32 -521.041 809.086M1922.24 101.087C1895.15 213.975 1663.71 381.394 1333.43 426.719C936.103 476.68 630.949 517.184 326.32 586.99C21.6913 656.797 -362.76 788.031 -522.619 813.326M1921.95 91.9771C1885.17 196.677 1635.54 343.048 1315.1 392.967C936.997 447.229 648.526 520.751 353.735 595.884L341.145 599.093C41.9564 675.338 -354.222 797.741 -524.196 817.564M1921.65 82.8684C1875.19 179.379 1607.38 304.703 1296.77 359.216C927.13 419.322 649.718 528.512 355.969 611.196C62.2209 693.881 -345.684 807.453 -525.773 821.803M1921.35 73.7589C1865.2 162.081 1579.22 266.357 1278.44 325.464C922.643 390.643 659.102 534.177 370.794 623.299C82.4854 712.422 -337.146 817.163 -527.351 826.042M1921.06 64.6502C1855.22 144.784 1551.06 228.011 1260.11 291.713C918.156 361.965 668.487 539.841 385.618 635.403C102.75 730.964 -328.609 826.875 -528.928 830.281M1920.76 55.5415C1845.24 127.487 1522.9 189.666 1241.79 257.961C913.669 333.286 677.871 545.506 400.443 647.506C123.015 749.506 -320.07 836.586 -530.505 834.521M1920.46 46.4321C1835.26 110.189 1494.74 151.32 1223.46 224.209C909.182 304.607 687.256 551.17 415.268 659.609C143.279 768.048 -311.533 846.296 -532.083 838.759M1920.17 37.3233C1825.27 92.8916 1466.58 112.975 1205.13 190.458C904.695 275.928 696.64 556.835 430.092 671.713C163.544 786.59 -302.995 856.008 -533.66 842.998M1919.87 28.2139C1815.29 75.5936 1438.41 74.6288 1186.8 156.706C900.209 247.249 706.024 562.499 444.916 683.815C183.808 805.131 -294.457 865.718 -535.238 847.237M1919.57 19.1052C1805.31 58.2964 1410.25 36.2836 1168.47 122.955C895.722 218.571 715.409 568.164 459.741 695.919C204.073 823.674 -285.919 875.43 -536.814 851.476M1919.28 9.99573C1795.33 40.9984 1382.09 -2.06242 1150.14 89.2026C891.235 189.891 724.793 573.828 474.566 708.022C224.338 842.215 -277.381 885.14 -538.392 855.715" stroke="url(#paint0_linear_611_10335)"/>
<defs>
<linearGradient id="paint0_linear_611_10335" x1="-51.9999" y1="727.5" x2="1703.05" y2="52.7232" gradientUnits="userSpaceOnUse">
<stop offset="0.130208" stop-color="white" stop-opacity="0.1"/>
<stop offset="0.370654" stop-color="#7739FC" stop-opacity="0.46"/>
<stop offset="0.697917" stop-color="#7739FC"/>
<stop offset="0.973958" stop-color="#7739FC" stop-opacity="0.44"/>
</linearGradient>
</defs>
</svg>
