<svg width="363" height="1442" viewBox="0 0 363 1442" fill="none" xmlns="http://www.w3.org/2000/svg">
<path d="M-220 234C-78.0444 490.379 171.608 598.795 143.5 890.5C117.741 1157.83 20.5 1306 -268 1441.5M-247.5 1C59 389 390.86 567 360 869.5C329.14 1172 -34.3135 1028.64 -311 1129M-220.887 226.484C-73.6237 487.109 178.68 597.77 150.484 889.823C124.561 1158.28 18.7317 1297.05 -269.387 1431.42M-221.774 218.968C-69.2028 483.839 185.753 596.744 157.468 889.145C131.38 1158.74 16.9637 1288.11 -270.774 1421.34M-222.661 211.452C-64.7821 480.568 192.826 595.718 164.452 888.468C138.199 1159.2 15.1954 1279.16 -272.161 1411.26M-223.548 203.935C-60.3612 477.298 199.898 594.693 171.436 887.79C145.019 1159.65 13.4273 1270.21 -273.548 1401.18M-224.436 196.419C-55.9405 474.028 206.971 593.667 178.419 887.113C151.838 1160.11 11.6591 1261.26 -274.936 1391.1M-225.323 188.903C-51.5196 470.757 214.044 592.641 185.403 886.435C158.657 1160.57 9.89099 1252.32 -276.323 1381.02M-226.21 181.387C-47.0989 467.487 221.116 591.616 192.387 885.758C165.477 1161.03 8.12271 1243.37 -277.71 1370.94M-227.097 173.871C-42.678 464.217 228.189 590.59 199.371 885.081C172.353 1160.9 7.05573 1234.11 -277.288 1360.05L-279.097 1360.85M-227.984 166.355C-38.2573 460.947 235.262 589.564 206.355 884.403C179.115 1161.94 4.58636 1225.47 -280.484 1350.77M-228.871 158.839C-33.8364 457.676 242.334 588.539 213.339 883.726C185.935 1162.4 2.81833 1216.53 -281.871 1340.69M-229.758 151.323C-29.4157 454.406 249.407 587.513 220.323 883.048C192.754 1162.86 1.05005 1207.58 -283.258 1330.61M-230.645 143.806C-24.9951 451.136 256.479 586.487 227.306 882.371C199.573 1163.31 -0.718231 1198.63 -284.645 1320.53M-231.532 136.29C-20.5742 447.865 263.552 585.462 234.29 881.693C206.392 1163.77 -2.4863 1189.69 -286.032 1310.45M-232.419 128.774C-16.1535 444.595 270.625 584.436 241.274 881.016C213.212 1164.23 -4.25458 1180.74 -287.419 1300.37M-233.306 121.258C-11.7325 441.325 277.698 583.41 248.258 880.339C220.031 1164.68 -6.02261 1171.79 -288.806 1290.29M-234.194 113.742C-7.31189 438.054 284.77 582.385 255.242 879.661C226.85 1165.14 -7.79092 1162.84 -290.194 1280.21M-235.081 106.226C-2.89093 434.784 291.843 581.359 262.226 878.984C233.67 1165.6 -9.55896 1153.9 -291.581 1270.13M-235.968 98.7097C1.52972 431.514 298.915 580.334 269.21 878.307C240.489 1166.06 -11.3272 1144.95 -292.968 1260.05M-236.855 91.1936C5.95065 428.244 305.988 579.308 276.194 877.629C247.308 1166.51 -13.0953 1136 -294.355 1249.97M-237.742 83.6774C10.3713 424.973 313.061 578.282 283.177 876.952C254.128 1166.97 -14.8636 1127.06 -295.742 1239.89M-238.629 76.1613C14.792 421.703 320.133 577.257 290.161 876.274C260.947 1167.43 -16.6319 1118.11 -297.129 1229.81M-239.516 68.6451C19.2129 418.433 327.206 576.231 297.145 875.597C267.766 1167.88 -18.3999 1109.16 -298.516 1219.73M-240.403 61.129C23.6336 415.162 334.279 575.205 304.129 874.919C274.585 1168.34 -20.1682 1100.21 -299.903 1209.65M-241.29 53.6129C28.0545 411.892 341.351 574.18 311.113 874.242C281.405 1168.8 -21.9362 1091.27 -301.29 1199.56M-242.177 46.0968C32.4752 408.622 348.424 573.154 318.097 873.565C288.224 1169.26 -23.7045 1082.32 -302.677 1189.48M-243.064 38.5807C36.8961 405.352 355.497 572.128 325.081 872.887C295.043 1169.71 -25.4726 1073.37 -304.064 1179.4M-243.952 31.0646C41.3168 402.081 362.569 571.103 332.064 872.21C301.863 1170.17 -27.2409 1064.42 -305.452 1169.32M-244.839 23.5483C45.7377 398.811 369.642 570.077 339.048 871.532C308.682 1170.63 -29.0089 1055.48 -306.839 1159.24M-245.726 16.0322C50.1584 395.541 376.715 569.051 346.032 870.855C315.501 1171.09 -30.7772 1046.53 -308.226 1149.16M-246.613 8.51611C54.5793 392.27 383.787 568.026 353.016 870.177C322.321 1171.54 -32.5453 1037.58 -309.613 1139.08" stroke="url(#paint0_linear_401_5533)"/>
<defs>
<linearGradient id="paint0_linear_401_5533" x1="26" y1="331" x2="-218.064" y2="976.086" gradientUnits="userSpaceOnUse">
<stop stop-color="#C2C2C2" stop-opacity="0"/>
<stop offset="0.350801" stop-color="#C2C2C2" stop-opacity="0.2"/>
<stop offset="0.696941" stop-color="#7739FC" stop-opacity="0.5"/>
<stop offset="1" stop-color="#7739FC"/>
</linearGradient>
</defs>
</svg>
