<svg width="1840" height="581" viewBox="0 0 1840 581" fill="none" xmlns="http://www.w3.org/2000/svg">
<path d="M0.920421 1.20052C277.521 171.689 352.973 53.3556 595.835 86.5088C697.559 100.395 743.291 153.441 844.055 173.119C1086.53 220.47 1226.56 26.3243 1468.91 74.3125C1605.67 101.395 1675.25 188.761 1798.91 210.534M117.5 579.605C380.494 481.603 511.671 356.573 790.94 328.654C1200.43 287.717 1494.11 543.138 1839.87 580.09M4.86587 18.569C276.786 181.977 352.982 65.6623 591.255 96.23C692.942 108.152 740.508 158.254 842.526 176.847C1083.78 222.01 1224.97 35.8565 1464.91 84.3405C1602.68 112.593 1675.17 199.498 1800.42 221.165M8.80988 35.9492C276.049 192.277 352.99 77.9808 586.673 105.963C688.323 115.921 737.724 163.078 840.996 180.586C1081.03 223.561 1223.37 45.4006 1460.91 94.3804C1599.68 123.803 1675.09 210.248 1801.92 231.809M12.7518 53.3425C275.31 202.59 352.996 90.3123 582.089 115.709C683.702 123.703 734.938 167.916 839.464 184.338C1078.28 225.126 1221.78 54.9576 1456.91 104.433C1596.69 135.026 1675 221.011 1803.43 242.465M16.6918 70.7502C274.57 212.917 353 102.658 577.504 125.47C679.079 131.5 732.151 172.768 837.93 188.105C1075.53 226.705 1220.18 64.5292 1452.91 114.5C1593.69 146.263 1674.91 231.788 1804.93 253.136M20.6294 88.1741C273.826 223.261 353.002 115.02 572.915 135.246C674.454 139.312 729.36 177.636 836.394 191.888C1072.78 228.3 1218.58 74.1168 1448.91 124.584C1590.69 157.517 1674.82 242.581 1806.42 263.822M24.5645 105.616C273.081 233.622 353.001 127.401 568.325 145.041C669.827 147.143 726.567 182.522 834.855 195.689C1070.02 229.913 1216.98 83.7226 1444.9 134.685C1587.68 168.788 1674.73 253.392 1807.92 274.527M28.4965 123.078C272.332 244.004 352.998 139.801 563.731 154.856C665.196 154.994 723.772 187.428 833.313 199.51C1067.27 231.547 1215.37 93.3486 1440.89 144.807C1584.67 180.08 1674.64 264.224 1809.41 285.252M32.4255 140.563C271.58 254.409 352.991 152.225 559.134 164.694C660.562 162.868 720.973 192.357 831.768 203.355C1064.5 233.204 1213.77 102.998 1436.88 154.952C1581.66 191.395 1674.54 275.078 1810.9 296.001M36.3504 158.075C270.825 264.84 352.98 164.674 554.534 174.558C655.924 170.768 718.17 197.313 830.219 207.225C1061.74 234.886 1212.15 112.673 1432.87 165.123C1578.65 202.736 1674.44 285.959 1812.39 306.775M40.2714 175.616C270.065 275.301 352.965 177.153 549.929 184.451C651.283 178.698 715.363 202.298 828.665 211.125C1058.97 236.598 1210.54 122.377 1428.84 175.323C1575.63 214.107 1674.33 296.869 1813.87 317.579M44.1872 193.191C269.3 285.796 352.945 189.667 545.319 194.379C646.636 186.662 712.551 207.317 827.107 215.059C1056.19 238.345 1208.92 132.116 1424.82 185.558C1572.61 225.512 1674.22 307.813 1815.35 328.417M48.0977 210.805C268.529 296.33 352.919 202.219 540.704 204.346C641.983 194.665 709.733 212.376 825.544 219.032C1053.41 240.13 1207.29 141.894 1420.79 195.832C1569.58 236.956 1674.1 318.797 1816.82 339.294M52.0013 228.465C267.752 306.909 352.887 214.817 536.081 214.359C637.324 202.714 706.909 217.48 823.973 223.051C1050.63 241.962 1205.66 151.718 1416.75 206.151C1566.54 248.446 1673.98 329.826 1818.28 350.217M55.8976 246.178C266.968 317.542 352.847 227.469 531.452 224.425C632.658 210.816 704.077 222.637 822.396 227.124C1047.83 243.847 1204.01 161.595 1412.71 216.524C1563.5 259.989 1673.85 340.909 1819.74 361.193M59.7845 263.955C266.174 328.238 352.799 240.184 526.813 234.554C627.982 218.981 701.236 227.858 820.808 231.259C1045.03 245.794 1202.36 171.536 1408.65 226.96C1560.45 271.595 1673.71 352.055 1821.19 372.233M63.661 281.806C265.37 339.009 352.739 252.973 522.164 244.758C623.296 227.22 698.385 233.153 819.211 235.469C1042.21 247.816 1200.7 181.55 1404.59 237.471C1557.39 283.275 1673.56 363.275 1822.62 383.346M67.5245 299.746C264.552 349.869 352.667 265.851 517.502 255.051C618.597 235.549 695.52 238.537 817.6 239.769C1039.38 249.928 1199.03 191.654 1400.51 248.071C1554.31 295.045 1673.4 374.584 1824.05 394.55M71.3728 317.794C263.72 360.837 352.579 278.838 512.824 265.452C613.882 243.986 692.641 244.029 815.975 244.176C1036.54 252.147 1197.34 201.866 1396.42 258.778C1551.22 306.923 1673.22 386.002 1825.46 405.861M75.202 335.973C262.868 371.935 352.472 291.955 508.128 275.983C609.149 252.554 689.742 249.652 814.33 248.714C1033.68 254.498 1195.63 212.209 1392.3 269.617C1548.11 318.932 1673.02 397.55 1826.85 417.302M79.0084 354.313C261.994 383.195 352.343 305.233 503.408 286.676C604.392 261.282 686.821 255.436 812.662 253.413C1030.8 257.009 1193.9 222.712 1388.17 280.616C1544.97 331.101 1672.8 409.259 1828.21 428.905M82.7862 372.85C261.091 394.652 352.185 318.709 498.66 297.567C599.607 270.209 683.871 261.418 810.966 258.309C1027.88 259.718 1192.14 233.414 1384.01 291.813C1541.81 343.469 1672.55 421.166 1829.55 440.706M86.529 391.634C260.153 406.355 351.992 332.43 493.878 308.702C594.788 279.381 680.885 267.645 809.235 263.452C1024.93 262.672 1190.35 244.361 1379.81 303.256C1538.62 356.082 1672.26 433.319 1830.85 452.752M90.2282 410.719C259.172 418.36 351.755 346.454 489.051 320.141C589.924 288.855 677.857 274.175 807.46 268.896C1021.94 265.929 1188.51 255.61 1375.57 315.001C1535.38 368.997 1671.94 445.774 1832.11 465.101M93.8748 430.173C258.137 430.734 351.466 360.847 484.172 331.948C585.008 298.698 674.775 281.073 805.633 274.709C1018.9 269.555 1186.62 267.228 1371.27 327.115C1532.08 382.281 1671.56 458.597 1833.32 477.818M97.4585 450.065C257.04 443.545 351.114 375.676 479.23 344.192C580.029 308.978 671.631 288.409 803.742 280.96C1015.79 273.618 1184.66 279.284 1366.91 339.666C1528.73 396.002 1671.11 471.858 1834.47 490.972M100.971 470.452C255.872 456.852 350.691 391.002 474.217 356.932C574.979 319.754 668.416 296.24 801.781 287.706C1012.61 278.176 1182.64 291.835 1362.48 352.713C1525.3 410.219 1670.6 485.614 1835.54 504.622M104.409 491.365C254.629 470.685 350.192 406.853 469.128 370.198C569.853 331.056 665.125 304.598 799.744 294.978C1009.36 283.261 1180.54 304.911 1357.98 366.285C1521.8 424.962 1670.01 499.897 1836.54 518.798M107.772 512.794C253.312 485.033 349.62 423.22 463.966 383.979C564.654 342.873 661.761 313.47 797.634 302.766C1006.03 288.861 1178.37 318.504 1353.4 380.374C1518.22 440.22 1669.35 514.695 1837.46 533.49M111.068 534.69C251.927 499.849 348.98 440.054 458.737 398.228C559.388 355.159 658.329 322.811 795.456 311.022C1002.64 294.928 1176.12 332.564 1348.76 394.93C1514.58 455.946 1668.62 529.96 1838.32 548.649M114.307 556.985C250.485 515.064 348.283 457.288 453.45 412.876C554.064 367.842 654.841 332.55 793.221 319.675C999.185 301.394 1173.83 347.023 1344.06 409.884C1510.88 472.071 1667.83 545.624 1839.12 564.207" stroke="url(#paint0_linear_657_944)"/>
<defs>
<linearGradient id="paint0_linear_657_944" x1="59.0972" y1="303.519" x2="477.247" y2="1001.28" gradientUnits="userSpaceOnUse">
<stop stop-color="#C2C2C2" stop-opacity="0"/>
<stop offset="0.222536" stop-color="#C2C2C2" stop-opacity="0.2"/>
<stop offset="0.484658" stop-color="#7739FC" stop-opacity="0.5"/>
<stop offset="1" stop-color="#7739FC"/>
</linearGradient>
</defs>
</svg>
