<svg width="80" height="33" viewBox="0 0 80 33" fill="none" xmlns="http://www.w3.org/2000/svg">
<g clip-path="url(#clip0_193_268)">
<path d="M41.0384 16.5107V22.4707H39.6655V17.6352H36.9747V22.4707H35.6019V16.5107H41.0384Z" fill="white"/>
<path d="M47.8053 16.5107V22.4707H46.4399V17.6352H44.3919L44.3494 18.8805C44.2721 21.2217 43.9401 22.5666 42.541 22.5666C42.3106 22.5615 42.0816 22.5302 41.8583 22.4732L41.9432 21.3063C42.0241 21.3309 42.1083 21.3426 42.1928 21.3412C42.893 21.3412 43.0664 20.4558 43.1313 18.9316L43.2175 16.5132L47.8053 16.5107Z" fill="white"/>
<path d="M53.3429 21.193H50.5697L50.0406 22.4707H48.624L51.2861 16.5107H52.6515L55.3211 22.4707H53.8721L53.3429 21.193ZM52.9073 20.147L51.9601 17.8644L51.0128 20.147H52.9073Z" fill="white"/>
<path d="M61.5938 16.5107V22.4707H60.2109V20.0274H57.4977V22.4707H56.1161V16.5107H57.4977V18.8606H60.2109V16.5107H61.5938Z" fill="white"/>
<path d="M67.7117 21.3636V22.4707H63.0864V16.5107H67.6006V17.6178H64.4605V18.9117H67.2337V19.9851H64.4605V21.3636H67.7117Z" fill="white"/>
<path d="M73.3941 17.6354H71.4821V22.4708H70.1167V17.6354H68.2147V16.5146H73.3941V17.6354Z" fill="white"/>
<path d="M78.0093 21.193H75.2374L74.7083 22.4707H73.293L75.9551 16.5107H77.3204L79.9913 22.4707H78.5348L78.0093 21.193ZM77.575 20.147L76.6278 17.8644L75.6805 20.147H77.575Z" fill="white"/>
<path d="M35.185 29.7071C35.185 27.9114 36.5678 26.625 38.4299 26.625C39.4621 26.625 40.3245 26.9986 40.8873 27.681L40 28.4979C39.8182 28.2777 39.5893 28.1008 39.3302 27.9802C39.0711 27.8595 38.7882 27.7981 38.5023 27.8005C37.3791 27.8005 36.5915 28.5838 36.5915 29.7071C36.5915 30.8303 37.3841 31.6149 38.5023 31.6149C38.7893 31.6173 39.073 31.555 39.3324 31.4325C39.5918 31.31 39.82 31.1305 40 30.9075L40.8873 31.7244C40.3245 32.4143 39.4621 32.7892 38.4212 32.7892C36.5678 32.7892 35.185 31.504 35.185 29.7071Z" fill="white"/>
<path d="M41.243 29.7071C41.243 27.9363 42.6259 26.625 44.5117 26.625C46.3975 26.625 47.7791 27.9276 47.7791 29.7071C47.7791 31.4866 46.3888 32.7892 44.5117 32.7892C42.6346 32.7892 41.243 31.4779 41.243 29.7071ZM46.38 29.7071C46.38 28.5751 45.5775 27.8005 44.5079 27.8005C43.4384 27.8005 42.6359 28.5751 42.6359 29.7071C42.6359 30.839 43.4371 31.6149 44.5079 31.6149C45.5788 31.6149 46.38 30.839 46.38 29.7071Z" fill="white"/>
<path d="M52.7963 32.3043V32.9519H51.5245V32.2956C49.5027 32.1711 48.3944 31.2496 48.3944 29.6905C48.3944 28.1314 49.5027 27.1999 51.5245 27.0866V26.4727H52.7963V27.0779C54.8106 27.1962 55.9164 28.1326 55.9164 29.693C55.9164 31.2533 54.8219 32.2022 52.7963 32.3043ZM51.5245 31.2234V28.1675C50.3139 28.2783 49.7336 28.7627 49.7336 29.6905C49.7336 30.6182 50.3738 31.1039 51.5245 31.2234ZM54.5885 29.683C54.5885 28.7627 53.9819 28.2696 52.7963 28.1675V31.2234C53.9994 31.1126 54.5885 30.6107 54.5885 29.683Z" fill="white"/>
<path d="M61.4365 27.8522H59.5195V32.6876H58.1554V27.8522H56.2521V26.7314H61.4365V27.8522Z" fill="white"/>
<path d="M30.2481 13.5111C30.2465 13.5417 30.2419 13.5722 30.2343 13.602C30.206 13.7225 30.1435 13.8324 30.0542 13.9185C29.965 14.0046 29.8528 14.0632 29.731 14.0874C29.6093 14.1115 29.4832 14.1002 29.3677 14.0548C29.2522 14.0093 29.1523 13.9317 29.0799 13.8311C29.0787 13.8283 29.0765 13.8261 29.0737 13.8249C29.0709 13.8237 29.0677 13.8237 29.0649 13.8249C29.0621 13.826 29.0599 13.8282 29.0587 13.831C29.0575 13.8339 29.0575 13.837 29.0587 13.8398C29.3123 15.0418 29.3905 16.2741 29.2908 17.4984C29.2796 17.6342 29.2671 17.7687 29.2521 17.9032C29.2001 18.0198 29.1147 18.1184 29.0066 18.1867C28.8985 18.2549 28.7726 18.2897 28.6447 18.2866C28.5169 18.2836 28.3927 18.2428 28.2881 18.1695C28.1834 18.0961 28.1028 17.9935 28.0565 17.8745C28.0548 17.8696 28.0514 17.8654 28.047 17.8627C28.0425 17.86 28.0372 17.8589 28.0321 17.8596C28.0269 17.8604 28.0221 17.8629 28.0186 17.8667C28.0151 17.8706 28.0131 17.8755 28.0128 17.8807C27.8786 18.987 27.5843 20.0679 27.1392 21.0898C27.1204 21.1347 27.1005 21.1783 27.0805 21.2144C27.0016 21.3355 26.8829 21.4255 26.7447 21.4689C26.6066 21.5123 26.4576 21.5064 26.3234 21.4522C26.1891 21.3981 26.0779 21.299 26.0089 21.172C25.9398 21.045 25.9171 20.898 25.9448 20.7561C25.9493 20.737 25.9551 20.7183 25.9623 20.7001C25.976 20.6689 25.9897 20.6353 26.0047 20.6029C26.2499 20.0399 26.4453 19.4565 26.5888 18.8595C27.1387 16.5639 26.8846 14.1497 25.8687 12.0181C24.8529 9.88657 23.1365 8.16614 21.0048 7.14284C18.8732 6.11955 16.4547 5.85503 14.1515 6.39326C11.8483 6.9315 9.79915 8.24006 8.34462 10.1014C6.8901 11.9628 6.11787 14.2648 6.15631 16.6247C6.19475 18.9847 7.04154 21.2605 8.55592 23.0737C10.0703 24.8869 12.161 26.1283 14.4805 26.5916C16.8 27.0549 19.2086 26.7121 21.3058 25.6202L21.3557 29.9787C21.3572 30.102 21.3944 30.2223 21.4629 30.325C21.5313 30.4277 21.628 30.5086 21.7414 30.5577C21.8544 30.6081 21.9798 30.6243 22.102 30.6044C22.2242 30.5845 22.3379 30.5293 22.429 30.4457L22.8871 30.0347L23.3426 31.0098C23.4054 31.1436 23.5066 31.2559 23.6334 31.3323C20.932 32.6179 17.9311 33.1466 14.9518 32.8618C11.9725 32.5769 9.12687 31.4892 6.71933 29.7151C4.3118 27.9409 2.43296 25.5471 1.28382 22.7896C0.134679 20.0322 -0.241523 17.0149 0.19546 14.0606C0.632444 11.1063 1.86617 8.3261 3.76465 6.01745C5.66313 3.70881 8.15494 1.95858 10.9735 0.954025C13.792 -0.0505315 16.8312 -0.271622 19.766 0.314407C22.7008 0.900437 25.4206 2.27153 27.6346 4.28101C27.7332 4.37192 27.8331 4.46407 27.9304 4.55622C27.9913 4.62713 28.0234 4.7182 28.0203 4.81151C28.0184 4.88036 28.0092 4.94881 27.9928 5.01573C27.9732 5.09832 27.9374 5.17624 27.8876 5.24503C27.8377 5.31383 27.7748 5.37215 27.7023 5.41667C27.6299 5.46119 27.5494 5.49104 27.4654 5.50451C27.3814 5.51798 27.2956 5.5148 27.2128 5.49517C27.1678 5.48375 27.124 5.46833 27.0818 5.44909C27.0881 5.45339 27.094 5.45841 27.0992 5.46403C28.1836 6.50662 29.1087 7.70239 29.8449 9.01309C29.9111 9.1314 29.976 9.24845 30.0384 9.368C30.0539 9.45559 30.0514 9.54542 30.0309 9.632C30.0114 9.71451 29.9758 9.79236 29.926 9.86109C29.8763 9.92982 29.8134 9.98807 29.7411 10.0325C29.6687 10.0769 29.5883 10.1067 29.5044 10.12C29.4204 10.1333 29.3347 10.13 29.2521 10.1102C29.1696 10.0909 29.0916 10.0558 29.0225 10.0068C29.0192 10.0036 29.0148 10.0017 29.0102 10.0015C29.0056 10.0013 29.001 10.0028 28.9975 10.0058C28.9939 10.0087 28.9915 10.0129 28.9909 10.0174C28.9902 10.022 28.9912 10.0266 28.9938 10.0305C29.5023 11.0083 29.8927 12.0429 30.157 13.1126C30.1906 13.2471 30.2194 13.3791 30.2481 13.5111Z" fill="white"/>
<path d="M25.4365 28.6703C25.4255 28.7012 25.409 28.7299 25.3878 28.755C25.3553 28.796 25.3121 28.8274 25.263 28.8459C25.2391 28.8553 25.2138 28.8608 25.1882 28.8621L24.0986 28.9393L24.7626 30.3228C24.7866 30.3719 24.8006 30.4252 24.8038 30.4797C24.807 30.5342 24.7993 30.5888 24.7813 30.6403C24.7464 30.7385 24.6761 30.8202 24.5841 30.8695L24.2359 31.0538C24.1472 31.1012 24.0442 31.1145 23.9463 31.0911L23.9102 31.0812C23.8558 31.0635 23.8056 31.035 23.7627 30.9973C23.7197 30.9596 23.685 30.9136 23.6605 30.862L22.9966 29.4548L22.1816 30.1883C22.1407 30.2251 22.09 30.2494 22.0356 30.2583C21.9812 30.2671 21.9254 30.2602 21.8749 30.2382C21.8244 30.2163 21.7812 30.1803 21.7506 30.1346C21.72 30.0889 21.7033 30.0353 21.7024 29.9803L21.6512 25.5247V25.5048C21.6537 25.4674 21.6654 25.4313 21.6851 25.3994C21.7048 25.3675 21.732 25.341 21.7643 25.3219C21.7966 25.3029 21.8331 25.2921 21.8706 25.2903C21.9081 25.2885 21.9454 25.2959 21.9794 25.3118C22.0005 25.3221 22.0202 25.3351 22.0381 25.3504L25.3529 28.3652C25.3948 28.4026 25.425 28.4513 25.4398 28.5054C25.4546 28.5596 25.4535 28.6168 25.4365 28.6703Z" fill="white"/>
</g>
<defs>
<clipPath id="clip0_193_268">
<rect width="80" height="33" fill="white"/>
</clipPath>
</defs>
</svg>
