<svg width="228" height="973" viewBox="0 0 228 973" fill="none" xmlns="http://www.w3.org/2000/svg">
<path d="M392.747 158.059C297.196 330.877 129.154 403.957 148.074 600.587C165.412 780.783 230.866 880.663 425.056 972M411.258 1C204.951 262.54 -18.4258 382.524 2.3463 586.431C23.1184 790.338 267.761 693.7 454 761.353M393.345 152.992C294.221 328.672 124.394 403.265 143.373 600.13C160.822 781.092 232.056 874.632 425.99 965.205M393.942 147.926C291.245 326.468 119.633 402.574 138.672 599.673C156.232 781.4 233.246 868.601 426.924 958.41M394.539 142.859C288.269 324.263 114.872 401.883 133.971 599.217C151.642 781.708 234.436 862.57 427.858 951.615M395.136 137.793C285.294 322.059 110.112 401.191 129.27 598.76C147.051 782.016 235.626 856.539 428.791 944.82M395.733 132.727C282.318 319.854 105.351 400.5 124.569 598.303C142.461 782.324 236.816 850.508 429.725 938.025M396.33 127.66C279.342 317.65 100.59 399.809 119.868 597.847C137.871 782.633 238.007 844.477 430.658 931.23M396.927 122.594C276.367 315.446 95.8297 399.117 115.167 597.39C133.281 782.941 239.197 838.446 431.592 924.434M397.524 117.527C273.391 313.241 91.069 398.426 110.467 596.934C128.652 782.855 239.915 832.206 431.308 917.099L432.526 917.639M398.121 112.461C270.415 311.037 86.3084 397.734 105.766 596.477C124.101 783.557 241.577 826.384 433.459 910.844M398.718 107.395C267.44 308.832 81.5477 397.043 101.065 596.02C119.511 783.865 242.767 820.352 434.393 904.049M399.316 102.328C264.464 306.628 76.7871 396.352 96.3639 595.564C114.921 784.174 243.957 814.321 435.327 897.254M399.913 97.2617C261.489 304.424 72.0266 395.66 91.6631 595.107C110.331 784.482 245.148 808.29 436.26 890.459M400.51 92.1953C258.513 302.219 67.2658 394.969 86.9621 594.65C105.74 784.79 246.338 802.259 437.194 883.664M401.107 87.1289C255.537 300.015 62.5053 394.278 82.2613 594.194C101.15 785.098 247.528 796.228 438.128 876.869M401.704 82.0625C252.561 297.81 57.7445 393.586 77.5604 593.737C96.5601 785.406 248.718 790.197 439.061 870.074M402.301 76.9961C249.586 295.606 52.9839 392.895 72.8596 593.281C91.9701 785.715 249.908 784.166 439.995 863.279M402.898 71.9297C246.61 293.402 48.2232 392.204 68.1586 592.824C87.3799 786.023 251.098 778.135 440.929 856.484M403.495 66.8633C243.635 291.197 43.4626 391.512 63.4578 592.367C82.7898 786.331 252.289 772.104 441.862 849.689M404.092 61.7969C240.659 288.993 38.7019 390.821 58.7568 591.911C78.1996 786.639 253.479 766.073 442.796 842.894M404.69 56.7305C237.683 286.788 33.9413 390.129 54.056 591.454C73.6096 786.947 254.669 760.042 443.73 836.098M405.287 51.6641C234.708 284.584 29.1808 389.438 49.3552 590.997C69.0196 787.256 255.859 754.01 444.663 829.303M405.884 46.5977C231.732 282.379 24.42 388.747 44.6542 590.541C64.4293 787.564 257.049 747.979 445.597 822.508M406.481 41.5313C228.756 280.175 19.6595 388.055 39.9534 590.084C59.8393 787.872 258.24 741.948 446.531 815.713M407.078 36.4649C225.781 277.971 14.8987 387.364 35.2525 589.627C55.2491 788.18 259.43 735.917 447.464 808.918M407.675 31.3985C222.805 275.766 10.1382 386.673 30.5517 589.171C50.6591 788.489 260.62 729.886 448.398 802.123M408.272 26.3321C219.829 273.562 5.37746 385.981 25.8507 588.714C46.0689 788.797 261.81 723.855 449.332 795.328M408.869 21.2657C216.854 271.357 0.61687 385.29 21.1499 588.258C41.4789 789.105 263 717.824 450.265 788.533M409.466 16.1992C213.878 269.153 -4.14388 384.599 16.4489 587.801C36.8886 789.413 264.19 711.793 451.199 781.738M410.064 11.1328C210.902 266.949 -8.90442 383.907 11.7481 587.344C32.2986 789.721 265.381 705.762 452.133 774.943M410.661 6.0664C207.927 264.744 -13.6652 383.216 7.04711 586.888C27.7084 790.029 266.571 699.731 453.066 768.148" stroke="url(#paint0_linear_611_9987)"/>
<defs>
<linearGradient id="paint0_linear_611_9987" x1="227.163" y1="223.444" x2="391.857" y2="658.122" gradientUnits="userSpaceOnUse">
<stop stop-color="#C2C2C2" stop-opacity="0"/>
<stop offset="0.350801" stop-color="#C2C2C2" stop-opacity="0.2"/>
<stop offset="0.696941" stop-color="#7739FC" stop-opacity="0.5"/>
<stop offset="1" stop-color="#7739FC"/>
</linearGradient>
</defs>
</svg>
