<svg width="80" height="80" viewBox="0 0 80 80" fill="none" xmlns="http://www.w3.org/2000/svg">
<path d="M53.596 67.8944H70.0862C71.4476 67.8944 72.5548 66.815 72.5548 65.4877V60.0801C72.5548 58.7528 71.4477 57.6733 70.0862 57.6733H53.596C52.2346 57.6733 51.1274 58.7527 51.1274 60.0801V65.4877C51.1281 66.819 52.2345 67.8944 53.596 67.8944ZM54.3636 60.8279H69.3227V64.7466H54.3636V60.8279Z" fill="#BD2738"/>
<path d="M18.5295 62.7852C18.5295 64.7759 16.8746 66.3895 14.8328 66.3895C12.7917 66.3895 11.1367 64.776 11.1367 62.7852C11.1367 60.7952 12.7916 59.1816 14.8328 59.1816C16.8745 59.1816 18.5295 60.7951 18.5295 62.7852Z" fill="#BD2738"/>
<path d="M31.8418 62.7852C31.8418 64.7759 30.1869 66.3895 28.145 66.3895C26.104 66.3895 24.449 64.776 24.449 62.7852C24.449 60.7952 26.1039 59.1816 28.145 59.1816C30.1868 59.1816 31.8418 60.7951 31.8418 62.7852Z" fill="#BD2738"/>
<path d="M53.596 44.6117H70.0862C71.4476 44.6117 72.5548 43.5323 72.5548 42.205V36.7974C72.5548 35.4701 71.4477 34.3906 70.0862 34.3906H53.596C52.2346 34.3906 51.1274 35.47 51.1274 36.7974V42.2011C51.1281 43.5291 52.2345 44.6117 53.596 44.6117ZM54.3636 37.5418H69.3227V41.4605H54.3636V37.5418Z" fill="#BD2738"/>
<path d="M18.5295 39.5037C18.5295 41.4937 16.8746 43.1072 14.8328 43.1072C12.7917 43.1072 11.1367 41.4937 11.1367 39.5037C11.1367 37.513 12.7916 35.8994 14.8328 35.8994C16.8745 35.8994 18.5295 37.5129 18.5295 39.5037Z" fill="#BD2738"/>
<path d="M31.8418 39.5037C31.8418 41.4937 30.1869 43.1072 28.145 43.1072C26.104 43.1072 24.449 41.4937 24.449 39.5037C24.449 37.513 26.1039 35.8994 28.145 35.8994C30.1868 35.8994 31.8418 37.5129 31.8418 39.5037Z" fill="#BD2738"/>
<path d="M53.596 21.3271H70.0862C71.4476 21.3271 72.5548 20.2477 72.5548 18.9203V13.5166C72.5548 12.1893 71.4477 11.1099 70.0862 11.1099H53.596C52.2346 11.1099 51.1274 12.1893 51.1274 13.5166V18.9203C51.1281 20.2477 52.2345 21.3271 53.596 21.3271ZM54.3636 14.2572H69.3227V18.1759H54.3636V14.2572Z" fill="#BD2738"/>
<path fill-rule="evenodd" clip-rule="evenodd" d="M76.7348 3C78.5366 3 79.9987 4.44933 79.9987 6.23761L80 26.1983C80 26.8208 79.7775 27.3681 79.4705 27.8606C79.7775 28.3532 80 28.9005 80 29.5229L79.9993 49.4803C79.9993 50.1028 79.7734 50.6501 79.4664 51.1427C79.7728 51.6352 79.9993 52.1825 79.9993 52.805V72.7624C79.9993 74.5467 78.5331 76 76.7354 76H41.617H38.3857H3.26729C1.46554 76 0.00337623 74.5507 0.00337623 72.7624V52.805C0.00337623 52.1825 0.229262 51.6352 0.536297 51.1427C0.229938 50.6501 0.00337623 50.1028 0.00337623 49.4803V29.5229C0.00337623 28.9011 0.225887 28.3532 0.529546 27.8573C0.222511 27.3648 0 26.8175 0 26.195V6.23761C0 4.45328 1.46627 3 3.26391 3H76.7348ZM76.7646 6.23761L3.26426 6.15124L3.23639 26.1987L27.2812 26.2811H76.7281L76.7646 6.23761ZM27.2813 49.5721H76.7282L76.7688 29.5235L3.26842 29.4371L3.24002 49.4857L27.2813 49.5721ZM27.2819 72.8532H76.7323L76.7693 52.8097L3.26902 52.7233L3.24061 72.7668L27.2819 72.8532Z" fill="#BD2738"/>
<path d="M18.5295 16.2178C18.5295 18.2085 16.8746 19.8221 14.8328 19.8221C12.7917 19.8221 11.1367 18.2086 11.1367 16.2178C11.1367 14.2278 12.7916 12.6143 14.8328 12.6143C16.8745 12.6143 18.5295 14.2278 18.5295 16.2178Z" fill="#BD2738"/>
<path d="M31.8452 16.2178C31.8452 18.2085 30.1903 19.8221 28.1484 19.8221C26.1074 19.8221 24.4524 18.2086 24.4524 16.2178C24.4524 14.2278 26.1073 12.6143 28.1484 12.6143C30.1902 12.6143 31.8452 14.2278 31.8452 16.2178Z" fill="#BD2738"/>
</svg>
