<svg width="80" height="80" viewBox="0 0 80 80" fill="none" xmlns="http://www.w3.org/2000/svg">
<path d="M20.7693 60.5128C22.7979 60.5128 24.7808 59.9113 26.4675 58.7843C28.1542 57.6573 29.4688 56.0555 30.245 54.1814C31.0213 52.3073 31.2244 50.245 30.8287 48.2555C30.4329 46.2659 29.4561 44.4384 28.0217 43.004C26.5873 41.5697 24.7598 40.5928 22.7703 40.1971C20.7807 39.8013 18.7185 40.0044 16.8444 40.7807C14.9703 41.557 13.3684 42.8716 12.2415 44.5583C11.1145 46.2449 10.5129 48.2279 10.5129 50.2564C10.516 52.9756 11.5976 55.5826 13.5203 57.5054C15.4431 59.4282 18.0501 60.5098 20.7693 60.5128ZM20.7693 42.5641C22.2907 42.5641 23.778 43.0153 25.043 43.8605C26.308 44.7057 27.2939 45.9071 27.8761 47.3127C28.4583 48.7183 28.6107 50.265 28.3139 51.7571C28.017 53.2493 27.2844 54.6199 26.2086 55.6957C25.1328 56.7715 23.7622 57.5041 22.27 57.8009C20.7779 58.0977 19.2312 57.9454 17.8256 57.3632C16.42 56.781 15.2187 55.795 14.3734 54.53C13.5282 53.265 13.077 51.7778 13.077 50.2564C13.0793 48.217 13.8905 46.2618 15.3326 44.8197C16.7747 43.3776 18.7299 42.5664 20.7693 42.5641Z" fill="#BD2738"/>
<path d="M70.3334 43.8462H62.6411C62.301 43.8462 61.9749 43.9813 61.7345 44.2217C61.4941 44.4621 61.359 44.7882 61.359 45.1282V55.3847C61.359 55.7247 61.4941 56.0508 61.7345 56.2912C61.9749 56.5316 62.301 56.6667 62.6411 56.6667H70.3334C70.6734 56.6667 70.9995 56.5316 71.2399 56.2912C71.4803 56.0508 71.6154 55.7247 71.6154 55.3847V45.1282C71.6154 44.7882 71.4803 44.4621 71.2399 44.2217C70.9995 43.9813 70.6734 43.8462 70.3334 43.8462ZM69.0513 54.1026H63.9231V46.4103H69.0513V54.1026Z" fill="#BD2738"/>
<path fill-rule="evenodd" clip-rule="evenodd" d="M75.2566 37.4359H47.6925V35.5129C47.6909 34.4343 47.3016 33.3923 46.5955 32.5771C45.8894 31.7618 44.9136 31.2277 43.8463 31.0722V24.6154H48.9745C49.3146 24.6154 49.6407 24.4804 49.8811 24.2399C50.1215 23.9995 50.2566 23.6734 50.2566 23.3334V14.359L65.6412 14.359C65.9812 14.359 66.3073 14.224 66.5478 13.9835C66.7882 13.7431 66.9233 13.417 66.9233 13.077C66.9233 12.737 66.7882 12.4109 66.5478 12.1704C66.3073 11.93 65.9812 11.7949 65.6412 11.7949L14.3592 11.7949C14.0191 11.7949 13.693 11.93 13.4526 12.1704C13.2122 12.4109 13.0771 12.737 13.0771 13.077C13.0771 13.417 13.2122 13.7431 13.4526 13.9835C13.693 14.224 14.0191 14.359 14.3592 14.359H29.7438V23.3334C29.7438 23.6734 29.8788 23.9995 30.1193 24.2399C30.3597 24.4804 30.6858 24.6154 31.0258 24.6154H36.154V31.0722C35.0868 31.2277 34.111 31.7618 33.4049 32.5771C32.6988 33.3923 32.3094 34.4343 32.3079 35.5129V37.4359H29.263C26.7459 35.7638 23.7913 34.8718 20.7694 34.8718C17.7475 34.8718 14.7929 35.7638 12.2758 37.4359H4.74377C3.5541 37.4373 2.41353 37.9104 1.57231 38.7517C0.731084 39.5929 0.257907 40.7335 0.256592 41.9231V58.5898C0.257907 59.7795 0.731084 60.92 1.57231 61.7613C2.41353 62.6025 3.5541 63.0757 4.74377 63.077H5.3848V65.0001C5.38611 66.1897 5.85929 67.3303 6.70051 68.1715C7.54174 69.0127 8.68231 69.4859 9.87198 69.4872H70.1284C71.3181 69.4859 72.4586 69.0127 73.2999 68.1715C74.1411 67.3303 74.6143 66.1897 74.6156 65.0001V63.077H75.2566C76.4463 63.0757 77.5868 62.6025 78.4281 61.7613C79.2693 60.92 79.7425 59.7795 79.7438 58.5898V41.9231C79.7425 40.7335 79.2693 39.5929 78.4281 38.7517C77.5868 37.9104 76.4463 37.4373 75.2566 37.4359ZM32.3079 14.359V22.0513H47.6925V14.359H32.3079ZM41.2822 31.0257V24.6154H38.7181V31.0257H41.2822ZM35.4357 34.1535C35.0751 34.5141 34.8724 35.003 34.872 35.5129V37.4359H45.1284V35.5129C45.128 35.003 44.9252 34.5141 44.5647 34.1535C44.2041 33.793 43.7152 33.5902 43.2053 33.5898H36.7951C36.2852 33.5902 35.7963 33.793 35.4357 34.1535ZM27.8921 39.5966C25.7838 38.1879 23.3051 37.4359 20.7694 37.4359C17.3704 37.4399 14.1118 38.7919 11.7083 41.1953C9.30484 43.5988 7.95284 46.8575 7.9489 50.2565C7.9489 52.7921 8.70081 55.2708 10.1095 57.3792C11.5183 59.4875 13.5206 61.1307 15.8632 62.1011C18.2059 63.0714 20.7836 63.3253 23.2706 62.8306C25.7575 62.336 28.0419 61.1149 29.8349 59.3219C31.6279 57.529 32.8489 55.2446 33.3436 52.7576C33.8383 50.2707 33.5844 47.6929 32.614 45.3503C31.6437 43.0076 30.0004 41.0053 27.8921 39.5966ZM3.38442 59.9492C3.74497 60.3097 4.23387 60.5125 4.74377 60.5129H9.31268C6.78366 57.6953 5.38481 54.0426 5.38481 50.2565C5.38481 46.4703 6.78366 42.8177 9.31268 40.0001H4.74377C4.23387 40.0005 3.74497 40.2032 3.38442 40.5638C3.02386 40.9243 2.82112 41.4132 2.82069 41.9231V58.5898C2.82112 59.0997 3.02386 59.5886 3.38442 59.9492ZM71.4877 66.3594C71.8483 65.9989 72.051 65.51 72.0515 65.0001V63.077H29.263C26.7459 64.7491 23.7913 65.6411 20.7694 65.6411C17.7475 65.6411 14.7929 64.7491 12.2758 63.077H7.9489V65.0001C7.94932 65.51 8.15207 65.9989 8.51262 66.3594C8.87318 66.72 9.36208 66.9227 9.87198 66.9231H70.1284C70.6383 66.9227 71.1272 66.72 71.4877 66.3594ZM76.6159 59.9492C76.9765 59.5886 77.1792 59.0997 77.1797 58.5898V41.9231C77.1792 41.4132 76.9765 40.9243 76.6159 40.5638C76.2554 40.2032 75.7665 40.0005 75.2566 40.0001H32.2261C34.7552 42.8177 36.154 46.4703 36.154 50.2565C36.154 54.0426 34.7552 57.6953 32.2261 60.5129H75.2566C75.7665 60.5125 76.2554 60.3097 76.6159 59.9492Z" fill="#BD2738"/>
</svg>
