<svg width="318" height="1145" viewBox="0 0 318 1145" fill="none" xmlns="http://www.w3.org/2000/svg">
<path d="M-111.893 249.961C-56.1878 343.715 -48.8158 415.472 30.7489 490.031C133.528 586.346 262.027 574.16 300.48 659.414C338.932 744.669 307.14 839.022 237.38 927.492C167.619 1015.96 115.215 1003.99 -53.2365 1013.3C-85.1186 1015.06 -103.118 1015.06 -135 1013.3M27.194 1C125.242 186.249 311.623 268.417 278.261 475.361C260.162 587.629 129.867 562.341 104.514 673.196C90.3828 734.982 101.019 875.252 82.7398 935.939C43.401 1066.54 13.9856 1101.13 -115.448 1144M-105.27 238.106C-49.8828 331.806 -39.4758 403.329 38.904 477.651C139.393 572.692 263.595 564.528 299.422 650.65C335.181 737.191 298.699 825.847 231.053 915.383C163.941 1002.58 114.539 997.86 -46.7614 1009.61C-78.9986 1017.51 -97.5416 1019.16 -134.069 1019.52M-98.6466 226.251C-43.5778 319.896 -30.1357 391.187 47.0591 465.271C145.258 559.038 265.162 554.896 298.364 641.885C331.43 729.713 290.257 812.672 224.726 903.274C160.263 989.203 113.863 991.73 -40.2864 1005.93C-72.8786 1019.96 -91.9652 1023.25 -133.138 1025.74M-92.0233 214.396C-37.2727 307.988 -20.7957 379.044 55.2142 452.891C151.123 545.384 266.729 545.264 297.306 633.121C327.679 722.235 281.816 799.496 218.399 891.164C156.585 975.823 113.187 985.599 -33.8113 1002.24C-66.7586 1022.41 -86.3888 1027.35 -132.207 1031.97M-85.4002 202.54C-30.9677 296.079 -11.4556 366.902 63.3693 440.51C156.987 531.73 268.297 535.632 296.248 624.356C323.928 714.757 273.374 786.321 212.072 879.055C152.907 962.443 112.511 979.469 -27.3362 998.561C-60.6386 1024.86 -80.8125 1031.45 -131.276 1038.19M-78.777 190.685C-24.6627 284.169 -2.11558 354.759 71.5244 428.13C162.852 518.076 269.864 526 295.19 615.592C320.177 707.278 264.932 773.146 205.745 866.946C149.229 949.062 111.835 973.338 -20.8612 994.877C-54.5187 1027.32 -75.2361 1035.55 -130.345 1044.42M-72.1538 178.83C-18.3576 272.26 7.22445 342.617 79.6795 415.75C168.717 504.422 271.432 516.368 294.132 606.827C316.426 699.8 256.491 759.97 199.418 854.836C145.551 935.683 111.159 967.208 -14.3861 991.193C-48.3987 1029.77 -69.6598 1039.65 -129.414 1050.64M-65.5306 166.974C-12.0526 260.351 16.5645 330.474 87.8346 403.369C174.581 490.768 272.999 506.736 293.074 598.063C312.675 692.322 248.049 746.795 193.091 842.727C141.873 922.303 110.483 961.078 -7.91105 987.51C-42.2787 1032.22 -64.0834 1043.75 -128.483 1056.86M-58.9074 155.119C-5.74752 248.442 25.9046 318.331 95.9898 390.989C180.446 477.113 274.566 497.104 292.016 589.298C308.925 684.844 239.608 733.62 186.764 830.618L186.518 831.014C138.1 909.078 109.619 954.996 -1.43596 983.826C-36.1587 1034.67 -58.507 1047.85 -127.552 1063.09M-52.2842 143.264C0.557508 236.533 35.2446 306.189 104.145 378.609C186.311 463.459 276.134 487.472 290.958 580.534C305.174 677.366 231.166 720.445 180.437 818.508C134.518 895.543 109.131 948.817 5.03909 980.143C-30.0387 1037.12 -52.9307 1051.95 -126.62 1069.31M-45.6611 131.408C6.86253 224.624 44.5846 294.047 112.3 366.228C192.175 449.806 277.701 477.84 289.899 571.77C301.423 669.888 222.724 707.269 174.11 806.399C130.84 882.163 108.455 942.686 11.5141 976.459C-23.9188 1039.57 -47.3543 1056.04 -125.689 1075.54M-39.0379 119.553C13.1675 212.715 53.9247 281.904 120.455 353.848C198.04 436.151 279.268 468.208 288.841 563.005C297.672 662.41 214.283 694.094 167.783 794.289C127.162 868.782 107.779 936.556 17.9892 972.775C-17.7988 1042.03 -41.778 1060.14 -124.758 1081.76M-32.4147 107.698C19.4726 200.806 63.2647 269.762 128.61 341.468C203.905 422.497 280.836 458.576 287.783 554.241C293.921 654.932 205.841 680.919 161.456 782.18C123.484 855.403 107.103 930.425 24.4643 969.092C-11.6788 1044.48 -36.2016 1064.24 -123.827 1087.98M-25.7916 95.8425C25.7776 188.897 72.6047 257.619 136.765 329.088C209.77 408.843 282.403 448.944 286.725 545.476C290.17 647.454 197.4 667.744 155.129 770.071C119.806 842.023 106.427 924.295 30.9393 965.408C-5.55886 1046.93 -30.6253 1068.34 -122.896 1094.21M-19.1683 83.9871C32.0827 176.988 81.9448 245.476 144.92 316.707C215.634 395.189 283.97 439.312 285.667 536.712C286.419 639.976 188.958 654.568 148.802 757.961C116.128 828.642 105.751 918.165 37.4144 961.725C0.561156 1049.38 -25.0489 1072.44 -121.965 1100.43M-12.5451 72.1319C38.3877 165.079 91.2849 233.334 153.076 304.327C221.499 381.535 285.538 429.68 284.609 527.947C282.668 632.498 180.517 641.393 142.475 745.852C112.45 815.263 105.075 912.034 43.8895 958.041C6.68113 1051.83 -19.4725 1076.54 -121.034 1106.66M-5.92197 60.2766C44.6927 153.17 100.625 221.192 161.231 291.947C227.364 367.881 287.105 420.049 283.551 519.183C278.917 625.02 172.075 628.218 136.149 733.743C108.772 801.883 104.399 905.904 50.3645 954.357C12.8011 1054.28 -13.8962 1080.64 -120.103 1112.88M0.701201 48.4212C50.9977 141.261 109.965 209.049 169.386 279.566C233.228 354.227 288.673 410.416 282.493 510.418C275.166 617.542 163.633 615.042 129.822 721.633C105.094 788.502 103.723 899.773 56.8396 950.674C18.9211 1056.74 -8.31985 1084.74 -119.172 1119.1M7.32438 36.5659C57.3028 129.352 119.305 196.906 177.541 267.186L178.8 268.687C239.788 341.397 290.18 401.473 281.435 501.654C271.415 610.064 155.192 601.867 123.495 709.524C101.416 775.122 103.047 893.643 63.3146 946.99C25.041 1059.19 -2.74351 1088.83 -118.241 1125.33M13.9476 24.7107C63.6079 117.443 128.645 184.764 185.696 254.806C244.958 326.919 291.807 391.153 280.377 492.89C267.664 602.586 146.75 588.692 117.168 697.415C97.7386 761.743 102.371 887.513 69.7897 943.307C31.161 1061.64 2.8329 1092.93 -117.31 1131.55M20.5708 12.8552C69.9129 105.534 137.985 172.621 193.851 242.425C250.822 313.265 293.375 381.521 279.319 484.125C263.913 595.107 138.309 575.516 110.841 685.305C94.0607 748.362 101.695 881.382 76.2648 939.623C37.281 1064.09 8.40924 1097.03 -116.379 1137.78" stroke="url(#paint0_linear_335_1831)"/>
<defs>
<linearGradient id="paint0_linear_335_1831" x1="122.289" y1="159.268" x2="-252.704" y2="437.173" gradientUnits="userSpaceOnUse">
<stop stop-color="#A3A3A3" stop-opacity="0.1"/>
<stop offset="0.605031" stop-color="#F0A5AE" stop-opacity="0.5"/>
<stop offset="0.830684" stop-color="#BD2738"/>
</linearGradient>
</defs>
</svg>
