<svg width="341" height="1283" viewBox="0 0 341 1283" fill="none" xmlns="http://www.w3.org/2000/svg">
<path d="M-89.5051 1C-49.2577 98.1128 42.5879 310.019 87.9914 380.741C144.746 469.143 264.631 589.793 256.029 708.219C247.427 826.645 127.497 991.773 127.497 1055.71C127.497 1119.65 88.0955 1282 -89.5051 1282C-244.745 1282 -562.458 1218.06 -710.465 1129.66M-143.477 260.091C-159.243 350.532 -190.773 531.414 -111.762 609.809C-32.7508 688.203 322.242 809.409 339.491 949.518C356.74 1089.63 -69.4742 1102.42 -187.991 1154.12C-306.507 1205.83 -727.343 1251.79 -913 1183.59M-92.0753 13.3376C-54.1198 107.979 32.7892 313.025 76.0318 383.537C130.085 470.888 244.826 588.88 238.515 703.533C234.085 820.052 136.771 983.089 137.592 1050.66C138.413 1118.22 80.5922 1273.45 -94.1949 1275.91C-247.686 1278.37 -570.31 1219.67 -720.109 1132.23M-94.6454 25.6753C-58.9818 117.846 22.9905 316.031 64.0721 386.334C115.423 472.634 225.021 587.966 221.001 698.846C220.743 813.46 146.044 974.405 147.687 1045.6C149.33 1116.79 73.0888 1264.9 -98.8848 1269.82C-250.627 1274.75 -578.162 1221.27 -729.754 1134.8M-97.2155 38.0129C-63.8438 127.713 13.1919 319.037 52.1125 389.13C100.762 474.379 205.217 587.053 203.487 694.16C207.401 806.867 155.318 965.721 157.782 1040.54C160.246 1115.36 65.5855 1256.35 -103.575 1263.73C-253.568 1271.12 -586.013 1222.88 -739.398 1137.36M-99.7855 50.3506C-68.7057 137.579 3.39333 322.042 40.153 391.927C86.1014 476.124 185.412 586.139 185.974 689.474C194.06 800.275 164.591 957.037 167.877 1035.48C171.162 1113.93 58.0822 1247.79 -108.264 1257.64C-256.509 1267.49 -593.865 1224.49 -749.043 1139.93M-102.356 62.6882C-73.5679 147.446 -6.40545 325.048 28.1932 394.723C71.4402 477.869 165.607 585.226 168.46 684.788C180.718 793.682 173.865 948.353 177.972 1030.43C182.079 1112.5 50.5788 1239.24 -112.954 1251.55C-259.45 1263.86 -601.717 1226.09 -758.688 1142.5M-104.926 75.0262C-78.4298 157.313 -16.204 328.054 16.2337 397.52C56.7792 479.614 145.803 584.313 150.946 680.102C167.376 787.09 183.138 939.669 188.067 1025.37C192.995 1111.07 43.0756 1230.69 -117.644 1245.46C-262.391 1260.24 -609.568 1227.7 -768.332 1145.07M-107.496 87.3638C-83.2918 167.179 -26.0026 331.06 4.27411 400.316C42.1181 481.36 125.998 583.399 133.432 675.415C154.034 780.497 192.412 930.985 198.162 1020.31C203.911 1109.64 35.5723 1222.14 -122.334 1239.37C-265.332 1256.61 -617.42 1229.3 -777.976 1147.64M-110.066 99.7014C-88.1539 177.046 -35.8014 334.066 -7.68567 403.113C27.4568 483.105 106.193 582.486 115.918 670.729C140.692 773.905 201.686 922.301 208.257 1015.26C214.828 1108.21 28.0689 1213.59 -127.023 1233.28C-268.274 1252.98 -625.271 1230.91 -787.621 1150.2M-112.636 112.039C-93.0158 186.912 -45.6 337.072 -19.6452 405.909C12.7958 484.85 86.3887 581.572 98.4042 666.043C127.351 767.312 210.959 913.617 218.352 1010.2C225.744 1106.78 20.5655 1205.04 -131.713 1227.2C-271.215 1249.36 -633.123 1232.52 -797.266 1152.77M-115.206 124.377C-97.8779 196.779 -55.3986 340.078 -31.6048 408.706C-1.8653 486.595 66.5842 580.659 80.8905 661.357C114.009 760.72 220.233 904.933 228.447 1005.14C236.66 1105.35 13.0623 1196.48 -136.403 1221.11C-274.156 1245.73 -640.975 1234.12 -806.91 1155.34M-117.776 136.714C-102.74 206.646 -65.1973 343.084 -43.5645 411.502C-16.5264 488.34 46.7794 579.745 63.3766 656.671C100.667 754.128 229.506 896.249 238.541 1000.09C247.576 1103.92 5.5589 1187.93 -141.093 1215.02C-277.097 1242.1 -648.826 1235.73 -816.555 1157.91M-120.346 149.052C-107.602 216.512 -74.9959 346.089 -55.524 414.299C-31.1875 490.085 26.9748 578.832 45.8628 651.984C87.3254 747.535 238.78 887.565 248.636 995.03C258.493 1102.49 -1.94431 1179.38 -145.783 1208.93C-280.038 1238.47 -656.678 1237.34 -826.199 1160.48M-122.917 161.39C-112.464 226.379 -84.7945 349.095 -67.4836 417.095C-45.8485 491.831 7.1701 577.919 28.3489 647.298C73.9836 740.943 248.054 878.881 258.731 989.973C269.409 1101.07 -9.4476 1170.83 -150.472 1202.84C-282.979 1234.85 -664.53 1238.94 -835.844 1163.04M-125.487 173.727C-117.326 236.245 -94.5933 352.101 -79.4434 419.892C-60.5097 493.576 -12.6346 577.005 10.8351 642.612C60.6417 734.35 257.327 870.197 268.826 984.916C280.326 1099.64 -16.9511 1162.28 -155.162 1196.75C-285.92 1231.22 -672.381 1240.55 -845.488 1165.61M-128.057 186.065C-122.188 246.112 -104.392 355.107 -91.403 422.688C-75.1709 495.321 -32.4392 576.092 -6.67871 637.926C47.3 727.758 266.601 861.513 278.921 979.859C291.242 1098.21 -24.4543 1153.73 -159.852 1190.66C-288.861 1227.59 -680.233 1242.15 -855.133 1168.18M-130.627 198.403C-127.05 255.979 -114.191 358.113 -103.362 425.485C-89.8319 497.066 -52.2439 575.178 -24.1926 633.24C33.9582 721.165 275.874 852.829 289.016 974.803C302.159 1096.78 -31.9576 1145.17 -164.542 1184.57C-291.802 1223.97 -688.084 1243.76 -864.777 1170.75M-133.197 210.741C-131.912 265.845 -123.989 361.119 -115.322 428.281C-104.493 498.812 -72.0486 574.265 -41.7065 628.553C20.6163 714.573 285.148 844.145 299.111 969.746C313.075 1095.35 -39.461 1136.62 -169.232 1178.48C-294.743 1220.34 -695.936 1245.37 -874.422 1173.32M-135.767 223.078C-136.774 275.712 -133.788 364.125 -127.282 431.078C-119.154 500.557 -91.8532 573.352 -59.2202 623.867C7.27462 707.981 294.421 835.461 309.206 964.689C323.991 1093.92 -46.9642 1128.07 -173.921 1172.39C-297.684 1216.71 -703.788 1246.97 -884.066 1175.89M-138.337 235.416C-141.636 285.578 -143.586 367.131 -139.241 433.874C-133.815 502.302 -111.658 572.438 -76.734 619.181C-6.06715 701.388 303.695 826.777 319.301 959.632C334.907 1092.49 -54.4675 1119.52 -178.611 1166.3C-300.625 1213.08 -711.639 1248.58 -893.711 1178.45M-140.907 247.753C-146.498 295.445 -153.385 370.137 -151.201 436.671C-148.476 504.047 -131.463 571.525 -94.248 614.495C-19.409 694.796 312.969 818.093 329.396 954.575C345.824 1091.06 -61.9709 1110.97 -183.301 1160.21C-303.566 1209.46 -719.491 1250.18 -903.356 1181.02" stroke="url(#paint0_linear_335_1832)"/>
<defs>
<linearGradient id="paint0_linear_335_1832" x1="80.0001" y1="337" x2="-548.534" y2="1083.88" gradientUnits="userSpaceOnUse">
<stop stop-color="#A3A3A3" stop-opacity="0.1"/>
<stop offset="0.336352" stop-color="#F0A5AE" stop-opacity="0.5"/>
<stop offset="0.830684" stop-color="#BD2738"/>
</linearGradient>
</defs>
</svg>
