<svg width="80" height="80" viewBox="0 0 80 80" fill="none" xmlns="http://www.w3.org/2000/svg">
<path d="M78.7107 67.3116V56.8852C78.7107 54.5808 77.8045 52.3704 76.1909 50.7412C74.5778 49.1115 72.3893 48.1963 70.1076 48.1963H59.6034V16.0477C59.6034 15.0876 58.8328 14.3101 57.8829 14.3101C56.9323 14.3101 56.1618 15.0877 56.1618 16.0477V48.1963H23.8311V16.0477C23.8311 15.0876 23.0606 14.3101 22.11 14.3101C21.16 14.3101 20.3895 15.0877 20.3895 16.0477V48.1963H9.88532C7.60366 48.1963 5.41509 49.1115 3.80201 50.7412C2.18832 52.3704 1.28223 54.5808 1.28223 56.8852V67.3116C1.28223 69.616 2.18838 71.8264 3.80201 73.4555C5.41509 75.0853 7.60366 76.0004 9.88532 76.0004H70.107C72.3886 76.0004 74.5772 75.0852 76.1903 73.4555C77.804 71.8264 78.7101 69.616 78.7101 67.3116H78.7107ZM4.72408 67.3116V56.8852C4.72408 55.5027 5.26838 54.1766 6.23635 53.1989C7.20432 52.2213 8.5174 51.6716 9.88621 51.6716H70.1079C71.4767 51.6716 72.7897 52.2213 73.7577 53.1989C74.7257 54.1765 75.27 55.5027 75.27 56.8852V67.3116C75.27 68.6941 74.7257 70.0202 73.7577 70.9978C72.7898 71.9761 71.4767 72.5252 70.1079 72.5252H9.88621C8.51737 72.5252 7.20435 71.9761 6.23635 70.9978C5.26838 70.0202 4.72408 68.6941 4.72408 67.3116Z" fill="#BD2738"/>
<path d="M14.6438 7.50631C14.3209 7.17962 13.8828 6.99658 13.4262 6.99658C12.9695 6.99658 12.532 7.17962 12.2091 7.50631C10.3122 9.42095 9.24707 12.018 9.24707 14.7266C9.24707 17.4345 10.3123 20.0322 12.2091 21.9468C12.2896 22.0147 12.376 22.0759 12.4672 22.1293C13.2071 22.6244 14.199 22.4693 14.7565 21.7711C15.314 21.0735 15.254 20.0612 14.6179 19.4358C13.3727 18.1733 12.6736 16.4648 12.6736 14.6828C12.6736 12.901 13.3727 11.1924 14.6179 9.9299C15.275 9.2626 15.2865 8.1876 14.6438 7.50631Z" fill="#BD2738"/>
<path d="M5.80892 26.4737C6.50264 26.4707 7.12674 26.0476 7.39143 25.3997C7.65668 24.7524 7.51085 24.0075 7.02177 23.5105C4.72751 21.1867 3.4392 18.0387 3.4392 14.7568C3.4392 11.4749 4.72762 8.32696 7.02177 6.00254C7.70349 5.32373 7.71129 4.21512 7.03917 3.52669C6.36646 2.83757 5.26893 2.8303 4.58714 3.50911C1.64964 6.48504 0 10.5154 0 14.7174C0 18.92 1.64964 22.9504 4.58714 25.9263C4.90459 26.2675 5.34504 26.4652 5.80892 26.4737Z" fill="#BD2738"/>
<path d="M65.3498 7.50609C65.027 7.83156 64.8451 8.27399 64.8451 8.73523C64.8451 9.19647 65.027 9.6389 65.3498 9.96498C66.6088 11.2299 67.3164 12.9499 67.3164 14.7434C67.3164 16.5373 66.6089 18.2569 65.3498 19.5224C64.6375 20.1654 64.5757 21.2704 65.2124 21.9903C65.8491 22.7097 66.9431 22.7722 67.6554 22.1291L67.8186 21.9812H67.8192C69.7083 20.066 70.7687 17.4731 70.7687 14.7695C70.7687 12.0663 69.7083 9.47288 67.8192 7.55824C67.5017 7.21397 67.0607 7.01397 66.5956 7.00428C66.1299 6.99458 65.6811 7.17517 65.3498 7.50609Z" fill="#BD2738"/>
<path d="M75.408 3.50911C74.7359 2.8303 73.6454 2.8303 72.9733 3.50911C72.3012 4.18793 72.3012 5.28923 72.9733 5.96805C75.2676 8.29231 76.5559 11.4405 76.5559 14.7224C76.5559 18.0036 75.2675 21.1518 72.9733 23.476C72.3012 24.1548 72.3012 25.2562 72.9733 25.935C73.6454 26.6144 74.7359 26.6144 75.408 25.935C78.3486 22.959 80.0001 18.9262 80.0001 14.7224C80.0001 10.5179 78.3486 6.48503 75.408 3.50911Z" fill="#BD2738"/>
<path d="M39.9968 56.4766C39.0463 56.4766 38.2764 57.2548 38.2764 58.2142V65.5739C38.2764 66.534 39.0463 67.3115 39.9968 67.3115C40.9474 67.3115 41.7173 66.5339 41.7173 65.5739V58.1881C41.7035 57.239 40.9372 56.4766 39.9968 56.4766Z" fill="#BD2738"/>
<path d="M29.6731 56.4766C28.7225 56.4766 27.9526 57.2548 27.9526 58.2142V65.5739C27.9526 66.534 28.7226 67.3115 29.6731 67.3115C30.6231 67.3115 31.3936 66.5339 31.3936 65.5739V58.1881C31.3792 57.239 30.6134 56.4766 29.6731 56.4766Z" fill="#BD2738"/>
<path d="M50.3206 56.4766C49.3706 56.4766 48.6001 57.2548 48.6001 58.2142V65.5739C48.6001 66.534 49.3706 67.3115 50.3206 67.3115C51.2711 67.3115 52.041 66.5339 52.041 65.5739V58.1881C52.0272 57.239 51.2609 56.4766 50.3206 56.4766Z" fill="#BD2738"/>
</svg>
