<svg width="120" height="75" viewBox="0 0 120 75" fill="none" xmlns="http://www.w3.org/2000/svg">
<g clip-path="url(#clip0_335_1383)">
<path d="M40.4457 15.1928C39.9208 15.8696 39.6539 16.7116 39.6929 17.5677C39.7318 18.4238 40.0741 19.2379 40.6583 19.8642C43.2167 22.6233 44.9154 26.07 45.5462 29.7817C46.1769 33.4933 45.7123 37.3086 44.2092 40.7598C42.7062 44.2109 40.23 47.1478 37.0844 49.2104C33.9388 51.2731 30.2604 52.3717 26.5003 52.3717C22.7402 52.3717 19.0618 51.2731 15.9162 49.2104C12.7706 47.1478 10.2944 44.2109 8.79137 40.7598C7.28831 37.3086 6.82367 33.4933 7.45442 29.7817C8.08517 26.07 9.78391 22.6233 12.3423 19.8642C12.927 19.2382 13.2696 18.4239 13.3085 17.5677C13.3475 16.7115 13.0803 15.8694 12.5549 15.1928C12.2326 14.7821 11.825 14.4465 11.3603 14.2092C10.8957 13.972 10.385 13.8387 9.86382 13.8187C9.34261 13.7987 8.82329 13.8925 8.34185 14.0934C7.86042 14.2944 7.42838 14.5978 7.07569 14.9826C3.56797 18.768 1.23948 23.4959 0.375656 28.5869C-0.488171 33.6778 0.150193 38.9105 2.2125 43.6435C4.27482 48.3765 7.67146 52.4042 11.9861 55.2329C16.3007 58.0615 21.3458 59.5681 26.5029 59.5681C31.66 59.5681 36.7051 58.0615 41.0197 55.2329C45.3343 52.4042 48.731 48.3765 50.7933 43.6435C52.8556 38.9105 53.494 33.6778 52.6301 28.5869C51.7663 23.4959 49.4378 18.768 45.9301 14.9826C45.5772 14.5973 45.1447 14.2935 44.6628 14.0922C44.1809 13.891 43.6611 13.7971 43.1393 13.8171C42.6176 13.8371 42.1064 13.9705 41.6413 14.208C41.1762 14.4456 40.7682 14.7816 40.4457 15.1928Z" fill="#231300"/>
<path d="M27.134 0H25.8639C24.2106 0 22.8704 1.34203 22.8704 2.99751V16.69C22.8704 18.3455 24.2106 19.6875 25.8639 19.6875H27.134C28.7873 19.6875 30.1275 18.3455 30.1275 16.69V2.99751C30.1275 1.34203 28.7873 0 27.134 0Z" fill="#231300"/>
<path d="M47.8118 57.6791C49.6354 57.6791 51.1138 56.1988 51.1138 54.3727C51.1138 52.5467 49.6354 51.0664 47.8118 51.0664C45.9881 51.0664 44.5098 52.5467 44.5098 54.3727C44.5098 56.1988 45.9881 57.6791 47.8118 57.6791Z" fill="#231300"/>
<path d="M57.8761 74.9999C63.682 74.9999 68.3886 70.2871 68.3886 64.4736C68.3886 58.6601 63.682 53.9473 57.8761 53.9473C52.0701 53.9473 47.3635 58.6601 47.3635 64.4736C47.3635 70.2871 52.0701 74.9999 57.8761 74.9999Z" fill="#231300"/>
<path d="M66.9785 22.4487H62.8886V32.8297H59.9676V22.4487H55.8958V20.0352H66.9785V22.4487Z" fill="#231300"/>
<path d="M77.7218 30.4577V32.8349H67.8262V20.0352H77.4834V22.4124H70.7653V25.1919H76.7007V27.4939H70.7653V30.4577H77.7218Z" fill="#231300"/>
<path d="M81.7781 20.0352L84.427 23.9125L87.0733 20.0352H90.5334L86.2776 26.1599L90.8781 32.8349H87.4024L84.427 28.5917L81.4852 32.8349H78.0718L82.636 26.2897L78.3646 20.0352H81.7781Z" fill="#231300"/>
<path d="M67.5435 35.0566V47.8538H64.6147V37.4728H58.8349V47.8538H55.8958V35.0566H67.5435Z" fill="#231300"/>
<path d="M79.7744 39.6995C79.7744 42.5543 77.6387 44.3243 74.2227 44.3243H71.649V47.8538H68.6917V35.0566H74.2227C77.6387 35.0566 79.7744 36.8292 79.7744 39.6995ZM76.7808 39.6995C76.7808 38.2903 75.8685 37.4676 74.0594 37.4676H71.649V41.9107H74.0594C75.8685 41.9107 76.7808 41.0828 76.7808 39.6995Z" fill="#231300"/>
<path d="M87.7134 45.1106H81.7807L80.648 47.8538H77.6182L83.3202 35.0566H86.2412L91.9563 47.8538H88.846L87.7134 45.1106ZM86.7829 42.8631L84.7561 37.9685L82.7293 42.8683L86.7829 42.8631Z" fill="#231300"/>
<path d="M92.6326 35.0564H95.5717V43.3923L101.678 35.0564H104.454V47.8536H101.525V39.5254L95.4266 47.8458H92.6326V35.0564ZM94.9886 31.436H97.0128C97.0309 32.3132 97.5312 32.77 98.529 32.77C99.5269 32.77 100.025 32.3132 100.043 31.436H102.069C102.051 33.2268 100.919 34.2311 98.529 34.2311C96.1393 34.2311 95.0067 33.2268 94.9886 31.436Z" fill="#231300"/>
<path d="M117.229 47.8538L117.211 40.1926L113.45 46.4991H112.136L108.376 40.338V47.8642H105.594V35.0566H108.041L112.823 43.0085L117.535 35.0566H119.982L120 47.8538H117.229Z" fill="#231300"/>
</g>
<defs>
<clipPath id="clip0_335_1383">
<rect width="120" height="75" fill="white"/>
</clipPath>
</defs>
</svg>
