<svg width="80" height="80" viewBox="0 0 80 80" fill="none" xmlns="http://www.w3.org/2000/svg">
<path d="M7.35129 46.0661H72.5984C74.5484 46.0661 76.4182 45.294 77.7971 43.9192C79.1753 42.545 79.9503 40.6799 79.9503 38.7362V10.3306C79.9503 8.38625 79.1753 6.52189 77.7971 5.14694C76.4183 3.77274 74.5484 3 72.5984 3H7.35129C5.40192 3 3.53214 3.77276 2.15319 5.14694C0.77435 6.52178 0 8.38625 0 10.3306V38.7362C0 40.6799 0.774367 42.5449 2.15319 43.9192C3.53202 45.294 5.40192 46.0661 7.35129 46.0661ZM29.9039 42.4012C30.2462 39.2202 32.1495 36.4148 34.984 34.9147C37.818 33.4145 41.2141 33.4145 44.0487 34.9147C46.8832 36.4148 48.7865 39.22 49.1288 42.4012H29.9039ZM34.9211 22.0968C34.9211 20.8811 35.4057 19.7159 36.2673 18.8569C37.1288 17.9978 38.2974 17.5153 39.516 17.5153C40.7346 17.5153 41.9039 17.9978 42.7654 18.8569C43.6269 19.7159 44.1109 20.8811 44.1109 22.0968C44.1109 23.3119 43.6269 24.4771 42.7654 25.3361C41.9039 26.1952 40.7346 26.6784 39.516 26.6784C38.2974 26.6784 37.1288 26.1952 36.2673 25.3361C35.4057 24.4771 34.9211 23.3119 34.9211 22.0968ZM3.67606 10.3311C3.67606 9.35894 4.06324 8.42699 4.75298 7.73927C5.44208 7.05217 6.37733 6.66611 7.3517 6.66611H72.5988C73.5738 6.66611 74.5085 7.05217 75.1982 7.73927C75.8873 8.42701 76.2745 9.35891 76.2745 10.3311V38.7366C76.2745 39.7088 75.8873 40.6408 75.1982 41.3285C74.5084 42.0156 73.5738 42.4016 72.5988 42.4016H52.813C52.561 39.3004 51.2284 36.3846 49.0463 34.1603C46.8643 31.9359 43.97 30.5433 40.8662 30.2242C43.6303 29.7839 45.9835 27.9788 47.1199 25.428C48.2558 22.8771 48.0212 19.9261 46.4956 17.5861C44.9699 15.2454 42.3604 13.8335 39.5609 13.8335C36.7615 13.8335 34.152 15.2454 32.6263 17.5861C31.1007 19.9261 30.866 22.8771 32.0019 25.428C33.1385 27.979 35.4917 29.7839 38.2557 30.2242C35.1519 30.5432 32.2576 31.9359 30.0755 34.1603C27.8935 36.3846 26.5608 39.3004 26.3096 42.4016H7.35082C6.37646 42.4016 5.44116 42.0156 4.75209 41.3285C4.06235 40.6407 3.67517 39.7088 3.67517 38.7366L3.67606 10.3311Z" fill="#BD2738"/>
<path fill-rule="evenodd" clip-rule="evenodd" d="M3.17135 76.9995C3.47337 74.1982 5.15267 71.7277 7.65365 70.4067C10.1542 69.0857 13.1507 69.0857 15.6516 70.4067C18.1526 71.7277 19.8319 74.198 20.1339 76.9995L23.3846 76.9998C23.1623 74.2689 21.9864 71.7011 20.0612 69.7424C18.1359 67.7836 15.5822 66.5572 12.8436 66.2762C15.2825 65.8884 17.3588 64.2989 18.3615 62.0526C19.3637 59.8062 19.1567 57.2075 17.8106 55.1469C16.4645 53.0857 14.162 51.8423 11.692 51.8423C9.22201 51.8423 6.91953 53.0856 5.57341 55.1469C4.2273 57.2075 4.02024 59.8062 5.02252 62.0526C6.02532 64.299 8.10165 65.8885 10.5404 66.2762C7.80179 66.5571 5.24811 67.7836 3.32282 69.7424C1.39753 71.7011 0.221676 74.2689 0 76.9998L3.17135 76.9995ZM8.78593 56.266C8.02578 57.0224 7.5982 58.0486 7.5982 59.1191C7.5982 60.1891 8.02578 61.2152 8.78593 61.9717C9.54609 62.7282 10.5772 63.1537 11.6524 63.1537C12.7276 63.1537 13.7592 62.7282 14.5194 61.9717C15.2795 61.2152 15.7066 60.1891 15.7066 59.1191C15.7066 58.0485 15.2795 57.0224 14.5194 56.266C13.7592 55.5095 12.7276 55.0845 11.6524 55.0845C10.5772 55.0845 9.54609 55.5095 8.78593 56.266Z" fill="#BD2738"/>
<path fill-rule="evenodd" clip-rule="evenodd" d="M31.479 76.9995C31.781 74.1982 33.4603 71.7277 35.9613 70.4067C38.4618 69.0857 41.4583 69.0857 43.9593 70.4067C46.4602 71.7277 48.1395 74.198 48.4416 76.9995L51.6922 76.9998C51.4699 74.2689 50.2941 71.7011 48.3688 69.7424C46.4435 67.7836 43.8898 66.5572 41.1512 66.2762C43.5901 65.8884 45.6664 64.2989 46.6691 62.0526C47.6713 59.8062 47.4643 57.2075 46.1182 55.1469C44.7721 53.0857 42.4696 51.8423 39.9996 51.8423C37.5296 51.8423 35.2272 53.0856 33.881 55.1469C32.5349 57.2075 32.3279 59.8062 33.3301 62.0526C34.3329 64.299 36.4093 65.8885 38.848 66.2762C36.1094 66.5571 33.5557 67.7836 31.6304 69.7424C29.7051 71.7011 28.5293 74.2689 28.3076 76.9998L31.479 76.9995ZM37.0936 56.266C36.3334 57.0224 35.9058 58.0486 35.9058 59.1191C35.9058 60.1891 36.3334 61.2152 37.0936 61.9717C37.8537 62.7282 38.8848 63.1537 39.96 63.1537C41.0352 63.1537 42.0668 62.7282 42.827 61.9717C43.5872 61.2152 44.0142 60.1891 44.0142 59.1191C44.0142 58.0485 43.5872 57.0224 42.827 56.266C42.0668 55.5095 41.0352 55.0845 39.96 55.0845C38.8848 55.0845 37.8537 55.5095 37.0936 56.266Z" fill="#BD2738"/>
<path fill-rule="evenodd" clip-rule="evenodd" d="M59.7866 76.9995C60.0886 74.1982 61.7679 71.7277 64.2689 70.4067C66.7694 69.0857 69.7659 69.0857 72.2669 70.4067C74.7679 71.7277 76.4471 74.198 76.7492 76.9995L79.9998 76.9998C79.7775 74.2689 78.6017 71.7011 76.6764 69.7424C74.7512 67.7836 72.1974 66.5572 69.4589 66.2762C71.8977 65.8884 73.974 64.2989 74.9767 62.0526C75.9789 59.8062 75.7719 57.2075 74.4258 55.1469C73.0797 53.0857 70.7772 51.8423 68.3072 51.8423C65.8372 51.8423 63.5348 53.0856 62.1886 55.1469C60.8425 57.2075 60.6355 59.8062 61.6378 62.0526C62.6406 64.299 64.7169 65.8885 67.1556 66.2762C64.417 66.5571 61.8633 67.7836 59.938 69.7424C58.0128 71.7011 56.8369 74.2689 56.6152 76.9998L59.7866 76.9995ZM65.4012 56.266C64.641 57.0224 64.2134 58.0486 64.2134 59.1191C64.2134 60.1891 64.641 61.2152 65.4012 61.9717C66.1613 62.7282 67.1924 63.1537 68.2676 63.1537C69.3428 63.1537 70.3745 62.7282 71.1346 61.9717C71.8948 61.2152 72.3218 60.1891 72.3218 59.1191C72.3218 58.0485 71.8948 57.0224 71.1346 56.266C70.3745 55.5095 69.3428 55.0845 68.2676 55.0845C67.1924 55.0845 66.1613 55.5095 65.4012 56.266Z" fill="#BD2738"/>
</svg>
