<svg width="80" height="80" viewBox="0 0 80 80" fill="none" xmlns="http://www.w3.org/2000/svg">
<path d="M8.58343 66.1027H38.6659V73.3312L24.5072 73.3318C23.7703 73.3318 23.1735 73.9287 23.1735 74.6659C23.1735 75.403 23.7736 76 24.5072 76H55.4929C56.2298 76 56.8266 75.403 56.8266 74.6659C56.8266 73.9287 56.2264 73.3318 55.4929 73.3318H41.3336V66.1033H71.416C76.1478 66.1033 79.9994 62.2539 79.9994 57.5171L80 11.5862C80 6.85283 76.1485 3 71.4166 3H8.58342C3.8516 3 2.1814e-06 6.8494 2.1814e-06 11.5862V57.52C-0.00334749 62.2533 3.85147 66.1027 8.58343 66.1027ZM2.66798 11.5855C2.66798 8.32307 5.31922 5.66755 8.58057 5.66755H71.4166C74.6814 5.66755 77.3292 8.32293 77.3292 11.5855V53.1589H2.66826L2.66798 11.5855ZM2.66798 55.828H77.3318V57.5163C77.3318 60.7787 74.6805 63.4342 71.4192 63.4342H8.58314C5.31836 63.4342 2.67055 60.7788 2.67055 57.5163L2.67111 55.828H2.66798Z" fill="#BD2738"/>
<path d="M71.4152 9.04395H8.58198C7.13166 9.04395 6.03735 10.1379 6.03735 11.586V47.2422C6.03735 48.693 7.13099 49.7842 8.58198 49.7842H71.418C72.8683 49.7842 73.9626 48.6902 73.9626 47.2422L73.9621 11.586C73.9587 10.1385 72.8651 9.04395 71.4147 9.04395H71.4152ZM71.4152 48.4529V47.1188L8.70917 47.2456L8.58245 11.7123L71.2927 11.5855L71.4462 47.1145L71.4152 48.4529Z" fill="#BD2738"/>
<path d="M42.0833 59.8845C42.0833 61.036 41.1504 61.9692 39.9993 61.9692C38.8481 61.9692 37.9153 61.036 37.9153 59.8845C37.9153 58.733 38.8481 57.7998 39.9993 57.7998C41.1504 57.7998 42.0833 58.733 42.0833 59.8845Z" fill="#BD2738"/>
</svg>
