<svg width="1440" height="773" viewBox="0 0 1440 773" fill="none" xmlns="http://www.w3.org/2000/svg">
<path d="M838.422 133.328C856.01 131.028 873.778 130.424 891.481 131.526C911.824 132.841 931.489 137.062 949.936 144.076C967.853 150.908 984.674 160.325 999.865 172.026C1014.78 183.486 1028.4 197.248 1040.33 212.929C1052.07 228.348 1062.21 245.647 1070.47 264.344C1085.06 297.39 1093.84 332.872 1102.33 367.187C1110.34 399.585 1118.62 433.086 1131.79 464.425C1157.22 524.942 1203.14 572.082 1264.61 600.756C1296.12 615.462 1376.22 645.722 1438.96 609.23C1488.47 580.437 1503.39 520.865 1516.55 468.301L1517.63 463.999L1518.74 464.28L1517.66 468.582C1510.99 495.24 1504.09 522.805 1492.44 548.04C1479.12 576.928 1461.81 597.268 1439.53 610.223C1415.08 624.444 1385.45 630.016 1351.5 626.777C1316.35 623.43 1284.57 611.344 1264.09 601.8C1233.89 587.695 1207.1 568.865 1184.52 545.828C1161.62 522.499 1143.37 495.025 1130.74 464.873C1117.55 433.465 1109.25 399.907 1101.23 367.464C1092.76 333.199 1083.99 297.766 1069.43 264.81C1034.58 185.894 969.697 137.733 891.411 132.676C766.26 124.587 649.164 208.549 571.975 272.4C523.957 312.12 479.564 357.569 436.63 401.521C387.664 451.65 337.028 503.487 280.828 547.007C251.513 569.719 212.203 595.842 168.253 596.265C150.682 596.436 132.615 592.201 114.552 583.68C99.5412 576.606 84.3806 566.6 68.2112 553.124C38.0995 528.028 11.74 498.005 -13.7503 468.986C-21.4423 460.228 -29.3937 451.17 -37.3097 442.41L-39.6759 439.81C-67.1972 409.332 -98.3877 374.79 -136.83 356.64C-169.062 341.425 -200.365 344.917 -232.524 367.32C-260.305 386.673 -283.845 416.506 -304.611 442.825L-308.897 448.25L-309.799 447.535L-305.515 442.113C-284.7 415.728 -261.104 385.826 -233.182 366.377C-217.886 355.72 -203.126 349.438 -188.069 347.169C-171.032 344.599 -153.629 347.438 -136.339 355.599C-119.049 363.76 -101.804 375.818 -83.6454 392.462C-67.6338 407.129 -52.9849 423.35 -38.8197 439.038L-36.4677 441.64C-28.5481 450.406 -20.5936 459.466 -12.9005 468.232C12.564 497.231 38.8913 527.206 68.9363 552.258C103.919 581.415 136.399 595.441 168.227 595.133C211.834 594.713 250.923 568.717 280.113 546.117C336.252 502.643 386.855 450.825 435.798 400.733C478.752 356.761 523.166 311.29 571.23 271.528C596.204 250.869 619.174 233.333 641.49 217.917C668.192 199.46 694.403 183.808 719.393 171.393C747.996 157.184 776.22 146.602 803.277 139.938C814.857 137.069 826.591 134.862 838.422 133.328Z" fill="url(#paint0_linear_335_1398)"/>
<path d="M818.66 137.287C836.766 134.916 855.063 134.361 873.279 135.628C893.707 137.066 913.823 141.427 933.013 148.576C951.411 155.486 968.759 164.919 984.559 176.606C1000.32 188.298 1014.52 201.958 1026.81 217.255C1039.37 232.888 1050.07 249.933 1058.68 268.044C1074.11 300.343 1083.35 335.194 1092.28 368.9C1100.47 399.808 1108.94 431.767 1122.16 461.439C1148.18 520.199 1194.86 566.292 1253.58 591.23C1284.74 604.458 1364.22 631.121 1429.29 593.068C1481.6 562.295 1502.7 505.273 1521.32 454.968C1522.18 452.622 1523.04 450.291 1523.9 447.975L1524.97 448.347C1524.1 450.659 1523.24 452.988 1522.38 455.334C1503.69 505.82 1482.51 563.039 1429.84 594.016C1404.85 608.655 1374.94 615.171 1340.95 613.404C1305.14 611.543 1273.43 600.874 1253.14 592.262C1223.59 579.707 1197.16 562.032 1174.61 539.713C1152.16 517.501 1134.16 491.321 1121.12 461.894C1107.89 432.141 1099.4 400.137 1091.2 369.187C1082.28 335.532 1073.06 300.731 1057.66 268.528C1020.41 190.557 953.17 142.513 873.21 136.746C750.013 127.86 635.08 208.878 559.339 270.592C510.469 310.413 465.31 356.233 421.639 400.544C375.625 447.234 328.046 495.511 276.028 536.868C262.709 547.46 244.95 560.912 225.679 571.031C205.75 581.496 187.12 586.968 168.728 587.752C152.195 588.459 135.285 585.093 118.44 577.754C104.369 571.619 90.2392 562.77 75.2379 550.703C52.2555 532.265 32.3963 511.623 11.3763 489.765C-0.575931 477.338 -12.9344 464.485 -26.0164 451.965L-29.9397 448.206C-59.0762 420.279 -92.1082 388.627 -131.335 370.54C-163.358 355.777 -194.428 358.368 -226.319 378.472C-253.891 395.852 -277.348 423.149 -298.041 447.231C-300.002 449.515 -301.94 451.762 -303.854 453.97L-304.703 453.237C-302.799 451.032 -300.866 448.786 -298.904 446.5C-278.159 422.35 -254.643 394.997 -226.929 377.525C-194.693 357.203 -163.273 354.584 -130.876 369.52C-91.4762 387.692 -58.3774 419.411 -29.1754 447.397C-27.8521 448.657 -26.5443 449.91 -25.2521 451.155C-12.1521 463.702 0.214466 476.551 12.1739 488.989C33.167 510.818 52.994 531.436 75.9301 549.83C108.309 575.872 138.641 587.917 168.668 586.633C208.569 584.926 243.505 561.287 275.317 535.992C327.282 494.676 374.838 446.424 420.829 399.759C464.521 355.426 509.701 309.586 558.612 269.725C583.104 249.769 605.718 232.807 627.742 217.878C653.981 200.091 679.76 185.025 704.357 173.108C732.461 159.489 760.187 149.391 786.766 143.117C797.288 140.619 807.934 138.673 818.66 137.287Z" fill="url(#paint1_linear_335_1398)"/>
<path d="M798.897 141.24C818.01 138.787 836.816 138.278 855.074 139.729C896.18 142.902 935.643 157.224 969.216 181.154C985.495 192.753 1000.28 206.317 1013.24 221.537C1026.34 236.924 1037.62 253.771 1046.86 271.744C1063.07 303.188 1072.77 337.307 1082.15 370.292C1090.54 399.811 1099.22 430.332 1112.49 458.443C1139.51 516.152 1185.71 559.924 1242.57 581.702C1306.75 606.275 1372.94 604.482 1419.61 576.888C1474.59 544.387 1501.57 489.828 1525.37 441.695C1527 438.412 1528.61 435.159 1530.22 431.935L1531.2 432.422C1529.59 435.642 1527.98 438.894 1526.35 442.179C1502.48 490.449 1475.42 545.163 1420.16 577.831C1394.63 592.922 1364.46 600.407 1330.45 600.081C1301.62 599.802 1271.09 593.802 1242.16 582.724C1213.32 571.689 1186.99 554.981 1164.72 533.587C1142.76 512.569 1124.86 487.448 1111.5 458.916C1098.19 430.717 1089.5 400.159 1081.1 370.599C1071.73 337.657 1062.05 303.592 1045.89 272.242C1006.17 195.211 936.596 147.306 854.991 140.82C836.314 139.376 817.538 139.874 798.964 142.306C699.45 155.079 609.366 218.52 546.688 268.784C496.721 308.836 450.583 355.263 405.98 400.143C363.154 443.234 318.869 487.788 271.21 526.725C256.393 538.83 240.298 551.387 223.009 561.219C204.14 571.954 186.525 577.848 169.185 579.234C153.665 580.477 137.898 577.983 122.295 571.82C109.177 566.643 96.0779 558.943 82.2468 548.279C64.4382 534.656 48.7765 519.729 32.1929 503.931C17.6382 490.073 2.6105 475.741 -14.7431 461.522C-17.4945 459.27 -20.2905 456.971 -23.1312 454.626C-53.1204 429.918 -87.0986 401.912 -125.877 384.444C-197.515 352.167 -249.591 407.455 -291.439 451.88C-293.995 454.592 -296.408 457.163 -298.827 459.698L-299.62 458.929C-297.205 456.389 -294.792 453.829 -292.237 451.117C-271.571 429.176 -248.146 404.308 -220.649 388.76C-188.704 370.699 -157.569 368.959 -125.432 383.435C-86.5323 400.963 -52.484 429.017 -22.4428 453.768C-19.6021 456.113 -16.807 458.412 -14.0575 460.665C3.32834 474.909 18.3839 489.254 32.9429 503.123C49.5036 518.901 65.1452 533.807 82.9086 547.395C112.665 570.336 140.86 580.387 169.093 578.128C207.402 575.064 241.528 549.542 270.512 525.862C318.13 486.96 362.394 442.425 405.2 399.358C449.835 354.453 495.975 308.023 545.996 267.914C597.885 226.3 644.761 195.853 689.322 174.825C716.925 161.802 744.151 152.207 770.253 146.307C779.862 144.149 789.41 142.46 798.897 141.24Z" fill="url(#paint2_linear_335_1398)"/>
<path d="M779.119 145.187C798.789 142.662 818.128 142.213 836.872 143.831C878.833 147.438 919.141 161.864 953.862 185.7C986.964 208.33 1015.02 239.366 1035.05 275.455C1052.04 306.084 1062.24 339.471 1072.12 371.772C1080.7 399.866 1089.58 428.918 1102.83 455.476C1131.03 512.023 1176.74 553.474 1231.54 572.181C1294.86 593.8 1361.55 589.514 1409.92 560.721C1467.46 526.469 1500.08 474.235 1528.86 428.122C1531.38 424.098 1533.98 419.937 1536.51 415.916L1537.41 416.483C1534.87 420.501 1532.28 424.662 1529.76 428.686C1515.03 452.285 1499.8 476.688 1480.85 499.777C1459.29 526.039 1436.27 546.259 1410.47 561.633C1397.04 569.625 1382.21 575.818 1366.42 580.034C1351.75 583.949 1336.12 586.202 1319.95 586.73C1290.63 587.688 1259.94 583.003 1231.18 573.187C1203 563.567 1177.33 548.159 1154.9 527.42C1133.48 507.617 1115.64 483.568 1101.86 455.94C1088.57 429.301 1079.69 400.206 1071.09 372.07C1061.23 339.822 1051.04 306.478 1034.1 275.959C992.511 201.007 918.741 152.008 836.768 144.893C817.49 143.262 798.094 143.707 778.912 146.221C682.114 158.645 594.871 218.996 534.028 266.974C482.672 307.471 435.309 354.759 389.503 400.487C350.159 439.765 309.478 480.382 266.389 516.584C251.889 528.764 236.388 541.488 220.335 551.403C202.51 562.402 185.937 568.719 169.654 570.716C155.166 572.489 140.537 570.856 126.17 565.859C114.083 561.655 102.015 555.112 89.2733 545.856C75.6226 535.941 63.4515 525.383 50.5678 514.206C34.4789 500.249 17.8416 485.819 -3.45819 471.079C-8.83379 467.361 -14.3443 463.475 -20.1817 459.349C-49.9333 438.348 -83.6564 414.546 -120.407 398.351C-191.431 367.06 -243.166 416.793 -284.739 456.755C-287.877 459.771 -290.844 462.625 -293.789 465.422L-294.519 464.645C-291.565 461.85 -288.603 458.999 -285.468 455.983C-264.893 436.211 -241.572 413.784 -214.304 400.101C-182.659 384.23 -151.814 383.34 -119.976 397.366C-83.1269 413.604 -49.3586 437.44 -19.5655 458.471C-13.7292 462.589 -8.21843 466.478 -2.84891 470.194C18.5013 484.965 35.1645 499.415 51.2645 513.391C64.1317 524.553 76.2868 535.098 89.8992 544.986C117.176 564.801 143.223 572.869 169.526 569.649L170.097 569.576C204.542 565.155 233.793 542.582 265.725 515.754C308.777 479.583 349.443 438.983 388.754 399.724C434.59 353.977 481.976 306.663 533.381 266.139C584.181 226.079 630.274 196.792 674.297 176.6C701.393 164.173 728.126 155.074 753.751 149.561C762.249 147.723 770.705 146.265 779.119 145.187Z" fill="url(#paint3_linear_335_1398)"/>
<path d="M759.309 149.115C779.542 146.518 799.43 146.117 818.681 147.923C840.353 149.958 861.686 154.697 882.182 162.029C902.008 169.151 920.913 178.617 938.493 190.225C972.726 212.8 1002.03 243.548 1023.25 279.142C1040.9 308.769 1051.59 341.289 1061.92 372.739C1070.74 399.574 1079.86 427.324 1093.18 452.473C1122.41 507.664 1167.64 546.787 1220.53 562.656C1282.9 581.363 1350.09 574.601 1400.26 544.549C1460.12 508.683 1498.09 458.708 1531.59 414.614C1535.28 409.759 1539.09 404.74 1542.81 399.904L1543.62 400.534C1539.91 405.366 1536.1 410.385 1532.41 415.24C1515.23 437.855 1497.46 461.248 1476.33 483.679C1452.32 509.158 1427.6 529.361 1400.77 545.435C1386.8 553.761 1371.83 560.302 1356.23 564.904C1341.01 569.389 1325.34 572.229 1309.51 573.375C1279.4 575.56 1249.15 572.261 1220.22 563.638C1192.74 555.389 1167.46 541.125 1145.1 521.24C1124.17 502.616 1106.38 479.643 1092.25 452.952C1078.88 427.728 1069.76 399.932 1060.92 373.058C1050.61 341.664 1039.95 309.199 1022.34 279.67C978.243 205.672 902.067 156.811 818.57 148.959C730.241 140.651 633.05 178.677 521.397 265.163C468.257 306.328 419.32 354.86 371.996 401.797C336.516 436.987 299.824 473.375 261.593 506.435L261.105 506.858C246.939 519.109 232.29 531.776 217.383 541.753C200.693 552.928 185.233 559.614 170.12 562.195C156.753 564.552 143.022 563.77 130.009 559.91C118.927 556.687 107.898 551.291 96.2915 543.436C85.9378 536.429 76.629 529.168 66.7775 521.481C50.0665 508.446 32.7872 494.964 7.81757 480.634C-1.40767 475.337 -11.2985 469.333 -21.7686 462.979C-49.9104 445.9 -81.805 426.55 -114.949 412.259C-185.287 381.94 -236.658 426.257 -277.936 461.863C-281.703 465.111 -285.256 468.177 -288.785 471.154L-289.449 470.368C-285.928 467.398 -282.384 464.333 -278.611 461.087C-258.139 443.428 -234.936 423.411 -207.91 411.551C-176.595 397.807 -146.056 397.732 -114.539 411.317C-81.3411 425.64 -49.4008 445.007 -21.2339 462.1C-10.767 468.452 -0.882194 474.453 8.3248 479.744C33.346 494.114 50.6569 507.615 67.3972 520.676C77.2354 528.35 86.5281 535.598 96.8535 542.589C121.872 559.517 145.1 565.433 169.929 561.186C203.281 555.488 231.028 531.491 260.419 506.084L260.907 505.661C299.115 472.624 335.789 436.235 371.261 401.069C418.609 354.112 467.566 305.557 520.756 264.351C570.452 225.853 615.76 197.732 659.258 178.382C685.844 166.55 712.078 157.956 737.225 152.809C744.628 151.286 751.989 150.054 759.309 149.115Z" fill="url(#paint4_linear_335_1398)"/>
<path d="M739.455 153.054C760.271 150.382 780.72 150.037 800.463 152.035C822.544 154.273 844.279 159.139 865.207 166.53C885.502 173.714 904.914 183.181 923.072 194.748C958.426 217.26 988.98 247.72 1011.41 282.844C1029.67 311.418 1040.83 342.977 1051.63 373.502C1060.7 399.152 1070.08 425.678 1083.5 449.489C1113.74 503.117 1158.49 539.927 1209.49 553.134C1270.8 569.011 1338.49 559.757 1390.56 528.38C1452.43 491.104 1495.37 443.434 1533.26 401.405C1538.71 395.357 1543.86 389.644 1549.1 383.907L1549.84 384.581C1544.6 390.318 1539.46 396.028 1534.01 402.076C1514.54 423.677 1494.42 446.014 1471.28 467.761C1445.03 492.434 1418.79 512.535 1391.08 529.246C1376.89 537.759 1361.79 544.643 1346.06 549.769C1330.78 554.747 1315.04 558.178 1299.08 560.012C1268.81 563.526 1237.75 561.496 1209.25 554.106C1182.45 547.163 1157.58 534.025 1135.33 515.042C1114.87 497.587 1097.14 475.698 1082.64 449.977C1069.17 426.09 1059.78 399.523 1050.69 373.831C1039.91 343.364 1028.77 311.858 1010.58 283.383C963.929 210.358 885.342 161.629 800.356 153.033C713.354 144.235 617.968 180.319 508.742 263.343C453.295 305.495 402.35 355.775 353.08 404.404C321.954 435.113 289.772 466.889 256.774 496.287C254.897 497.96 253.027 499.631 251.166 501.298C224.907 524.788 200.118 546.977 170.587 553.668C147.281 558.95 125.905 554.926 103.317 541.01C95.7501 536.345 88.9059 531.66 81.6637 526.701C64.9959 515.292 47.7611 503.492 19.1122 490.177C4.93447 483.576 -11.0648 475.136 -28.0092 466.187C-52.9986 452.992 -81.3213 438.032 -109.472 426.158C-179.047 396.806 -230.025 435.838 -270.986 467.214C-275.425 470.612 -279.619 473.821 -283.755 476.884L-284.351 476.089C-280.219 473.033 -276.032 469.824 -271.595 466.429C-251.237 450.846 -228.173 433.185 -201.411 423.089C-170.44 411.404 -140.238 412.113 -109.088 425.26C-80.8942 437.153 -52.5499 452.121 -27.5429 465.317C-10.614 474.259 5.38024 482.706 19.5319 489.284C48.2494 502.636 65.5237 514.449 82.2277 525.892C89.4602 530.843 96.2917 535.521 103.84 540.173C126.189 553.946 147.33 557.928 170.362 552.707C199.628 546.076 224.334 523.97 250.489 500.569C252.348 498.902 254.217 497.232 256.097 495.558C289.077 466.174 321.253 434.419 352.367 403.709C401.66 355.062 452.617 304.758 508.125 262.566C556.713 225.63 601.233 198.681 644.227 180.178C670.305 168.956 696.044 160.85 720.714 156.08C726.994 154.86 733.241 153.851 739.455 153.054Z" fill="url(#paint5_linear_335_1398)"/>
<path d="M719.534 156.978C740.958 154.229 761.991 153.945 782.261 156.137C804.745 158.581 826.879 163.575 848.234 171.023C868.99 178.273 888.903 187.743 907.627 199.268C944.092 221.699 975.896 251.88 999.593 286.548C1018.37 314.01 1030 344.538 1041.26 374.061C1051.04 399.722 1060.28 423.96 1073.84 446.5C1095.93 483.22 1135.49 529.874 1198.47 543.614C1258.58 556.726 1326.77 544.986 1380.88 512.21C1444.16 473.89 1489.49 430.651 1533.32 388.845C1540.92 381.595 1548.1 374.753 1555.4 367.905L1556.07 368.611C1548.77 375.456 1541.6 382.301 1534 389.548C1512.5 410.052 1490.28 431.252 1465.39 452.223C1437.2 475.984 1409.72 495.88 1381.38 513.043C1366.97 521.75 1351.73 528.984 1335.87 534.634C1320.54 540.097 1304.74 544.117 1288.67 546.642C1257.93 551.479 1226.66 550.762 1198.26 544.565C1172.16 538.87 1147.7 526.841 1125.57 508.81C1105.56 492.504 1087.88 471.716 1073.01 447.001C1059.41 424.388 1049.72 398.98 1040.36 374.406C1029.12 344.936 1017.51 314.463 998.799 287.097C949.548 215.049 868.571 166.45 782.155 157.103C696.432 147.827 602.865 181.988 496.106 261.539C437.637 305.096 384.09 357.846 332.313 408.838C306.214 434.546 279.226 461.117 251.983 486.147C248.487 489.36 245.012 492.6 241.654 495.734C218.534 517.305 196.697 537.678 171.08 545.153C159.285 548.589 148.353 549.521 137.655 547.991C128.628 546.711 119.703 543.634 110.37 538.584C105.356 535.876 100.587 533.129 95.9721 530.475C79.8823 521.216 63.2425 511.63 30.4152 499.717C10.3817 492.445 -13.4354 481.28 -38.6493 469.458C-59.9297 459.483 -81.9358 449.171 -103.98 440.058C-172.696 411.674 -223.246 445.558 -263.864 472.775C-269.035 476.241 -273.92 479.516 -278.712 482.579L-279.236 481.757C-274.451 478.701 -269.572 475.43 -264.406 471.968C-244.189 458.414 -221.276 443.055 -194.8 434.668C-164.197 424.976 -134.369 426.441 -103.612 439.146C-81.5355 448.263 -59.5194 458.585 -38.2296 468.565C-13.0347 480.375 10.7638 491.53 30.7547 498.787C63.6614 510.731 80.3381 520.333 96.4662 529.619C101.072 532.271 105.835 535.014 110.836 537.717C130.746 548.483 149.243 550.479 170.811 544.191C196.206 536.788 217.959 516.49 240.994 495.003C244.365 491.864 247.827 488.609 251.328 485.41C278.538 460.413 305.528 433.842 331.619 408.135C383.433 357.114 437.002 304.355 495.526 260.749C542.995 225.376 586.729 199.602 629.226 181.958C654.786 171.343 680.024 163.734 704.225 159.341C709.346 158.419 714.449 157.631 719.534 156.978Z" fill="url(#paint6_linear_335_1398)"/>
<path d="M699.531 160.893C721.584 158.063 743.237 157.839 764.056 160.239C786.941 162.893 809.471 168.017 831.253 175.52C852.472 182.833 872.885 192.303 892.172 203.781C929.72 226.119 962.785 256.016 987.787 290.232C1007 316.538 1019.11 345.965 1030.82 374.43C1040.93 398.976 1050.47 422.173 1064.19 443.499C1086.95 478.877 1126.81 523.31 1187.45 534.081C1246.22 544.521 1314.91 530.306 1371.2 496.039C1434.8 457.324 1483.45 416.846 1530.49 377.701C1541.25 368.757 1551.39 360.312 1561.69 351.92L1562.29 352.65C1551.99 361.048 1541.85 369.502 1531.1 378.431C1484.03 417.597 1435.35 458.107 1371.69 496.845C1342.93 514.347 1311.33 526.671 1278.31 533.255C1247.1 539.442 1215.63 540.053 1187.29 535.022C1161.89 530.51 1137.86 519.59 1115.85 502.542C1096.28 487.386 1078.63 467.693 1063.4 444.021C1049.62 422.625 1040.08 399.396 1029.96 374.8C1018.27 346.392 1006.19 317.017 987.039 290.804C935.131 219.748 851.736 171.291 763.953 161.176C679.474 151.441 587.725 183.679 483.47 259.729C420.943 305.339 363.963 361.559 308.859 415.928C288.721 435.799 267.899 456.343 247.173 476.004C242.107 480.806 237.2 485.623 232.455 490.28C211.521 510.827 193.441 528.572 171.552 536.619C160.636 540.634 150.782 542.407 141.43 542.042C133.343 541.73 125.711 539.864 117.41 536.179C115.392 535.276 113.449 534.408 111.535 533.544C95.0861 526.149 80.8811 519.767 41.7045 509.264C15.0261 502.116 -18.1665 487.944 -53.3069 472.939C-68.1447 466.603 -83.4895 460.05 -98.5178 453.971C-166.261 426.562 -216.332 455.446 -256.568 478.653C-262.542 482.1 -268.191 485.372 -273.698 488.323L-274.147 487.492C-268.647 484.533 -263.008 481.28 -257.038 477.837C-216.627 454.526 -166.335 425.515 -98.1664 453.09C-83.129 459.171 -67.7794 465.74 -52.9373 472.064C-17.8276 487.056 15.3343 501.214 41.9494 508.344C81.1971 518.858 95.4339 525.263 111.92 532.676C113.834 533.537 115.778 534.411 117.792 535.305C134.881 542.897 151.361 543.026 171.226 535.726C192.923 527.75 210.935 510.069 231.798 489.598C236.544 484.923 241.456 480.12 246.515 475.31C267.222 455.658 288.055 435.115 308.189 415.251C363.317 360.846 420.324 304.609 482.907 258.968C529.252 225.145 572.204 200.57 614.212 183.79C639.257 173.783 663.988 166.657 687.722 162.653C691.67 161.984 695.607 161.397 699.531 160.893Z" fill="url(#paint7_linear_335_1398)"/>
<path d="M679.423 164.798C702.147 161.881 724.452 161.724 745.857 164.34C769.14 167.205 792.066 172.458 814.272 180.019C835.946 187.401 856.85 196.874 876.689 208.303C915.296 230.54 949.635 260.154 975.985 293.95C995.563 319.054 1008.13 347.315 1020.29 374.652C1030.74 398.154 1040.62 420.353 1054.53 440.524C1077.94 474.445 1118.09 516.572 1176.44 524.573C1234.55 532.553 1302.02 516.261 1361.52 479.868C1423.07 442.236 1473.08 405.444 1521.45 369.865C1537.51 358.057 1552.67 346.903 1567.98 335.926L1568.51 336.667C1553.21 347.633 1538.05 358.795 1522 370.603C1473.61 406.192 1423.56 442.994 1362 480.649C1332.18 498.888 1300.54 512.077 1267.96 519.853C1236.28 527.404 1204.59 529.361 1176.3 525.479C1117.62 517.422 1077.28 475.114 1053.77 441.032C1039.81 420.797 1029.91 398.562 1019.45 375.018C1007.32 347.734 994.771 319.533 975.26 294.505C920.632 224.448 834.833 176.125 745.745 165.237C663.632 155.201 571.135 186.38 470.826 257.908C402.67 306.511 341.054 367.829 281.452 427.131C268.643 439.879 255.398 453.06 242.351 465.85C235.73 472.341 229.541 478.798 223.554 485.042C205.731 503.637 190.336 519.695 172.019 528.08C153.011 536.783 139.229 538.427 124.457 533.755C108.595 528.738 98.7966 526.985 57.5535 519.61L52.9798 518.792C18.8506 512.684 -27.1847 494.237 -71.7052 476.394C-78.7271 473.582 -85.9872 470.678 -93.0584 467.866C-159.699 441.451 -209.22 465.479 -249.029 484.79C-255.901 488.123 -262.393 491.273 -268.691 494.036L-269.055 493.211C-262.774 490.457 -256.29 487.313 -249.426 483.982C-209.466 464.596 -159.732 440.465 -92.721 467.033C-85.6481 469.836 -78.3849 472.742 -71.3622 475.561C-26.8865 493.371 19.105 511.815 53.1419 517.905L57.7185 518.723C99.0066 526.11 108.817 527.865 124.733 532.898C139.26 537.494 152.857 535.862 171.629 527.265C189.79 518.952 205.129 502.953 222.888 484.425C228.881 478.177 235.072 471.714 241.706 465.212C254.751 452.426 267.99 439.246 280.804 426.512C340.418 367.176 402.075 305.835 470.281 257.191C514.87 225.396 558.241 201.322 599.191 185.642C623.714 176.248 647.95 169.636 671.207 165.986C673.959 165.541 676.697 165.145 679.423 164.798Z" fill="url(#paint8_linear_335_1398)"/>
<path d="M659.306 168.687C682.77 165.675 705.55 165.594 727.646 168.443C751.319 171.523 774.633 176.912 797.256 184.532C819.379 191.984 840.768 201.46 861.151 212.841C900.794 234.963 936.414 264.293 964.161 297.658C984.017 321.532 997.04 348.571 1009.64 374.719C1020.48 397.224 1030.71 418.472 1044.86 437.536C1068.88 469.878 1109.28 509.602 1165.41 515.055C1221.82 520.538 1289.78 501.819 1351.84 463.701C1404.35 431.453 1449.95 401.355 1494.05 372.26C1521.85 353.918 1548.1 336.575 1574.27 319.942L1574.74 320.688C1548.59 337.332 1522.33 354.657 1494.54 372.998C1450.43 402.103 1404.82 432.199 1352.31 464.452C1321.48 483.388 1289.63 497.511 1257.64 506.431C1225.04 515.522 1193.98 518.704 1165.32 515.934C1141.35 513.605 1118.18 504.854 1096.46 489.897C1077.69 476.978 1060.08 459.526 1044.15 438.051C1029.95 418.932 1019.7 397.635 1008.84 375.092C996.267 348.99 983.264 322.003 963.48 298.212C905.196 228.132 819.195 181.132 727.531 169.306C646.568 158.849 555.942 188.048 458.18 256.096C381.773 309.272 313.657 378.433 247.782 445.318L237.549 455.703C229.048 464.326 221.717 473.29 214.624 481.956C200.57 499.149 188.413 513.993 172.506 519.551C164.818 525.956 157.355 529.818 149.695 531.355C142.901 532.721 137.013 532.092 131.544 531.333C126.205 530.593 121.816 530.648 115.743 530.722C106.486 530.838 92.496 531.014 64.2705 528.327C45.8445 526.566 22.4789 520.999 -7.15677 511.307C-33.0133 502.849 -59.953 492.512 -87.5795 481.777C-152.951 456.378 -201.868 475.721 -241.172 491.265C-249.05 494.378 -256.489 497.322 -263.665 499.759L-263.949 498.924C-256.796 496.493 -249.363 493.568 -241.497 490.444C-202.048 474.844 -152.954 455.429 -87.2611 480.955C-27.4908 504.181 25.1727 523.708 64.3555 527.451C92.5349 530.141 106.491 529.967 115.733 529.858C121.844 529.782 126.262 529.726 131.667 530.478C143.594 532.141 155.65 532.487 172.003 518.84L172.066 518.789L172.141 518.762C187.852 513.307 199.945 498.529 213.945 481.416C221.048 472.734 228.394 463.754 236.924 455.104L247.156 444.716C313.057 377.805 381.203 308.613 457.676 255.383C528.978 205.752 596.519 176.749 659.306 168.687Z" fill="url(#paint9_linear_335_1398)"/>
<path d="M638.772 172.6C663.098 169.478 686.716 169.451 709.437 172.531C733.497 175.833 757.2 181.36 780.239 189.042C824.878 203.921 866.611 226.401 903.597 255.489C921.173 269.304 937.487 284.653 952.347 301.354C972.381 323.969 985.85 349.723 998.869 374.629C1010.14 396.191 1020.78 416.553 1035.2 434.537C1070.46 478.533 1111.68 503.08 1154.39 505.525C1209.68 508.691 1276.37 488.089 1342.17 447.518L1348.39 443.68C1434.54 390.554 1508.94 344.674 1580.55 303.953L1580.97 304.694C1509.38 345.408 1434.98 391.287 1348.83 444.409L1342.61 448.257C1310.61 467.985 1278.55 483.033 1247.34 492.979C1214.27 503.519 1182.98 508.029 1154.34 506.391C1131.07 505.06 1108.35 497.361 1086.79 483.513C1068.4 471.693 1050.81 455.399 1034.53 435.085C1020.06 417.034 1009.4 396.634 998.109 375.037C985.115 350.177 971.679 324.468 951.704 301.933C890.494 232.879 802.149 186.026 709.304 173.393C629.459 162.523 540.704 189.743 445.509 254.29C365.375 308.627 293.657 381.506 232.715 445.565C223.41 455.346 215.878 465.552 208.596 475.421C196.781 491.435 186.585 505.267 172.956 511.02C158.494 526.474 147.814 527.781 139.223 528.832L138.512 528.923C135.529 529.306 133.078 530.184 129.986 531.295C122.045 534.143 110.042 538.448 75.5258 537.855C31.9512 537.11 -31.6226 514.926 -82.1358 495.684C-146.042 471.34 -194.243 486.176 -232.971 498.098C-241.993 500.877 -250.516 503.501 -258.675 505.463L-258.877 504.617C-250.743 502.653 -242.235 500.034 -233.224 497.26C-194.369 485.304 -146.016 470.413 -81.8348 494.861C-31.3856 514.08 32.0944 536.235 75.5354 536.98C109.897 537.567 121.811 533.294 129.694 530.467C132.712 529.386 135.326 528.446 138.403 528.051L139.123 527.959C147.587 526.922 158.116 525.637 172.398 510.331L172.462 510.265L172.547 510.228C185.987 504.589 196.147 490.817 207.913 474.872C215.209 464.981 222.753 454.756 232.1 444.936C293.073 380.849 364.84 307.923 445.034 253.55C487.398 224.823 529.165 203.204 569.174 189.291C592.901 181.086 616.145 175.504 638.772 172.6Z" fill="url(#paint10_linear_335_1398)"/>
<path d="M618.089 176.468C643.295 173.233 667.745 173.289 691.234 176.645C715.678 180.17 739.764 185.84 763.214 193.588C808.708 208.617 851.444 230.97 889.738 259.765C907.907 273.42 924.9 288.576 940.536 305.071C960.678 326.403 974.553 350.819 987.969 374.428C999.713 395.093 1010.8 414.607 1025.54 431.561C1062.08 473.619 1101.72 495.299 1143.38 496.021C1198.01 496.968 1261.64 475.212 1332.49 431.359C1416.95 379.078 1497.77 333.521 1586.83 287.989L1587.22 288.721C1498.18 334.244 1417.37 379.79 1332.93 432.057C1299.55 452.715 1267.31 468.677 1237.08 479.494C1203.54 491.502 1172 497.338 1143.37 496.841C1120.81 496.446 1098.52 489.807 1077.14 477.081C1059.09 466.348 1041.52 451.214 1024.91 432.1C1010.12 415.086 999.02 395.533 987.249 374.834C973.858 351.265 960.01 326.895 939.932 305.637C875.695 237.612 785.006 190.892 691.115 177.458C593.003 163.422 496.534 210.508 432.884 252.482C368.649 294.841 303.522 352.972 227.922 435.422C217.92 446.332 210.102 458.264 203.201 468.793C193.427 483.695 184.992 496.592 173.449 502.487C162.448 517.808 154.159 522.095 148.105 525.215C147.288 525.633 146.537 526.026 145.798 526.426C143.899 527.462 142.341 528.902 140.571 530.581C137.424 533.546 133.501 537.238 125.606 540.423C116.39 544.138 103.7 546.411 86.8133 547.368C66.7819 548.504 40.8192 545.1 9.64029 537.253C-15.5255 530.918 -43.7523 521.864 -76.6655 509.575C-138.858 486.344 -186.211 496.882 -224.259 505.351C-234.605 507.652 -244.375 509.829 -253.653 511.157L-253.773 510.339C-244.525 509.004 -234.769 506.831 -224.441 504.541C-186.286 496.049 -138.798 485.48 -76.3763 508.798C-2.87658 536.24 50.4782 548.596 86.7566 546.542C124.686 544.391 133.898 535.714 139.994 529.976C141.82 528.255 143.398 526.771 145.393 525.685C146.136 525.279 146.901 524.882 147.713 524.464C153.704 521.372 161.907 517.125 172.823 501.906L172.882 501.823L172.972 501.779C184.357 496.006 192.763 483.179 202.496 468.323C209.414 457.769 217.255 445.813 227.3 434.849C302.948 352.345 368.124 294.171 432.416 251.775C473.667 224.573 514.631 204.187 554.176 191.185C575.927 184.058 597.259 179.142 618.089 176.468Z" fill="url(#paint11_linear_335_1398)"/>
<path d="M597.166 180.318C623.329 176.96 648.695 177.096 673.029 180.744C697.851 184.497 722.317 190.312 746.172 198.13C792.518 213.323 836.252 235.554 875.839 264.043C894.612 277.542 912.295 292.498 928.723 308.771C948.87 328.802 963.122 351.821 976.908 374.079C989.179 393.896 1000.77 412.611 1015.87 428.568C1053.12 467.922 1092.31 487.402 1132.36 486.498C1185.92 485.285 1246.43 462.625 1322.81 415.183C1368.01 387.101 1413.71 361.09 1462.52 335.668C1501.64 315.288 1541.92 295.653 1593.11 272.006L1593.44 272.73C1512.81 309.976 1424.26 353.098 1323.23 415.858C1287.67 437.945 1256.13 454.339 1226.81 465.98C1192.32 479.667 1161.43 486.639 1132.38 487.296C1092.09 488.208 1052.7 468.632 1015.29 429.118C1000.13 413.105 988.526 394.354 976.234 374.506C962.473 352.282 948.245 329.317 928.163 309.342C860.771 242.344 767.736 195.76 672.912 181.534C576.099 167.003 482.07 211.113 420.242 250.672C354.588 292.683 288.263 351.428 223.116 425.281C212.521 437.292 204.993 450.471 198.353 462.098C190.424 475.976 183.572 487.971 173.924 493.945C166.32 508.138 160.624 514.752 156.471 519.582C155.119 521.153 153.944 522.52 152.926 523.885C151.779 525.423 150.881 527.318 149.931 529.324C147.765 533.9 145.069 539.588 137.776 544.685C129.303 550.608 116.32 554.603 98.0904 556.908C50.0876 562.97 -20.4483 542.081 -71.1795 523.494C-131.35 501.446 -177.69 507.934 -214.922 513.143C-226.814 514.808 -238.05 516.378 -248.617 516.887L-248.655 516.093C-238.126 515.581 -226.907 514.01 -215.032 512.358C-196.348 509.745 -175.175 506.781 -151.421 507.277C-124.11 507.837 -97.7739 512.906 -70.9061 522.75C-20.2573 541.308 50.1592 562.148 97.9892 556.119L98.4204 556.064C138.852 550.874 144.834 538.228 149.213 528.984C150.182 526.937 151.096 525.008 152.29 523.406C153.33 522.012 154.508 520.645 155.87 519.061C160.011 514.247 165.686 507.653 173.274 493.474L173.326 493.38L173.417 493.322C182.942 487.471 189.765 475.544 197.663 461.702C204.322 450.04 211.871 436.824 222.52 424.754C287.718 350.845 354.098 292.052 419.813 250.001C459.955 224.318 500.123 205.169 539.2 193.089C558.874 187.008 578.196 182.751 597.166 180.318Z" fill="url(#paint12_linear_335_1398)"/>
<path d="M575.953 184.147C603.17 180.653 629.541 180.881 654.824 184.848C704.016 192.579 752.442 208.158 798.728 231.158C820.643 242.041 841.755 254.47 861.905 268.351C881.292 281.698 899.676 296.446 916.91 312.476C936.96 331.186 951.548 352.746 965.658 373.615C978.519 392.627 990.668 410.588 1006.21 425.574C1044.07 462.099 1082.8 479.394 1121.34 476.973C1186.69 472.875 1254.96 435.259 1313.14 399.001C1359.47 370.116 1407.51 343.688 1460.02 318.182C1509.53 294.139 1558.25 273.278 1599.39 256.04L1599.68 256.745C1511.89 293.537 1417.49 334.876 1313.53 399.665C1275.26 423.523 1244.44 440.288 1216.55 452.428C1181.58 467.658 1150.46 475.928 1121.39 477.751C1100.25 479.079 1078.87 474.498 1057.86 464.128C1040.44 455.525 1022.89 442.748 1005.67 426.154C990.076 411.112 977.916 393.131 965.017 374.072C950.933 353.249 936.369 331.715 916.379 313.064C845.68 247.088 750.298 200.637 654.694 185.62C559.089 170.603 467.568 211.734 407.584 248.879C340.933 290.155 275.476 347.651 218.29 415.163C207.194 428.254 200.198 442.656 194.019 455.366C187.748 468.267 182.326 479.416 174.378 485.425C170.589 495.36 167.633 502.261 165.251 507.793C162.841 513.401 161.099 517.455 159.963 521.367C159.438 523.369 159.019 525.398 158.711 527.445C156.504 540.336 153.482 557.989 109.349 566.464C55.8751 576.73 -23.2925 552.681 -65.7179 537.43C-123.472 516.677 -168.565 519.393 -204.804 521.579C-218.547 522.408 -231.53 523.192 -243.609 522.629L-243.574 521.863C-231.536 522.426 -218.573 521.645 -204.849 520.816C-186.645 519.719 -166.012 518.473 -143.021 520.122C-116.616 522.02 -91.2448 527.445 -65.4674 536.712C-23.1121 551.938 55.9054 575.948 109.197 565.714C152.812 557.337 155.783 539.99 157.951 527.319C158.264 525.242 158.691 523.183 159.23 521.153C160.378 517.196 162.126 513.127 164.55 507.491C166.933 501.941 169.903 495.035 173.703 485.059L173.742 484.955L173.83 484.888C181.681 479.006 187.079 467.9 193.332 455.042C199.536 442.291 206.555 427.842 217.708 414.677C274.948 347.112 340.465 289.562 407.184 248.245C446.221 224.071 485.59 206.166 524.201 195.026C541.148 190.082 558.45 186.446 575.953 184.147Z" fill="url(#paint13_linear_335_1398)"/>
<path d="M554.399 187.944C582.779 184.302 610.303 184.628 636.616 188.951C686.403 197.122 735.668 212.89 783.042 235.814C805.469 246.664 827.151 258.99 847.947 272.71C867.956 285.901 887.052 300.426 905.107 316.187C924.954 333.567 939.821 353.636 954.199 373.042C967.725 391.304 980.502 408.549 996.564 422.591C1034.97 456.192 1073.25 471.288 1110.34 467.46C1174.24 460.869 1238.15 423.668 1303.45 382.835C1407.57 317.743 1505.82 278.161 1605.67 240.069L1605.93 240.755C1506.12 278.828 1407.91 318.4 1303.85 383.478C1238.46 424.351 1174.46 461.596 1110.41 468.203C1089.96 470.314 1069.04 466.735 1048.23 457.568C1031.07 450.014 1013.52 438.437 996.062 423.157C979.953 409.064 967.151 391.787 953.601 373.494C939.247 354.116 924.404 334.079 904.616 316.752C829.325 250.829 734.106 205.698 636.497 189.675C542.124 174.183 453.056 212.326 394.954 247.051C328.277 286.902 263.838 342.992 213.495 405.003C202 419.162 195.742 434.771 190.225 448.542C185.426 460.52 181.278 470.869 174.852 476.863C169.106 499.958 167.351 509.382 166.981 518.829C166.909 520.693 166.941 522.701 166.975 524.825C167.101 532.843 167.253 542.827 161.473 552.085C154.75 562.87 141.383 570.68 120.603 575.964C98.2882 581.638 69.441 581.732 34.857 576.243C5.78854 571.626 -27.1018 562.999 -60.257 551.314C-115.077 531.977 -158.611 531.298 -193.589 530.75C-209.591 530.498 -224.72 530.265 -238.584 528.302L-238.483 527.575C-224.651 529.531 -209.557 529.765 -193.579 530.014C-175.976 530.29 -156.023 530.603 -133.974 533.261C-108.754 536.292 -83.9477 542.115 -60.0121 550.621C13.8155 576.659 79.5794 585.637 120.425 575.252C166.837 563.45 166.484 541.134 166.219 524.838C166.186 522.705 166.154 520.689 166.228 518.803C166.601 509.284 168.376 499.814 174.146 476.582L174.172 476.474L174.253 476.4C180.602 470.529 184.737 460.216 189.516 448.273C195.054 434.452 201.333 418.789 212.899 404.543C238.074 373.535 266.512 344.165 297.424 317.247C328.425 290.248 361.105 266.425 394.551 246.418C432.491 223.74 471.068 207.084 509.207 196.907C524.055 192.919 539.153 189.925 554.399 187.944Z" fill="url(#paint14_linear_335_1398)"/>
<path d="M532.433 191.705C562.107 187.896 590.898 188.338 618.412 193.053C668.734 201.673 718.839 217.64 767.324 240.512C812.946 262.028 855.327 288.74 893.288 319.911C912.817 335.944 927.886 354.466 942.459 372.378C956.741 389.929 970.231 406.508 986.88 419.621C1026.27 450.646 1063.05 463.189 1099.32 457.959C1162.86 448.802 1224.7 410.013 1290.15 368.947L1293.77 366.677C1342.98 335.815 1395.73 308.514 1454.99 283.241C1507.98 260.648 1559.47 242.373 1611.93 224.099L1612.17 224.766C1500.44 263.678 1399.4 301.257 1294.14 367.273L1290.52 369.544C1225 410.652 1163.11 449.487 1099.42 458.658C1079.64 461.504 1059.18 458.928 1038.59 450.99C1021.67 444.473 1004.13 434.103 986.431 420.178C969.721 407.015 956.208 390.407 941.901 372.824C927.353 354.946 912.304 336.445 892.831 320.469C813.761 255.53 716.271 210.528 618.297 193.747C545.559 181.283 461.747 199.573 382.316 245.233C315.377 283.717 253.714 336.85 208.687 394.845C196.876 410.058 191.578 426.853 186.904 441.672C183.392 452.773 180.376 462.368 175.31 468.3C172.207 491.636 172.499 503.977 173.97 516.338C174.173 518.034 174.414 519.8 174.695 521.669C176.108 531.484 177.865 543.698 173.007 555.216C167.332 568.683 153.877 578.578 131.884 585.466C108.874 592.673 79.0707 593.934 43.2929 589.211C12.9615 585.207 -20.9474 576.902 -54.7681 565.212C-105.966 547.489 -145.758 544.019 -180.861 540.958C-200.506 539.246 -217.476 537.765 -233.532 533.996L-233.371 533.31C-217.363 537.063 -200.419 538.544 -180.795 540.255C-145.648 543.32 -105.814 546.793 -54.5312 564.546C-18.6938 576.95 71.1906 603.755 131.68 584.806C153.47 577.979 166.778 568.217 172.369 554.952C177.148 543.616 175.409 531.508 174.009 521.78C173.739 519.904 173.483 518.134 173.282 516.432C171.8 504 171.509 491.578 174.63 468.114L174.645 468.01L174.714 467.932C179.722 462.115 182.742 452.546 186.238 441.481C190.928 426.605 196.247 409.746 208.135 394.434C253.219 336.382 314.951 283.162 381.972 244.653C418.823 223.465 456.609 208.069 494.272 198.862C506.849 195.767 519.59 193.377 532.433 191.705Z" fill="url(#paint15_linear_335_1398)"/>
<path d="M509.997 195.417C541.108 191.424 571.336 191.998 600.203 197.152C651.02 206.222 701.936 222.408 751.576 245.256C797.671 266.441 841.246 292.727 881.485 323.62C900.57 338.302 915.74 355.228 930.425 371.599C945.567 388.491 959.871 404.448 977.225 416.635C1016.95 444.541 1053.28 454.948 1088.32 448.442C1147.05 437.538 1203.03 401.979 1262.29 364.311C1269.4 359.792 1276.76 355.116 1284.09 350.505C1334.87 318.563 1389.95 290.846 1452.48 265.764C1506.5 244.095 1559.5 226.842 1618.21 208.128L1618.41 208.772C1516.04 241.399 1400.03 278.376 1284.45 351.078C1277.12 355.688 1269.76 360.361 1262.65 364.883C1203.32 402.577 1147.3 438.179 1088.43 449.106C1069.31 452.658 1049.29 451.067 1028.94 444.379C1011.99 438.813 994.946 429.918 976.826 417.191C959.411 404.958 945.083 388.974 929.914 372.05C915.255 355.703 900.094 338.799 881.066 324.156C797.892 260.188 698.106 215.321 600.086 197.818C528.187 184.978 446.355 201.176 369.666 243.426C303.025 280.145 244.145 330.316 203.869 384.705C191.832 400.963 187.508 419.706 184.035 434.769C181.663 445.044 179.611 453.92 175.753 459.76C174.943 485.126 177.747 499.845 180.958 513.89C181.269 515.246 181.6 516.63 181.945 518.092C184.71 529.729 188.149 544.215 184.305 558.083C179.797 574.359 166.332 586.433 143.142 594.996C119.461 603.738 88.701 606.164 51.7176 602.206C20.178 598.833 -14.753 590.845 -49.2969 579.109C-95.9391 563.263 -133.176 557.557 -166.029 552.523C-189.481 548.93 -209.734 545.827 -228.496 539.684L-228.288 539.042C-209.58 545.172 -189.356 548.273 -165.929 551.857C-133.052 556.894 -95.7833 562.598 -49.0827 578.469C27.5616 604.508 99.3324 610.45 142.906 594.361C165.874 585.879 179.196 573.957 183.651 557.903C187.45 544.201 184.032 529.811 181.285 518.25C180.938 516.784 180.609 515.401 180.298 514.041C177.085 499.935 174.267 485.155 175.09 459.642L175.092 459.543L175.145 459.464C178.973 453.746 181.017 444.874 183.385 434.614C186.874 419.494 191.223 400.672 203.335 384.303C243.673 329.834 302.626 279.595 369.349 242.834C405.126 223.123 442.123 208.975 479.303 200.78C489.619 198.505 499.851 196.718 509.997 195.417Z" fill="url(#paint16_linear_335_1398)"/>
<path d="M487.005 199.069C519.71 194.871 551.572 195.598 581.999 201.255C633.204 210.777 684.952 227.196 735.797 250.04C782.895 271.254 827.743 297.144 869.666 327.321C888.165 340.626 903.33 355.93 917.993 370.727C934.127 387.004 949.368 402.382 967.549 413.641C1007.49 438.381 1043.39 446.648 1077.3 438.916C1132.42 426.347 1183.96 392.859 1238.53 357.402C1250.19 349.828 1262.24 341.994 1274.41 334.321C1326.79 301.288 1384.21 273.14 1449.97 248.268C1509.59 225.72 1570.62 207.883 1624.47 192.147L1624.66 192.765C1510.5 226.125 1392.47 260.605 1274.76 334.866C1262.59 342.539 1250.54 350.369 1238.88 357.943C1184.26 393.432 1132.67 426.953 1077.44 439.544C1058.94 443.763 1039.37 443.151 1019.27 437.719C1002.5 433.194 985.475 425.507 967.206 414.181C948.938 402.856 933.698 387.48 917.533 371.172C902.887 356.397 887.743 341.116 869.288 327.837C807.271 283.218 707.07 225.144 581.877 201.868C510.782 188.636 430.918 202.754 357.009 241.593C291.125 276.22 235.024 323.436 199.044 374.529C186.87 391.821 183.941 411.755 181.586 427.772C180.192 437.275 178.982 445.488 176.171 451.185C177.722 478.251 183.132 495.879 187.906 511.422C188.176 512.299 188.453 513.192 188.732 514.103C192.911 527.586 198.108 544.366 195.363 560.671C193.905 569.456 190.02 577.658 184.149 584.352C177.292 592.259 167.27 599.033 154.36 604.485C141.823 609.782 127.067 613.34 110.504 615.051C95.2021 616.637 78.2467 616.673 60.1016 615.155C27.3953 612.419 -8.55727 604.751 -43.8672 592.974C-84.64 579.377 -118.354 572.232 -148.094 565.927C-176.635 559.878 -201.287 554.654 -223.493 545.341L-223.241 544.745C-201.094 554.034 -176.472 559.253 -147.961 565.295C-118.199 571.603 -84.4676 578.751 -43.6584 592.361C35.0879 618.624 109.021 622.933 154.106 603.882C178.247 593.684 191.533 579.514 194.712 560.557C197.433 544.404 192.261 527.704 188.105 514.285C187.823 513.378 187.546 512.481 187.276 511.601C182.486 496.002 177.058 478.322 175.508 451.131L175.496 451.045L175.536 450.97C178.321 445.36 179.525 437.166 180.92 427.675C183.284 411.59 186.228 391.569 198.488 374.153C217.397 347.284 241.575 321.677 270.312 298.055C296.428 276.591 325.489 257.396 356.669 241.007C391.389 222.761 427.587 209.877 464.286 202.705C471.914 201.248 479.487 200.036 487.005 199.069Z" fill="url(#paint17_linear_335_1398)"/>
<path d="M463.383 202.638C497.851 198.214 531.558 199.114 563.791 205.357C687.988 229.381 792.256 286.969 857.856 331.049C875.619 342.983 890.619 356.621 905.129 369.814C922.407 385.523 938.728 400.365 957.884 410.662C997.906 432.207 1033.36 438.338 1066.29 429.402C1118.51 415.231 1166.55 383.142 1217.4 349.187C1232.71 338.964 1248.54 328.393 1264.73 318.141C1384.9 242.165 1509.37 208.768 1629.74 176.477L1630.75 176.204L1630.91 176.796L1629.9 177.069C1509.57 209.354 1385.15 242.745 1265.07 318.696C1248.88 328.933 1233.05 339.504 1217.75 349.723C1166.85 383.716 1118.78 415.824 1066.46 430.022C1048.55 434.881 1029.42 435.24 1009.6 431.088C992.96 427.603 975.947 421.108 957.6 411.23C938.376 400.881 922.026 386.016 904.724 370.278C890.231 357.103 875.247 343.478 857.525 331.571C791.97 287.522 687.78 229.977 563.684 205.972C493.327 192.354 415.448 204.382 344.388 239.813C279.638 272.102 226.319 316.359 194.257 364.429C182.041 382.745 180.678 403.841 179.584 420.79C179.015 429.574 178.525 437.157 176.639 442.69C180.271 469.245 187.162 487.957 193.825 506.048L195.221 509.841C206.466 540.445 223.463 586.699 165.643 614.051C152.777 620.136 137.603 624.395 120.519 626.709C104.752 628.852 87.2628 629.346 68.552 628.194C34.7062 626.103 -2.2687 618.75 -38.3768 606.929C-71.3844 596.122 -99.9939 588.656 -125.235 582.073C-162.377 572.38 -191.713 564.726 -218.426 551.087L-218.148 550.54C-191.494 564.149 -162.185 571.795 -125.079 581.478C-99.8287 588.066 -71.2131 595.534 -38.1844 606.347C24.2905 626.801 110.572 639.424 165.369 613.499C222.681 586.398 205.799 540.452 194.633 510.059L193.237 506.266C186.554 488.125 179.648 469.365 176.008 442.704L175.999 442.633L176.022 442.563C177.902 437.095 178.391 429.526 178.958 420.754C180.057 403.732 181.426 382.545 193.732 364.093C210.836 338.451 233.603 314.129 261.399 291.801C286.019 272.029 313.843 254.352 344.088 239.268C377.761 222.478 413.184 210.861 449.373 204.738C454.061 203.935 458.731 203.235 463.383 202.638Z" fill="url(#paint18_linear_335_1398)"/>
<path d="M439.063 206.099C475.449 201.429 511.259 202.556 545.584 209.46C597.307 219.851 650.66 236.812 704.162 259.838C751.34 280.15 799.091 305.357 846.039 334.764C862.887 345.314 877.541 357.275 891.714 368.841C910.328 384.028 927.907 398.375 948.212 407.699C988.172 426.046 1023.19 430.038 1055.28 419.904C1105.05 404.18 1150.2 373.1 1198 340.197C1216.37 327.555 1235.35 314.496 1255.05 301.994C1377.81 224.167 1507.11 192.272 1632.16 161.424L1637.02 160.22L1637.16 160.782L1632.3 161.987C1507.29 192.829 1378.04 224.712 1255.37 302.49C1235.69 314.97 1216.7 328.041 1198.34 340.679C1150.5 373.608 1105.32 404.712 1055.47 420.46C1038.12 425.942 1019.43 427.264 999.912 424.397C983.339 421.963 966.367 416.673 947.984 408.231C927.619 398.876 910 384.508 891.36 369.296C877.2 357.74 862.559 345.792 845.743 335.261C744.536 271.886 643.512 229.754 545.475 210.037C475.815 196.039 399.906 205.957 331.742 237.996C268.435 267.75 217.899 309.048 189.441 354.281C177.279 373.609 177.643 395.833 177.924 413.695C178.053 421.809 178.164 428.804 177.065 434.151C182.509 460.346 190.802 480.097 198.809 499.206C199.842 501.672 200.872 504.136 201.898 506.6C208.53 522.59 217.61 544.491 217.045 566.126C216.745 577.587 213.68 587.958 207.935 596.95C201.305 607.328 190.856 616.273 176.887 623.583C163.707 630.455 148.105 635.408 130.521 638.327C114.281 641.015 96.2706 641.974 76.9877 641.182C42.0238 639.746 4.0243 632.713 -32.9005 620.841C-55.3454 613.626 -76.1003 607.474 -94.4109 602.043C-142.55 587.768 -180.574 576.493 -213.374 556.789L-213.073 556.286C-180.35 575.956 -142.345 587.219 -94.242 601.481C-75.9286 606.912 -55.1734 613.067 -32.7207 620.298C31.4848 640.934 120.177 652.503 176.616 623.078C202.784 609.438 215.817 590.813 216.466 566.139C217.027 544.63 207.976 522.803 201.364 506.852C200.34 504.387 199.31 501.924 198.276 499.461C190.246 480.314 181.953 460.516 176.484 434.24L176.476 434.18L176.486 434.121C177.581 428.829 177.47 421.834 177.339 413.732C177.052 395.796 176.696 373.472 188.949 353.998C204.329 329.556 225.711 306.527 252.502 285.553C275.679 267.407 302.256 251.237 331.495 237.496C364.089 222.165 398.796 211.803 434.46 206.754C435.987 206.503 437.529 206.296 439.063 206.099Z" fill="url(#paint19_linear_335_1398)"/>
<path d="M414.008 209.405C415.844 209.169 417.675 208.934 419.52 208.741C456.084 204.628 492.371 206.24 527.375 213.556C579.163 224.38 633.308 241.632 688.307 264.829C735.764 284.847 783.499 308.941 834.23 338.475C849.965 347.634 864.051 357.908 877.672 367.844C897.853 382.551 916.889 396.446 938.549 404.717C977.739 419.685 1013.31 421.592 1044.27 410.387C1091.85 393.173 1134.54 362.86 1179.73 330.747C1200.75 315.807 1222.51 300.354 1245.38 285.822C1275.51 266.658 1306.73 249.875 1340.82 234.518C1371.14 220.85 1403 208.639 1438.24 197.188C1503.61 175.946 1570.38 160.8 1634.94 146.151L1643.28 144.256L1643.41 144.8L1635.07 146.692C1505.28 176.127 1371.08 206.586 1245.68 286.292C1222.82 300.817 1201.08 316.261 1180.06 331.199C1134.83 363.325 1092.12 393.668 1044.47 410.91C1027.64 417.002 1009.38 419.285 990.198 417.696C973.91 416.346 956.47 412.153 938.366 405.237C916.636 396.94 897.559 383.024 877.361 368.294C863.752 358.365 849.676 348.101 833.967 338.956C724.403 275.175 624.082 234.338 527.271 214.104C458.244 199.676 384.314 207.516 319.098 236.177C283.427 251.853 218.524 286.726 184.628 344.132C170.319 368.381 173.994 397.332 176.433 416.491C176.858 419.804 177.26 422.935 177.497 425.617C179.622 448.843 189.361 466.899 198.779 484.358C202.429 491.122 205.874 497.512 208.892 504.172C217.851 523.951 227.436 546.958 227.751 569.661C227.914 582.245 225.15 593.666 219.497 603.604C212.99 615.052 202.435 624.958 188.147 633.084C174.65 640.74 158.628 646.403 140.53 649.911C123.828 653.146 105.292 654.57 85.4365 654.139C49.8843 653.369 9.80307 646.472 -27.4196 634.722C-35.0617 632.311 -42.4654 629.985 -49.6309 627.744C-83.935 616.993 -113.562 607.709 -139.422 597.663C-167.348 586.81 -189.237 575.627 -208.308 562.459L-207.992 562.004C-166.788 590.446 -117.577 605.858 -49.4636 627.214C-42.2996 629.46 -34.896 631.786 -27.2526 634.192C38.695 655.008 129.839 665.522 187.873 632.6C214.714 617.372 227.58 596.786 227.206 569.668C226.891 547.06 217.331 524.129 208.396 504.398C205.389 497.755 201.945 491.376 198.308 484.619C188.862 467.111 179.097 449.006 176.96 425.665C176.716 422.993 176.318 419.868 175.899 416.559C173.451 397.326 169.755 368.259 184.168 343.848C197.904 320.584 217.913 298.866 243.644 279.289C265.427 262.712 290.736 248.038 318.892 235.658C348.852 222.492 380.834 213.663 414.008 209.405Z" fill="url(#paint20_linear_335_1398)"/>
<path d="M388.5 212.487C393.832 211.803 399.199 211.239 404.601 210.795C439.605 207.901 474.845 210.215 509.171 217.661C561.575 229.039 614.98 246.128 672.434 269.903C718.68 289.043 767.743 312.688 822.431 342.193C836.825 349.957 850.068 358.553 862.877 366.866C884.866 381.137 905.638 394.618 928.911 401.741C967.717 413.634 1002.84 413.342 1033.29 400.873C1078.81 382.241 1119.3 352.536 1162.19 321.085C1185.64 303.885 1209.88 286.104 1235.72 269.648C1266.55 250.012 1298.59 232.93 1333.66 217.426C1364.86 203.636 1397.73 191.435 1434.16 180.137C1501.73 159.161 1571.01 144.696 1638.01 130.71L1649.57 128.294L1649.68 128.809L1638.12 131.225C1503.49 159.333 1364.27 188.396 1236.01 270.102C1210.2 286.546 1185.96 304.323 1162.52 321.516C1119.61 352.985 1079.08 382.711 1033.5 401.374C1017.14 408.074 999.306 411.31 980.491 410.995C964.196 410.726 946.804 407.77 928.769 402.245C905.441 395.096 884.641 381.596 862.617 367.303C849.82 358.998 836.583 350.406 822.211 342.651C746.982 302.075 632.672 245.001 509.085 218.171C440.633 203.313 368.678 209.062 306.475 234.363C264.273 251.527 208.045 282.746 179.836 333.986C166.087 358.962 172.222 388.837 176.28 408.607C176.912 411.67 177.504 414.565 177.952 417.103C182.179 441.169 193.093 460.416 203.647 479.029C208.039 486.776 212.186 494.092 215.903 501.76C226.959 524.56 237.326 548.999 238.471 573.213C239.118 586.919 236.631 599.39 231.074 610.278C224.69 622.796 214.04 633.661 199.403 642.618C185.592 651.069 169.151 657.422 150.54 661.524C133.375 665.31 114.313 667.193 93.8829 667.123C57.2555 667.002 16.122 660.435 -21.9404 648.636C-63.0869 635.883 -96.5312 624.818 -126.008 612.292C-156.926 599.149 -181.469 585.13 -203.24 568.168L-202.916 567.752C-158.978 601.982 -109.499 620.945 -21.7842 648.134C45.9514 669.126 139.55 678.585 199.128 642.169C226.644 625.35 239.342 602.803 237.946 573.237C236.804 549.118 226.448 524.741 215.427 501.989C211.721 494.335 207.577 487.027 203.19 479.291C192.613 460.637 181.677 441.35 177.435 417.193C176.993 414.674 176.398 411.783 175.767 408.722C171.693 388.879 165.535 358.888 179.375 333.746C191.539 311.65 210.193 291.251 234.816 273.111C255.242 258.061 279.295 244.861 306.278 233.886C332.121 223.356 359.723 216.181 388.5 212.487Z" fill="url(#paint21_linear_335_1398)"/>
<path d="M362.835 215.276C404.193 209.968 447.983 212.074 490.964 221.769C604.117 247.281 711.471 296.513 810.618 345.917C823.404 352.287 835.48 359.23 847.161 365.945C871.3 379.821 894.095 392.929 919.233 398.776C957.486 407.676 992.152 405.184 1022.27 391.359C1065.53 371.515 1103.82 342.515 1144.35 311.809C1170.27 292.182 1197.06 271.887 1226.01 253.48C1257.38 233.376 1290.09 216.007 1326.01 200.38C1357.96 186.479 1391.71 174.304 1429.19 163.161C1498.72 142.483 1570.27 128.746 1639.47 115.463C1644.92 114.418 1650.37 113.372 1655.81 112.323L1655.9 112.81C1650.46 113.861 1645.01 114.908 1639.56 115.95C1500.53 142.639 1356.77 170.249 1226.28 253.9C1197.35 272.298 1170.56 292.585 1144.66 312.209C1104.1 342.929 1065.8 371.945 1022.47 391.815C992.247 405.677 957.472 408.18 919.108 399.257C893.901 393.392 871.084 380.264 846.905 366.37C835.233 359.659 823.167 352.721 810.392 346.355C711.278 296.977 603.956 247.743 490.854 222.248C422.909 206.93 352.928 210.59 293.801 232.555C253.113 247.67 199.464 275.778 174.992 323.85C161.941 349.483 170.497 380.177 176.16 400.498C176.968 403.4 177.732 406.141 178.358 408.575C184.613 433.278 196.628 453.644 208.234 473.342C213.218 481.796 218.374 490.539 222.865 499.339C234.721 522.547 247.116 549.894 249.143 576.753C250.263 591.584 248.064 605.107 242.606 616.943C236.341 630.523 225.58 642.357 210.622 652.14C196.498 661.366 179.64 668.428 160.516 673.127C142.89 677.457 123.304 679.802 102.296 680.094C64.6155 680.616 22.4177 674.377 -16.4986 662.531C-60.1678 649.239 -93.3071 636.93 -120.792 623.797C-150.905 609.41 -175.503 593.54 -198.207 573.855L-197.881 573.479C-155.26 610.431 -104.366 635.266 -16.3589 662.057C49.9974 682.257 149.174 691.67 210.345 651.719C269.679 612.959 249.742 553.05 222.418 499.559C217.932 490.782 212.78 482.044 207.799 473.595C196.17 453.868 184.144 433.469 177.872 408.699C177.255 406.269 176.494 403.53 175.675 400.633C169.992 380.244 161.405 349.43 174.545 323.626C185.215 302.689 202.513 283.625 225.995 266.958C245.113 253.389 267.864 241.656 293.622 232.09C315.437 223.988 338.723 218.371 362.835 215.276Z" fill="url(#paint22_linear_335_1398)"/>
<path d="M336.846 217.706C349.438 216.107 362.109 215.21 374.8 215.018C406.759 214.488 439.717 218.141 472.757 225.877C523.947 237.861 578.499 255.52 639.534 279.864C693.525 301.389 745.999 325.433 796.743 348.688L798.813 349.638C809.692 354.63 820.205 359.959 830.37 365.115C857.031 378.641 882.214 391.42 909.569 395.812C947.088 401.836 981.303 397.142 1011.27 381.862C1052.48 360.84 1088.89 332.374 1127.44 302.241C1155.54 280.266 1184.56 257.559 1216.34 237.31C1248.45 216.694 1282.03 198.995 1319 183.193C1351.89 169.145 1386.7 156.954 1425.41 145.925C1497.24 125.462 1571.41 112.377 1643.13 99.6871C1649.45 98.5705 1655.76 97.4535 1662.07 96.336L1662.15 96.7958C1655.84 97.9171 1649.53 99.0343 1643.21 100.147C1499.15 125.586 1350.18 151.896 1216.59 237.685C1184.85 257.921 1155.81 280.62 1127.73 302.575C1089.16 332.726 1052.74 361.205 1011.48 382.247C995.888 390.198 978.874 395.343 960.917 397.529C944.547 399.526 927.247 399.092 909.497 396.243C882.07 391.839 856.856 379.044 830.161 365.502C819.999 360.346 809.489 355.013 798.623 350.034L796.55 349.084C693.525 301.883 586.989 253.074 472.647 226.312C405.145 210.51 337.14 212.079 281.157 230.734C242.105 243.749 191.153 268.709 170.179 313.701C157.95 339.951 168.871 371.375 176.097 392.178C177.074 394.997 178 397.657 178.778 400.057C186.938 425.172 199.938 446.535 212.512 467.195C218.397 476.852 224.475 486.856 229.842 496.91C243.023 521.624 256.894 550.857 259.83 580.289C261.425 596.243 259.512 610.818 254.152 623.599C248.009 638.25 237.143 651.044 221.852 661.654C207.42 671.662 190.143 679.423 170.514 684.715C152.433 689.594 132.319 692.397 110.733 693.05C71.9894 694.222 28.7461 688.321 -11.0298 676.428C-52.6383 663.99 -86.8246 650.538 -115.545 635.304C-144.584 619.903 -169.965 601.665 -193.144 579.549L-192.82 579.218C-146.873 623.059 -94.1632 651.094 -10.8948 675.987C57.2067 696.346 158.963 704.709 221.598 661.277C250.058 641.541 262.768 614.311 259.379 580.353C256.451 551.001 242.604 521.82 229.446 497.147C224.09 487.091 218.003 477.105 212.127 467.453C199.538 446.769 186.521 425.385 178.348 400.217C177.571 397.823 176.646 395.163 175.669 392.347C168.416 371.474 157.46 339.93 169.77 313.518C178.989 293.752 194.972 276.021 217.277 260.858C235.097 248.742 256.545 238.463 281.011 230.32C298.649 224.421 317.333 220.211 336.846 217.706Z" fill="url(#paint23_linear_335_1398)"/>
<path d="M310.913 219.734C327.162 217.687 343.538 216.832 359.912 217.176C390.156 217.742 421.997 222.044 454.546 229.957C553.309 253.971 647.384 294.013 738.356 332.735C754.349 339.541 770.885 346.579 787.005 353.335C795.598 356.938 804.083 360.725 812.283 364.385C841.932 377.621 869.936 390.121 899.908 392.822C935.994 396.07 970.697 388.983 1000.26 372.327C1039.3 350.334 1073.82 322.485 1110.37 293C1140.67 268.556 1172.01 243.277 1206.65 221.117C1239.52 199.983 1273.98 181.947 1312.01 165.983C1345.85 151.767 1381.72 139.567 1421.68 128.649C1495.83 108.388 1572.62 95.9185 1646.88 83.8576C1654.04 82.6952 1661.19 81.5317 1668.33 80.3672L1668.38 80.8014C1661.24 81.9678 1654.09 83.1313 1646.94 84.2918C1497.81 108.507 1343.61 133.549 1206.88 221.495C1172.27 243.644 1140.94 268.913 1110.65 293.336C1074.07 322.833 1039.55 350.691 1000.48 372.7C985.108 381.347 968.442 387.462 951.123 390.81C934.692 394.007 917.439 394.843 899.885 393.249C869.839 390.543 841.801 378.026 812.118 364.777C803.919 361.117 795.443 357.336 786.85 353.732C770.73 346.974 754.189 339.922 738.201 333.129C647.238 294.415 553.179 254.379 454.449 230.376C386.345 213.818 322.052 213.31 268.519 228.912C231.218 239.783 183.042 261.556 165.372 303.548C154.09 330.351 167.298 362.448 176.035 383.685C177.186 386.481 178.272 389.123 179.217 391.537C189.091 416.812 202.958 438.981 216.369 460.422C223.292 471.485 230.449 482.927 236.836 494.485C250.484 519.174 266.643 551.635 270.537 583.828C272.6 600.9 270.979 616.521 265.715 630.257C259.695 645.975 248.72 659.732 233.1 671.171C218.358 681.96 200.668 690.433 180.516 696.309C161.975 701.729 141.334 704.991 119.17 706.007C79.3834 707.829 35.0848 702.258 -5.5675 690.324C-46.3435 678.354 -80.6041 664.118 -110.306 646.81C-138.781 630.212 -164.223 610.074 -188.087 585.239L-187.772 584.937C-139.513 635.163 -84.9778 666.555 -5.44427 689.904C64.4014 710.437 168.743 717.742 232.836 670.833C296.539 624.21 268.23 552.219 236.446 494.701C230.065 483.153 222.909 471.717 215.993 460.656C202.568 439.199 188.69 417.014 178.8 391.701C177.86 389.29 176.773 386.65 175.624 383.856C166.856 362.551 153.608 330.352 164.961 303.383C172.799 284.752 187.474 268.397 208.571 254.769C225.112 244.083 245.242 235.253 268.392 228.507C282.316 224.481 296.533 221.548 310.913 219.734Z" fill="url(#paint24_linear_335_1398)"/>
<path d="M284.895 221.331C329.381 215.621 380.166 219.878 436.34 234.065C522.424 255.806 605.681 289.368 686.198 321.825C715.443 333.614 745.687 345.804 775.215 357.057C781.077 359.293 786.957 361.599 792.634 363.823C825.823 376.857 857.174 389.169 890.26 389.858C925.184 390.62 959.58 381.227 989.27 362.821C1025.93 340.113 1058.48 313.037 1092.93 284.355C1125.55 257.206 1159.28 229.131 1196.98 204.969C1230.61 183.312 1265.96 164.939 1305.04 148.796C1339.83 134.435 1376.77 122.197 1417.98 111.382C1494.46 91.3129 1573.87 79.4676 1650.7 67.9984C1658.67 66.808 1666.64 65.6167 1674.58 64.4245L1674.63 64.8302C1666.68 66.0253 1658.72 67.2156 1650.75 68.4012C1496.55 91.4132 1337.1 115.203 1197.18 205.307C1159.5 229.455 1125.77 257.521 1093.17 284.662C1058.7 313.354 1026.14 340.454 989.459 363.162C959.72 381.655 925.234 391.072 890.224 390.261C857.068 389.56 825.685 377.246 792.46 364.208C786.776 361.979 780.896 359.67 775.041 357.443C745.518 346.185 715.275 333.996 686.023 322.204C605.542 289.755 522.296 256.191 436.239 234.461C367.468 217.094 306.781 214.622 255.871 227.124C220.422 235.823 175.113 254.385 160.551 293.432C150.355 320.772 165.754 353.468 175.943 375.101C177.273 377.924 178.528 380.577 179.641 383.047C190.915 408.023 205.39 430.602 219.385 452.43C227.641 465.308 236.172 478.609 243.82 492.09C257.545 516.092 276.358 552.084 281.262 587.372C283.789 605.567 282.451 622.243 277.278 636.938C271.372 653.721 260.285 668.445 244.331 680.717C229.283 692.285 211.175 701.439 190.512 707.924C171.515 713.887 150.349 717.608 127.607 718.986C86.7799 721.456 41.424 716.22 -0.107574 704.245C-40.3637 692.638 -74.6926 677.622 -105.063 658.335C-133.056 640.56 -158.557 618.522 -183.029 590.96L-182.724 590.689C-132.812 646.899 -76.4553 681.806 0.00436401 703.851C71.6491 724.51 178.561 730.759 244.092 680.39C273.885 657.487 286.254 626.198 280.865 587.423C275.974 552.212 257.184 516.264 243.473 492.286C235.833 478.818 227.301 465.511 219.053 452.644C205.047 430.803 190.566 408.219 179.278 383.213C178.166 380.742 176.91 378.084 175.582 375.267C170.396 364.274 163.959 350.588 160.128 336.309C155.627 319.52 155.641 305.448 160.178 293.288C166.702 275.793 180.077 260.807 199.933 248.752C215.201 239.484 233.991 232.072 255.782 226.725C265.377 224.381 275.097 222.579 284.895 221.331Z" fill="url(#paint25_linear_335_1398)"/>
<path d="M259.266 222.338C281.196 219.523 304.545 219.343 330.154 221.762C356.902 224.292 385.695 229.656 418.129 238.17C493.695 257.998 567.581 286.642 639.035 314.347C679.808 330.156 721.967 346.505 763.401 360.769C765.949 361.648 768.491 362.527 771.027 363.405C808.441 376.353 843.78 388.582 880.603 386.879C914.354 385.314 948.126 373.703 978.268 353.295C1012.28 330.264 1044.1 302.925 1074.88 276.486C1110 246.331 1146.31 215.14 1187.3 188.798C1221.7 166.615 1257.95 147.897 1298.12 131.572C1333.86 117.045 1371.88 104.776 1414.34 94.0638C1493.16 74.1773 1575.22 62.938 1654.6 52.0648C1663.36 50.8645 1672.12 49.6612 1680.87 48.4552L1680.91 48.8294C1672.17 50.0395 1663.41 51.2429 1654.64 52.4394C1495.36 74.2579 1330.64 96.8163 1187.51 189.114C1146.53 215.446 1110.23 246.626 1075.13 276.782C1044.35 303.23 1012.52 330.577 978.484 353.618C963.524 363.756 947.678 371.757 931.431 377.396C915.058 383.113 897.946 386.438 880.624 387.268C843.726 388.975 808.353 376.733 770.906 363.772C768.369 362.892 765.827 362.014 763.28 361.139C721.84 346.87 679.674 330.522 638.899 314.71C567.456 287.004 493.578 258.359 418.027 238.529C347.555 220.036 292.001 215.834 243.22 225.295C209.725 231.792 167.357 247.123 155.713 283.275C146.749 311.139 163.55 343.083 175.82 366.403C177.333 369.281 178.762 371.996 180.058 374.536C192.495 399.046 207.433 421.815 221.877 443.835C231.625 458.702 241.711 474.074 250.797 489.664C285.746 549.311 324.248 635 255.555 690.231C240.2 702.58 221.677 712.431 200.504 719.513C181.051 726.017 159.36 730.195 136.034 731.931C94.1781 735.051 47.7648 730.151 5.34293 718.139C-34.5693 706.836 -68.9698 691.037 -99.8302 669.835C-127.398 650.894 -152.953 626.955 -177.981 596.651L-177.69 596.413C-125.893 659.161 -69.4141 696.579 5.44418 717.775C78.8805 738.57 188.386 743.76 255.318 689.94C323.78 634.886 285.337 549.381 250.467 489.855C241.409 474.281 231.306 458.914 221.557 444.038C207.115 422.007 192.168 399.23 179.719 374.698C178.432 372.163 177.012 369.447 175.482 366.575C169.563 355.319 162.193 341.314 157.537 326.825C152.076 309.84 151.361 295.556 155.349 283.153C167.034 246.827 209.533 231.433 243.131 224.917C248.436 223.897 253.814 223.038 259.266 222.338Z" fill="url(#paint26_linear_335_1398)"/>
<path d="M1619.93 40.9746C1632.85 39.3171 1645.7 37.691 1658.5 36.0963C1667.89 34.9183 1677.59 33.6992 1687.12 32.4907L1687.16 32.8335C1677.64 34.0559 1667.93 35.2636 1658.55 36.4391C1494.16 57.0774 1324.17 78.4193 1177.8 172.918C1133.18 201.659 1094.05 236.386 1056.21 269.972C1027.85 295.136 998.533 321.158 967.474 344.079C936.315 367.063 903.858 380.59 870.986 384.278C852.97 386.3 833.404 385.173 811.174 380.834C791.532 376.999 771.734 371.088 751.49 364.842C699.276 348.75 646.679 328.878 595.811 309.66C532.239 285.633 466.498 260.795 399.828 242.607C352.319 229.646 290.479 215.789 232.319 223.254C231.748 223.327 231.168 223.401 230.58 223.477C199.133 227.748 159.797 239.821 150.913 273.131C143.345 301.538 162.078 334.012 175.755 357.725C177.443 360.655 179.038 363.421 180.5 366.033C193.688 389.601 208.742 412.06 223.306 433.797C234.924 451.127 246.937 469.048 257.792 487.251C273.765 513.947 295.796 554.11 302.672 594.512C306.169 614.969 305.398 633.732 300.424 650.32C294.753 669.228 283.444 685.86 266.802 699.758C251.164 712.91 232.24 723.471 210.555 731.153C190.655 738.199 168.441 742.833 144.523 744.925C101.657 748.685 54.1722 744.1 10.8182 732.042C-28.8563 721.008 -63.3315 704.422 -94.5696 681.341C-122.141 660.968 -147.03 635.87 -172.902 602.355L-172.639 602.144C-118.542 672.225 -63.6486 710.979 10.8999 731.707C86.25 752.663 198.423 756.802 266.567 699.495C297.715 673.479 309.743 638.178 302.319 594.571C295.451 554.221 273.443 514.102 257.484 487.43C246.633 469.235 234.623 451.319 223.006 433.992C208.44 412.261 193.378 389.789 180.185 366.204C178.726 363.592 177.131 360.829 175.44 357.901C161.734 334.135 142.951 301.589 150.568 273.044C154.641 257.745 165.461 245.537 182.725 236.753C195.407 230.303 211.489 225.718 230.521 223.133C256.251 219.633 283.973 219.983 315.252 224.197C340.092 227.545 366.991 233.285 399.906 242.263C466.591 260.455 532.341 285.298 595.927 309.32C646.789 328.535 699.377 348.403 751.585 364.493C795.812 378.125 832.684 388.21 870.94 383.915C903.741 380.239 936.15 366.73 967.262 343.784C998.295 320.884 1027.62 294.866 1055.97 269.706C1093.82 236.102 1132.96 201.377 1177.61 172.621C1212.8 149.915 1249.95 130.856 1291.19 114.34C1327.89 99.6467 1366.99 87.3425 1410.71 76.7255C1479.19 60.0967 1550.19 49.9256 1619.93 40.9746Z" fill="url(#paint27_linear_335_1398)"/>
<path d="M1575.33 30.4967C1604.54 26.7485 1633.66 23.4028 1662.47 20.0938C1672.61 18.929 1683.09 17.737 1693.39 16.5264L1693.43 16.8406C1683.13 18.0406 1672.65 19.2432 1662.51 20.408C1493.01 39.879 1317.74 60.0148 1168.12 156.725C1119.4 188.179 1077.1 227.023 1036.2 264.587C1010.63 288.067 984.191 312.346 956.497 334.522C924.221 360.366 893.108 375.654 861.378 381.266C842.881 384.537 822.932 384.668 800.398 381.666C778.809 378.789 757.616 373.408 739.733 368.526C677.646 351.57 615.82 328.573 556.035 306.336C499.335 285.246 440.704 263.436 381.645 246.675C331.843 232.541 274.017 217.789 217.954 221.665C200.309 222.888 185.634 226.055 174.33 231.077C158.531 238.102 149.026 248.843 146.119 262.997C140.14 291.973 160.735 325.024 175.761 349.161C177.593 352.12 179.33 354.885 180.942 357.538C194.308 379.551 209.007 401.006 223.221 421.758C237.221 442.194 251.699 463.327 264.792 484.843C276.772 504.502 286.252 522.098 293.765 538.645C303.425 559.885 310.012 579.873 313.341 598.049C317.29 619.61 316.823 639.435 311.952 656.977C306.409 676.948 294.998 694.551 278.034 709.295C262.082 723.21 242.736 734.442 220.541 742.717C200.191 750.291 177.449 755.374 152.958 757.82C109.131 762.188 60.5916 757.989 16.2863 745.94C-23.24 735.087 -57.7775 717.699 -89.3042 692.799C-116.576 671.256 -141.53 644.334 -167.836 608.055L-167.57 607.867C-112.181 684.232 -57.1826 725.434 16.375 745.635C58.3194 757.026 111.372 763.117 162.202 756.593C204.948 751.107 246.117 736.708 277.839 709.044C309.621 681.414 321.477 644.085 313.042 598.094C305.183 555.191 281.584 512.99 264.516 484.983C251.427 463.475 236.954 442.353 222.956 421.911C208.739 401.157 194.039 379.696 180.667 357.678C179.055 355.025 177.322 352.245 175.489 349.303C160.423 325.122 139.787 292.01 145.791 262.908C148.734 248.648 158.287 237.832 174.186 230.765C185.519 225.724 200.234 222.549 217.917 221.325C274.039 217.443 331.887 232.205 381.699 246.349C440.762 263.115 499.406 284.923 556.113 306.016C615.895 328.25 677.712 351.245 739.783 368.197C776.584 378.244 819.362 388.346 861.291 380.932C892.968 375.33 924.034 360.062 956.265 334.252C983.951 312.084 1010.39 287.816 1035.96 264.331C1076.88 226.756 1119.19 187.901 1167.93 156.433C1203.89 133.191 1241.94 113.774 1284.26 97.0764C1321.94 82.2374 1362.11 69.8967 1407.1 59.3728C1462.14 46.4952 1518.87 37.7446 1575.33 30.4967Z" fill="url(#paint28_linear_335_1398)"/>
<path d="M1548.51 17.3572C1587.99 12.2887 1627.52 8.14202 1666.46 4.05836C1677.35 2.91648 1688.6 1.73663 1699.65 0.55957L1699.68 0.845227C1688.63 2.02266 1677.38 3.20287 1666.5 4.34402C1491.88 22.657 1311.31 41.594 1158.42 140.527C1105.02 175.085 1059.11 218.803 1014.72 261.081C992.403 282.331 969.329 304.305 945.472 324.978C929.927 338.448 915.62 349.027 901.732 357.305C884.885 367.369 868.528 374.218 851.721 378.243C808.195 388.69 762.698 380.499 727.924 372.195C656.663 355.177 586.574 329.286 518.794 304.246C468.18 285.548 415.843 266.214 363.416 250.727C317.557 237.177 260.479 220.313 205.288 219.83C165.385 219.481 144.445 230.275 141.289 252.832C137.128 282.446 159.568 316.181 175.953 340.814C177.864 343.687 179.666 346.397 181.361 349.017C194.113 368.576 207.736 388.024 220.909 406.822C238.044 431.28 255.765 456.57 271.77 482.408C284.523 502.998 294.674 521.527 302.797 539.048C313.144 561.364 320.283 582.39 324.018 601.557C328.433 624.219 328.257 645.104 323.491 663.599C318.061 684.636 306.556 703.209 289.272 718.805C273.003 733.483 253.237 745.419 230.527 754.281C209.713 762.402 186.453 767.949 161.379 770.769C116.458 775.821 66.8712 771.938 21.763 759.833C-17.6313 749.262 -52.2582 731.111 -84.0543 704.338C-110.978 681.661 -135.985 652.881 -162.755 613.75L-162.517 613.589C-122.528 672.046 -69.3574 735.094 21.8378 759.556C106.941 782.388 222.597 778.574 289.092 718.575C321.512 689.333 333.171 649.976 323.747 601.6C317.099 567.471 300.022 528.53 271.539 482.551C255.539 456.73 237.818 431.42 220.685 406.975C207.511 388.172 193.889 368.727 181.134 349.165C179.43 346.547 177.625 343.837 175.726 340.965C167.253 328.229 157.65 313.793 150.545 298.61C142.281 280.963 139.163 265.971 141.017 252.795C142.885 239.503 151.168 230.08 165.648 224.787C175.705 221.112 188.679 219.395 205.318 219.541C260.549 220.025 317.645 236.895 363.526 250.452C415.959 265.943 468.302 285.279 518.919 303.969C586.692 329.007 656.772 354.896 728.015 371.908C762.762 380.204 808.212 388.389 851.679 377.955C891.596 368.374 924.232 342.989 945.312 324.728C969.164 304.059 992.235 282.088 1014.55 260.839C1058.95 218.554 1104.87 174.826 1158.29 140.254C1195.02 116.48 1234 96.7055 1277.39 79.8183C1316.02 64.7847 1357.28 52.4037 1403.53 41.9695C1450.96 31.3028 1499.7 23.6211 1548.51 17.3572Z" fill="url(#paint29_linear_335_1398)"/>
<defs>
<linearGradient id="paint0_linear_335_1398" x1="-39.4412" y1="509.929" x2="1468.92" y2="150.352" gradientUnits="userSpaceOnUse">
<stop stop-color="#A3A3A3" stop-opacity="0.1"/>
<stop offset="0.605031" stop-color="#F0A5AE" stop-opacity="0.5"/>
<stop offset="0.830684" stop-color="#BD2738"/>
</linearGradient>
<linearGradient id="paint1_linear_335_1398" x1="-39.4412" y1="509.929" x2="1468.92" y2="150.352" gradientUnits="userSpaceOnUse">
<stop stop-color="#A3A3A3" stop-opacity="0.1"/>
<stop offset="0.605031" stop-color="#F0A5AE" stop-opacity="0.5"/>
<stop offset="0.830684" stop-color="#BD2738"/>
</linearGradient>
<linearGradient id="paint2_linear_335_1398" x1="-39.4412" y1="509.929" x2="1468.92" y2="150.352" gradientUnits="userSpaceOnUse">
<stop stop-color="#A3A3A3" stop-opacity="0.1"/>
<stop offset="0.605031" stop-color="#F0A5AE" stop-opacity="0.5"/>
<stop offset="0.830684" stop-color="#BD2738"/>
</linearGradient>
<linearGradient id="paint3_linear_335_1398" x1="-39.4412" y1="509.929" x2="1468.92" y2="150.352" gradientUnits="userSpaceOnUse">
<stop stop-color="#A3A3A3" stop-opacity="0.1"/>
<stop offset="0.605031" stop-color="#F0A5AE" stop-opacity="0.5"/>
<stop offset="0.830684" stop-color="#BD2738"/>
</linearGradient>
<linearGradient id="paint4_linear_335_1398" x1="-39.4412" y1="509.929" x2="1468.92" y2="150.352" gradientUnits="userSpaceOnUse">
<stop stop-color="#A3A3A3" stop-opacity="0.1"/>
<stop offset="0.605031" stop-color="#F0A5AE" stop-opacity="0.5"/>
<stop offset="0.830684" stop-color="#BD2738"/>
</linearGradient>
<linearGradient id="paint5_linear_335_1398" x1="-39.4412" y1="509.929" x2="1468.92" y2="150.352" gradientUnits="userSpaceOnUse">
<stop stop-color="#A3A3A3" stop-opacity="0.1"/>
<stop offset="0.605031" stop-color="#F0A5AE" stop-opacity="0.5"/>
<stop offset="0.830684" stop-color="#BD2738"/>
</linearGradient>
<linearGradient id="paint6_linear_335_1398" x1="-39.4412" y1="509.929" x2="1468.92" y2="150.352" gradientUnits="userSpaceOnUse">
<stop stop-color="#A3A3A3" stop-opacity="0.1"/>
<stop offset="0.605031" stop-color="#F0A5AE" stop-opacity="0.5"/>
<stop offset="0.830684" stop-color="#BD2738"/>
</linearGradient>
<linearGradient id="paint7_linear_335_1398" x1="-39.4412" y1="509.929" x2="1468.92" y2="150.352" gradientUnits="userSpaceOnUse">
<stop stop-color="#A3A3A3" stop-opacity="0.1"/>
<stop offset="0.605031" stop-color="#F0A5AE" stop-opacity="0.5"/>
<stop offset="0.830684" stop-color="#BD2738"/>
</linearGradient>
<linearGradient id="paint8_linear_335_1398" x1="-39.4412" y1="509.929" x2="1468.92" y2="150.352" gradientUnits="userSpaceOnUse">
<stop stop-color="#A3A3A3" stop-opacity="0.1"/>
<stop offset="0.605031" stop-color="#F0A5AE" stop-opacity="0.5"/>
<stop offset="0.830684" stop-color="#BD2738"/>
</linearGradient>
<linearGradient id="paint9_linear_335_1398" x1="-39.4412" y1="509.929" x2="1468.92" y2="150.352" gradientUnits="userSpaceOnUse">
<stop stop-color="#A3A3A3" stop-opacity="0.1"/>
<stop offset="0.605031" stop-color="#F0A5AE" stop-opacity="0.5"/>
<stop offset="0.830684" stop-color="#BD2738"/>
</linearGradient>
<linearGradient id="paint10_linear_335_1398" x1="-39.4412" y1="509.929" x2="1468.92" y2="150.352" gradientUnits="userSpaceOnUse">
<stop stop-color="#A3A3A3" stop-opacity="0.1"/>
<stop offset="0.605031" stop-color="#F0A5AE" stop-opacity="0.5"/>
<stop offset="0.830684" stop-color="#BD2738"/>
</linearGradient>
<linearGradient id="paint11_linear_335_1398" x1="-39.4412" y1="509.929" x2="1468.92" y2="150.352" gradientUnits="userSpaceOnUse">
<stop stop-color="#A3A3A3" stop-opacity="0.1"/>
<stop offset="0.605031" stop-color="#F0A5AE" stop-opacity="0.5"/>
<stop offset="0.830684" stop-color="#BD2738"/>
</linearGradient>
<linearGradient id="paint12_linear_335_1398" x1="-39.4412" y1="509.929" x2="1468.92" y2="150.352" gradientUnits="userSpaceOnUse">
<stop stop-color="#A3A3A3" stop-opacity="0.1"/>
<stop offset="0.605031" stop-color="#F0A5AE" stop-opacity="0.5"/>
<stop offset="0.830684" stop-color="#BD2738"/>
</linearGradient>
<linearGradient id="paint13_linear_335_1398" x1="-39.4412" y1="509.929" x2="1468.92" y2="150.352" gradientUnits="userSpaceOnUse">
<stop stop-color="#A3A3A3" stop-opacity="0.1"/>
<stop offset="0.605031" stop-color="#F0A5AE" stop-opacity="0.5"/>
<stop offset="0.830684" stop-color="#BD2738"/>
</linearGradient>
<linearGradient id="paint14_linear_335_1398" x1="-39.4412" y1="509.929" x2="1468.92" y2="150.352" gradientUnits="userSpaceOnUse">
<stop stop-color="#A3A3A3" stop-opacity="0.1"/>
<stop offset="0.605031" stop-color="#F0A5AE" stop-opacity="0.5"/>
<stop offset="0.830684" stop-color="#BD2738"/>
</linearGradient>
<linearGradient id="paint15_linear_335_1398" x1="-39.4412" y1="509.929" x2="1468.92" y2="150.352" gradientUnits="userSpaceOnUse">
<stop stop-color="#A3A3A3" stop-opacity="0.1"/>
<stop offset="0.605031" stop-color="#F0A5AE" stop-opacity="0.5"/>
<stop offset="0.830684" stop-color="#BD2738"/>
</linearGradient>
<linearGradient id="paint16_linear_335_1398" x1="-39.4412" y1="509.929" x2="1468.92" y2="150.352" gradientUnits="userSpaceOnUse">
<stop stop-color="#A3A3A3" stop-opacity="0.1"/>
<stop offset="0.605031" stop-color="#F0A5AE" stop-opacity="0.5"/>
<stop offset="0.830684" stop-color="#BD2738"/>
</linearGradient>
<linearGradient id="paint17_linear_335_1398" x1="-39.4412" y1="509.929" x2="1468.92" y2="150.352" gradientUnits="userSpaceOnUse">
<stop stop-color="#A3A3A3" stop-opacity="0.1"/>
<stop offset="0.605031" stop-color="#F0A5AE" stop-opacity="0.5"/>
<stop offset="0.830684" stop-color="#BD2738"/>
</linearGradient>
<linearGradient id="paint18_linear_335_1398" x1="-39.4412" y1="509.929" x2="1468.92" y2="150.352" gradientUnits="userSpaceOnUse">
<stop stop-color="#A3A3A3" stop-opacity="0.1"/>
<stop offset="0.605031" stop-color="#F0A5AE" stop-opacity="0.5"/>
<stop offset="0.830684" stop-color="#BD2738"/>
</linearGradient>
<linearGradient id="paint19_linear_335_1398" x1="-39.4412" y1="509.929" x2="1468.92" y2="150.352" gradientUnits="userSpaceOnUse">
<stop stop-color="#A3A3A3" stop-opacity="0.1"/>
<stop offset="0.605031" stop-color="#F0A5AE" stop-opacity="0.5"/>
<stop offset="0.830684" stop-color="#BD2738"/>
</linearGradient>
<linearGradient id="paint20_linear_335_1398" x1="-39.4412" y1="509.929" x2="1468.92" y2="150.352" gradientUnits="userSpaceOnUse">
<stop stop-color="#A3A3A3" stop-opacity="0.1"/>
<stop offset="0.605031" stop-color="#F0A5AE" stop-opacity="0.5"/>
<stop offset="0.830684" stop-color="#BD2738"/>
</linearGradient>
<linearGradient id="paint21_linear_335_1398" x1="-39.4412" y1="509.929" x2="1468.92" y2="150.352" gradientUnits="userSpaceOnUse">
<stop stop-color="#A3A3A3" stop-opacity="0.1"/>
<stop offset="0.605031" stop-color="#F0A5AE" stop-opacity="0.5"/>
<stop offset="0.830684" stop-color="#BD2738"/>
</linearGradient>
<linearGradient id="paint22_linear_335_1398" x1="-39.4412" y1="509.929" x2="1468.92" y2="150.352" gradientUnits="userSpaceOnUse">
<stop stop-color="#A3A3A3" stop-opacity="0.1"/>
<stop offset="0.605031" stop-color="#F0A5AE" stop-opacity="0.5"/>
<stop offset="0.830684" stop-color="#BD2738"/>
</linearGradient>
<linearGradient id="paint23_linear_335_1398" x1="-39.4412" y1="509.929" x2="1468.92" y2="150.352" gradientUnits="userSpaceOnUse">
<stop stop-color="#A3A3A3" stop-opacity="0.1"/>
<stop offset="0.605031" stop-color="#F0A5AE" stop-opacity="0.5"/>
<stop offset="0.830684" stop-color="#BD2738"/>
</linearGradient>
<linearGradient id="paint24_linear_335_1398" x1="-39.4412" y1="509.929" x2="1468.92" y2="150.352" gradientUnits="userSpaceOnUse">
<stop stop-color="#A3A3A3" stop-opacity="0.1"/>
<stop offset="0.605031" stop-color="#F0A5AE" stop-opacity="0.5"/>
<stop offset="0.830684" stop-color="#BD2738"/>
</linearGradient>
<linearGradient id="paint25_linear_335_1398" x1="-39.4412" y1="509.929" x2="1468.92" y2="150.352" gradientUnits="userSpaceOnUse">
<stop stop-color="#A3A3A3" stop-opacity="0.1"/>
<stop offset="0.605031" stop-color="#F0A5AE" stop-opacity="0.5"/>
<stop offset="0.830684" stop-color="#BD2738"/>
</linearGradient>
<linearGradient id="paint26_linear_335_1398" x1="-39.4412" y1="509.929" x2="1468.92" y2="150.352" gradientUnits="userSpaceOnUse">
<stop stop-color="#A3A3A3" stop-opacity="0.1"/>
<stop offset="0.605031" stop-color="#F0A5AE" stop-opacity="0.5"/>
<stop offset="0.830684" stop-color="#BD2738"/>
</linearGradient>
<linearGradient id="paint27_linear_335_1398" x1="-39.4412" y1="509.929" x2="1468.92" y2="150.352" gradientUnits="userSpaceOnUse">
<stop stop-color="#A3A3A3" stop-opacity="0.1"/>
<stop offset="0.605031" stop-color="#F0A5AE" stop-opacity="0.5"/>
<stop offset="0.830684" stop-color="#BD2738"/>
</linearGradient>
<linearGradient id="paint28_linear_335_1398" x1="-39.4412" y1="509.929" x2="1468.92" y2="150.352" gradientUnits="userSpaceOnUse">
<stop stop-color="#A3A3A3" stop-opacity="0.1"/>
<stop offset="0.605031" stop-color="#F0A5AE" stop-opacity="0.5"/>
<stop offset="0.830684" stop-color="#BD2738"/>
</linearGradient>
<linearGradient id="paint29_linear_335_1398" x1="-39.4412" y1="509.929" x2="1468.92" y2="150.352" gradientUnits="userSpaceOnUse">
<stop stop-color="#A3A3A3" stop-opacity="0.1"/>
<stop offset="0.605031" stop-color="#F0A5AE" stop-opacity="0.5"/>
<stop offset="0.830684" stop-color="#BD2738"/>
</linearGradient>
</defs>
</svg>
