<svg width="1440" height="874" viewBox="0 0 1440 874" fill="none" xmlns="http://www.w3.org/2000/svg">
<path d="M1948.98 0.887488C1815.35 23.7017 1383.93 -40.4072 1161.81 55.4518C916.748 161.213 764.178 579.493 519.39 720.126C274.602 860.758 -238.843 894.852 -509.969 859.954M1902.93 184.851C1972.69 379.624 1923.04 757.523 1494.44 756.91C958.689 756.142 514.822 453.212 155.792 458.632C-203.237 464.052 -470.421 683.595 -529.128 763.61M1914.18 177.36C1974.25 363.945 1906.42 720.796 1487.65 724.776C965.747 729.082 535.752 460.495 182.162 472.353C-171.428 484.212 -450.338 694.924 -519.16 769.467M1924.07 169.678C1974.46 348.074 1888.45 683.878 1479.51 692.452C971.449 701.83 555.325 467.587 207.175 485.884C-140.974 504.181 -431.612 706.062 -510.549 775.133M1932.5 161.793C1973.21 332.001 1869.02 646.756 1469.92 659.924C975.692 674.375 573.44 474.475 230.73 499.211C-111.979 523.947 -414.343 716.997 -503.396 780.596M1939.41 153.693C1970.43 315.712 1848.06 609.42 1458.79 627.182C978.411 646.705 590.03 481.149 252.76 512.323C-84.275 543.476 -398.164 727.462 -497.561 785.723L-497.767 785.844M1944.78 145.379C1966.12 299.209 1825.57 571.869 1446.13 594.224C979.592 618.821 605.082 487.608 273.252 525.221C-58.5771 562.834 -384.395 738.223 -493.677 790.878M1948.66 136.854C1960.31 282.496 1801.58 534.108 1431.98 561.057C979.28 590.727 618.641 493.857 292.252 537.909C-34.1376 581.961 -371.682 748.518 -491.08 795.701M1951.15 128.136C1953.11 265.589 1776.2 496.153 1416.43 527.696C977.577 562.438 630.809 499.912 309.86 550.403C-11.0887 600.893 -360.36 758.62 -489.873 800.331M1952.39 119.242C1944.66 248.507 1749.58 458.023 1399.64 494.16C974.626 533.975 641.73 505.792 326.22 562.721C10.7115 619.65 -350.287 768.546 -489.915 804.785M1952.54 110.196C1935.13 231.272 1721.87 419.74 1381.76 460.471C970.59 505.359 651.565 511.519 341.496 574.887C31.4269 638.255 -341.298 778.32 -491.041 809.087M1952.24 101.087C1925.15 213.975 1693.71 381.394 1363.43 426.72C966.103 476.681 660.949 517.184 356.32 586.991C51.6913 656.797 -332.76 788.031 -492.619 813.326M1951.95 91.9776C1915.17 196.677 1665.54 343.048 1345.1 392.968C966.997 447.229 678.526 520.752 383.735 595.885L371.145 599.093C71.9564 675.339 -324.222 797.742 -494.196 817.565M1951.65 82.8689C1905.19 179.38 1637.38 304.703 1326.77 359.217C957.13 419.323 679.718 528.513 385.969 611.197C92.2209 693.881 -315.684 807.453 -495.773 821.804M1951.35 73.7594C1895.2 162.082 1609.22 266.357 1308.44 325.465C952.643 390.644 689.102 534.177 400.794 623.3C112.485 712.422 -307.146 817.164 -497.351 826.042M1951.06 64.6507C1885.22 144.785 1581.06 228.012 1290.11 291.713C948.156 361.965 698.487 539.842 415.618 635.403C132.75 730.965 -298.609 826.875 -498.928 830.282M1950.76 55.542C1875.24 127.487 1552.9 189.667 1271.79 257.962C943.669 333.287 707.871 545.507 430.443 647.507C153.015 749.507 -290.07 836.586 -500.505 834.521M1950.46 46.4326C1865.26 110.189 1524.74 151.321 1253.46 224.21C939.182 304.607 717.256 551.171 445.268 659.609C173.279 768.048 -281.533 846.297 -502.083 838.76M1950.17 37.3238C1855.27 92.8921 1496.58 112.975 1235.13 190.459C934.695 275.929 726.64 556.835 460.092 671.713C193.544 786.591 -272.995 856.008 -503.66 842.999M1949.87 28.2144C1845.29 75.5941 1468.41 74.6293 1216.8 156.706C930.209 247.25 736.024 562.499 474.916 683.816C213.808 805.132 -264.457 865.719 -505.238 847.237M1949.57 19.1057C1835.31 58.2969 1440.25 36.2841 1198.47 122.955C925.722 218.571 745.409 568.164 489.741 695.919C234.073 823.674 -255.919 875.43 -506.814 851.477M1949.28 9.99622C1825.33 40.9989 1412.09 -2.06193 1180.14 89.2031C921.235 189.892 754.793 573.828 504.566 708.022C254.338 842.216 -247.381 885.141 -508.392 855.715" stroke="url(#paint0_linear_335_1785)"/>
<defs>
<linearGradient id="paint0_linear_335_1785" x1="3.49989" y1="727.5" x2="1350.45" y2="-257.707" gradientUnits="userSpaceOnUse">
<stop stop-color="#A3A3A3" stop-opacity="0.1"/>
<stop offset="0.336352" stop-color="#F0A5AE" stop-opacity="0.5"/>
<stop offset="0.830684" stop-color="#BD2738"/>
</linearGradient>
</defs>
</svg>
