<svg width="265" height="1145" viewBox="0 0 265 1145" fill="none" xmlns="http://www.w3.org/2000/svg">
<path d="M429.893 249.961C374.188 343.715 366.816 415.472 287.251 490.031C184.472 586.346 55.9727 574.16 17.5203 659.414C-20.932 744.669 10.8598 839.022 80.6205 927.492C150.381 1015.96 202.785 1003.99 371.236 1013.3C403.119 1015.06 421.118 1015.06 453 1013.3M290.806 1C192.758 186.249 6.37722 268.417 39.7387 475.361C57.8376 587.629 188.133 562.341 213.486 673.196C227.617 734.982 216.981 875.252 235.26 935.939C274.599 1066.54 304.014 1101.13 433.448 1144M423.27 238.106C367.883 331.806 357.476 403.329 279.096 477.651C178.607 572.692 54.4053 564.528 18.5784 650.65C-17.181 737.191 19.3013 825.847 86.9474 915.383C154.059 1002.58 203.461 997.86 364.761 1009.61C396.999 1017.51 415.542 1019.16 452.069 1019.52M416.647 226.251C361.578 319.896 348.136 391.187 270.941 465.271C172.742 559.038 52.838 554.896 19.6364 641.885C-13.4301 729.713 27.743 812.672 93.2744 903.274C157.737 989.203 204.137 991.73 358.286 1005.93C390.879 1019.96 409.965 1023.25 451.138 1025.74M410.023 214.396C355.273 307.988 338.796 379.044 262.786 452.891C166.877 545.384 51.2706 545.264 20.6944 633.121C-9.67918 722.235 36.1845 799.496 99.6013 891.164C161.415 975.823 204.813 985.599 351.811 1002.24C384.759 1022.41 404.389 1027.35 450.207 1031.97M403.4 202.54C348.968 296.079 329.456 366.902 254.631 440.51C161.013 531.73 49.7032 535.632 21.7524 624.356C-5.92826 714.757 44.6261 786.321 105.928 879.055C165.093 962.443 205.489 979.469 345.336 998.561C378.639 1024.86 398.812 1031.45 449.276 1038.19M396.777 190.685C342.663 284.169 320.116 354.759 246.476 428.13C155.148 518.076 48.1358 526 22.8104 615.592C-2.17731 707.278 53.0676 773.146 112.255 866.946C168.771 949.062 206.165 973.338 338.861 994.877C372.519 1027.32 393.236 1035.55 448.345 1044.42M390.154 178.83C336.358 272.26 310.776 342.617 238.32 415.75C149.283 504.422 46.5685 516.368 23.8684 606.827C1.57361 699.8 61.5092 759.97 118.582 854.836C172.449 935.683 206.841 967.208 332.386 991.193C366.399 1029.77 387.66 1039.65 447.414 1050.64M383.531 166.974C330.053 260.351 301.436 330.474 230.165 403.369C143.419 490.768 45.0011 506.736 24.9265 598.063C5.32456 692.322 69.9508 746.795 124.909 842.727C176.127 922.303 207.517 961.078 325.911 987.51C360.279 1032.22 382.083 1043.75 446.483 1056.86M376.907 155.119C323.748 248.442 292.095 318.331 222.01 390.989C137.554 477.113 43.4337 497.104 25.9844 589.298C9.07545 684.844 78.3924 733.62 131.236 830.618L131.482 831.014C179.9 909.078 208.381 954.996 319.436 983.826C354.159 1034.67 376.507 1047.85 445.552 1063.09M370.284 143.264C317.442 236.533 282.755 306.189 213.855 378.609C131.689 463.459 41.8663 487.472 27.0425 580.534C12.8264 677.366 86.8339 720.445 137.563 818.508C183.482 895.543 208.869 948.817 312.961 980.143C348.039 1037.12 370.931 1051.95 444.62 1069.31M363.661 131.408C311.137 224.624 273.415 294.047 205.7 366.228C125.825 449.806 40.299 477.84 28.1005 571.77C16.5773 669.888 95.2755 707.269 143.89 806.399C187.16 882.163 209.545 942.686 306.486 976.459C341.919 1039.57 365.354 1056.04 443.689 1075.54M357.038 119.553C304.832 212.715 264.075 281.904 197.545 353.848C119.96 436.151 38.7316 468.208 29.1585 563.005C20.3283 662.41 103.717 694.094 150.217 794.289C190.838 868.782 210.221 936.556 300.011 972.775C335.799 1042.03 359.778 1060.14 442.758 1081.76M350.415 107.698C298.527 200.806 254.735 269.762 189.39 341.468C114.095 422.497 37.1643 458.576 30.2166 554.241C24.0792 654.932 112.159 680.919 156.544 782.18C194.516 855.403 210.897 930.425 293.536 969.092C329.679 1044.48 354.202 1064.24 441.827 1087.98M343.792 95.8425C292.222 188.897 245.395 257.619 181.235 329.088C108.23 408.843 35.5969 448.944 31.2746 545.476C27.8302 647.454 120.6 667.744 162.871 770.071C198.194 842.023 211.573 924.295 287.061 965.408C323.559 1046.93 348.625 1068.34 440.896 1094.21M337.168 83.9871C285.917 176.988 236.055 245.476 173.08 316.707C102.366 395.189 34.0295 439.312 32.3326 536.712C31.5811 639.976 129.042 654.568 169.198 757.961C201.872 828.642 212.249 918.165 280.586 961.725C317.439 1049.38 343.049 1072.44 439.965 1100.43M330.545 72.1319C279.612 165.079 226.715 233.334 164.924 304.327C96.501 381.535 32.4622 429.68 33.3906 527.947C35.332 632.498 137.483 641.393 175.525 745.852C205.55 815.263 212.925 912.034 274.111 958.041C311.319 1051.83 337.473 1076.54 439.034 1106.66M323.922 60.2766C273.307 153.17 217.375 221.192 156.769 291.947C90.6363 367.881 30.8948 420.049 34.4486 519.183C39.0829 625.02 145.925 628.218 181.851 733.743C209.228 801.883 213.601 905.904 267.635 954.357C305.199 1054.28 331.896 1080.64 438.103 1112.88M317.299 48.4212C267.002 141.261 208.035 209.049 148.614 279.566C84.7716 354.227 29.3274 410.416 35.5066 510.418C42.8339 617.542 154.367 615.042 188.178 721.633C212.906 788.502 214.277 899.773 261.16 950.674C299.079 1056.74 326.32 1084.74 437.172 1119.1M310.676 36.5659C260.697 129.352 198.695 196.906 140.459 267.186L139.2 268.687C78.2116 341.397 27.8202 401.473 36.5647 501.654C46.5848 610.064 162.808 601.867 194.505 709.524C216.584 775.122 214.953 893.643 254.685 946.99C292.959 1059.19 320.744 1088.83 436.241 1125.33M304.052 24.7107C254.392 117.443 189.355 184.764 132.304 254.806C73.0422 326.919 26.1927 391.153 37.6226 492.89C50.3357 602.586 171.25 588.692 200.832 697.415C220.261 761.743 215.629 887.513 248.21 943.307C286.839 1061.64 315.167 1092.93 435.31 1131.55M297.429 12.8552C248.087 105.534 180.015 172.621 124.149 242.425C67.1775 313.265 24.6253 381.521 38.6807 484.125C54.0867 595.107 179.691 575.516 207.159 685.305C223.939 748.362 216.305 881.382 241.735 939.623C280.719 1064.09 309.591 1097.03 434.379 1137.78" stroke="url(#paint0_linear_466_906)"/>
<defs>
<linearGradient id="paint0_linear_466_906" x1="195.711" y1="159.268" x2="570.704" y2="437.173" gradientUnits="userSpaceOnUse">
<stop stop-color="#A3A3A3" stop-opacity="0.1"/>
<stop offset="0.605031" stop-color="#F0A5AE" stop-opacity="0.5"/>
<stop offset="0.830684" stop-color="#BD2738"/>
</linearGradient>
</defs>
</svg>
