<svg width="80" height="42" viewBox="0 0 80 42" fill="none" xmlns="http://www.w3.org/2000/svg">
<g clip-path="url(#clip0_193_284)">
<path d="M22.1286 8.75312C21.8414 9.12296 21.6954 9.58301 21.7167 10.0508C21.738 10.5185 21.9253 10.9634 22.2449 11.3056C23.6447 12.8132 24.5741 14.6965 24.9193 16.7246C25.2644 18.7526 25.0101 20.8373 24.1878 22.723C23.3654 24.6087 22.0106 26.2135 20.2895 27.3405C18.5684 28.4675 16.5559 29.0679 14.4986 29.0679C12.4413 29.0679 10.4287 28.4675 8.70765 27.3405C6.98657 26.2135 5.63178 24.6087 4.8094 22.723C3.98702 20.8373 3.7328 18.7526 4.07791 16.7246C4.42302 14.6965 5.35245 12.8132 6.75225 11.3056C7.07215 10.9636 7.25958 10.5186 7.2809 10.0508C7.30221 9.58296 7.156 9.12284 6.86854 8.75312C6.69222 8.52872 6.46922 8.34535 6.21498 8.21571C5.96074 8.08607 5.68135 8.01326 5.39618 8.00234C5.11101 7.99141 4.82687 8.04262 4.56346 8.15243C4.30004 8.26224 4.06366 8.42801 3.87069 8.63825C1.95149 10.7066 0.677497 13.29 0.204867 16.0717C-0.267764 18.8534 0.0815083 21.7126 1.20987 24.2987C2.33824 26.8849 4.19666 29.0856 6.55733 30.6312C8.918 32.1768 11.6783 33 14.5 33C17.3216 33 20.082 32.1768 22.4427 30.6312C24.8033 29.0856 26.6618 26.8849 27.7901 24.2987C28.9185 21.7126 29.2678 18.8534 28.7951 16.0717C28.3225 13.29 27.0485 10.7066 25.1293 8.63825C24.9362 8.42773 24.6996 8.26174 24.436 8.15177C24.1723 8.04181 23.8879 7.99051 23.6024 8.00144C23.3169 8.01237 23.0372 8.08526 22.7828 8.21505C22.5283 8.34485 22.3051 8.52845 22.1286 8.75312Z" fill="white"/>
<path d="M15.35 0H14.65C13.7387 0 13 0.749832 13 1.6748V9.3252C13 10.2502 13.7387 11 14.65 11H15.35C16.2613 11 17 10.2502 17 9.3252V1.6748C17 0.749832 16.2613 0 15.35 0Z" fill="white"/>
<path d="M26.5 32C27.3284 32 28 31.3284 28 30.5C28 29.6716 27.3284 29 26.5 29C25.6716 29 25 29.6716 25 30.5C25 31.3284 25.6716 32 26.5 32Z" fill="white"/>
<path d="M32 42C35.3137 42 38 39.3137 38 36C38 32.6863 35.3137 30 32 30C28.6863 30 26 32.6863 26 36C26 39.3137 28.6863 42 32 42Z" fill="white"/>
<path d="M44.6524 10.9655H41.9257V17.8862H39.9784V10.9655H37.2639V9.35645H44.6524V10.9655Z" fill="white"/>
<path d="M51.8145 16.3048V17.8896H45.2174V9.35645H51.6556V10.9413H47.1768V12.7943H51.1337V14.3289H47.1768V16.3048H51.8145Z" fill="white"/>
<path d="M54.5187 9.35645L56.2846 11.9413L58.0488 9.35645H60.3555L57.5183 13.4396L60.5853 17.8896H58.2682L56.2846 15.0608L54.3234 17.8896H52.0478L55.0906 13.5261L52.243 9.35645H54.5187Z" fill="white"/>
<path d="M45.029 19.3711V27.9025H43.0765V20.9819H39.2233V27.9025H37.2639V19.3711H45.029Z" fill="white"/>
<path d="M53.183 22.4664C53.183 24.3695 51.7592 25.5495 49.4818 25.5495H47.766V27.9025H45.7945V19.3711H49.4818C51.7592 19.3711 53.183 20.5528 53.183 22.4664ZM51.1873 22.4664C51.1873 21.5269 50.579 20.9784 49.373 20.9784H47.766V23.9405H49.373C50.579 23.9405 51.1873 23.3885 51.1873 22.4664Z" fill="white"/>
<path d="M58.4756 26.0737H54.5204L53.7653 27.9025H51.7454L55.5468 19.3711H57.4941L61.3042 27.9025H59.2307L58.4756 26.0737ZM57.8553 24.5754L56.5041 21.3123L55.1528 24.5789L57.8553 24.5754Z" fill="white"/>
<path d="M61.7551 19.3706H63.7146V24.9279L67.7855 19.3706H69.6361V27.902H67.6835V22.35L63.6178 27.8969H61.7551V19.3706ZM63.3258 16.957H64.6753C64.6874 17.5418 65.0209 17.8463 65.6861 17.8463C66.3513 17.8463 66.6831 17.5418 66.6952 16.957H68.0464C68.0343 18.1508 67.2792 18.8204 65.6861 18.8204C64.093 18.8204 63.3379 18.1508 63.3258 16.957Z" fill="white"/>
<path d="M78.1529 27.9025L78.1408 22.7951L75.6336 26.9994H74.7576L72.2504 22.892V27.9095H70.3964V19.3711H72.0275L75.2155 24.6723L78.3568 19.3711H79.9879L80 27.9025H78.1529Z" fill="white"/>
</g>
<defs>
<clipPath id="clip0_193_284">
<rect width="80" height="42" fill="white"/>
</clipPath>
</defs>
</svg>
