<svg width="80" height="80" viewBox="0 0 80 80" fill="none" xmlns="http://www.w3.org/2000/svg">
<path d="M74.791 59.8343C77.8568 59.8343 80 57.6899 80 54.6225V31.417C80 28.3496 77.8568 26.2085 74.791 26.2085H73.513L72.2653 26.2091V21.363C72.2653 19.8496 70.8869 18.4737 69.3775 18.4737H64.5373L64.5379 8.21178C64.5379 5.14437 62.3947 3 59.3289 3H20.6745C17.6053 3 15.462 5.14437 15.462 8.21178V18.4702H10.6224C9.11312 18.4702 7.73461 19.8494 7.73461 21.3596V26.2051L5.20902 26.2056C2.14323 26.2056 0 28.3467 0 31.4141V54.6196C0 57.687 2.14323 59.8314 5.20902 59.8314H11.4978H11.5046H11.5113H18.9776V70.7915C18.9776 73.8589 21.1208 76 24.1866 76H55.8118C58.8776 76 61.0209 73.8589 61.0209 70.7915V59.8314H68.6343H68.641H68.6478H69.0032L74.7912 59.8302L74.791 59.8343ZM18.1484 8.21266C18.1484 6.63235 19.0912 5.68572 20.674 5.68572H59.3255C60.905 5.68572 61.8478 6.63179 61.8478 8.21266V18.4711H18.148L18.1484 8.21266ZM14.2841 21.156H63.1889L69.5749 21.3638V26.2093L10.4599 26.2099L10.6211 21.1593H14.2833L14.2841 21.156ZM2.68621 54.6231V31.4176C2.68621 29.8373 3.62898 28.894 5.2085 28.894H74.7881C76.3676 28.894 77.3104 29.8372 77.3104 31.4176V54.6231C77.3104 56.2034 76.3676 57.15 74.7881 57.15H69.9856V49.8612C69.9856 47.1796 67.8221 45.0022 65.169 45.0022L14.9762 45.0016C12.3231 45.0016 10.1631 47.1798 10.1631 49.8606V57.1494L5.20951 57.15C3.63277 57.15 2.68722 56.2034 2.68722 54.6231H2.68621ZM59.6781 53.7236C58.9369 53.7236 58.3367 54.3242 58.3367 55.0658V58.4753C58.3367 58.4821 58.3333 58.4854 58.3333 58.4922C58.3333 58.4989 58.3367 58.5023 58.3367 58.509V70.7951C58.3367 72.3754 57.3939 73.3187 55.8144 73.3187L24.1891 73.3181C22.6097 73.3181 21.6668 72.3749 21.6668 70.7945V58.5085C21.6668 58.5017 21.6702 58.4984 21.6702 58.4916C21.6702 58.4849 21.6668 58.4815 21.6668 58.4748V55.0652C21.6668 54.3236 21.0632 53.7231 20.3254 53.7231C19.5876 53.7231 18.984 54.3236 18.984 55.0652V57.1489L12.849 57.15V49.8612C12.849 48.6634 13.8013 47.6864 14.9754 47.6864H65.1724C66.3499 47.6864 67.3022 48.6629 67.3022 49.8612V57.15H61.0234V55.0663C61.02 54.3242 60.4164 53.7236 59.6786 53.7236L59.6781 53.7236Z" fill="#BD2738"/>
<path d="M51.2814 58.3804H28.712C27.9709 58.3804 27.3706 58.9809 27.3706 59.7225C27.3706 60.4641 27.9742 61.0646 28.712 61.0646H51.2814C52.0226 61.0646 52.6228 60.4641 52.6228 59.7225C52.6228 58.9809 52.0186 58.3804 51.2808 58.3804H51.2814Z" fill="#BD2738"/>
<path d="M51.2814 65.5225H28.712C27.9709 65.5225 27.3706 66.123 27.3706 66.8646C27.3706 67.6062 27.9742 68.2067 28.712 68.2067H51.2814C52.0226 68.2067 52.6228 67.6062 52.6228 66.8646C52.6228 66.123 52.0186 65.5225 51.2808 65.5225H51.2814Z" fill="#BD2738"/>
<path d="M10.9326 35.5915C11.6738 35.5915 12.274 34.9909 12.274 34.2494C12.274 33.5078 11.6704 32.9072 10.9326 32.9072H8.35021C7.60904 32.9072 7.00879 33.5078 7.00879 34.2494C7.00879 34.9909 7.6124 35.5915 8.35021 35.5915H10.9326Z" fill="#BD2738"/>
<path d="M16.0441 35.5915H18.6264C19.3676 35.5915 19.9679 34.9909 19.9679 34.2494C19.9679 33.5078 19.3642 32.9072 18.6264 32.9072H16.0441C15.3029 32.9072 14.7026 33.5078 14.7026 34.2494C14.7026 34.9909 15.3029 35.5915 16.0441 35.5915Z" fill="#BD2738"/>
<path d="M69.5086 41.431C72.192 41.431 74.375 39.2462 74.375 36.5619C74.375 33.8771 72.1914 31.6929 69.5086 31.6929C66.8251 31.6929 64.6421 33.8777 64.6421 36.5619C64.6421 39.2462 66.8292 41.431 69.5086 41.431ZM69.5086 34.377C70.7091 34.377 71.6889 35.3568 71.6889 36.5618C71.6889 37.7663 70.7096 38.7466 69.5086 38.7466C68.3081 38.7466 67.3282 37.7668 67.3282 36.5618C67.3288 35.3567 68.3081 34.377 69.5086 34.377Z" fill="#BD2738"/>
</svg>
