<svg width="1440" height="844" viewBox="0 0 1440 844" fill="none" xmlns="http://www.w3.org/2000/svg">
<g clip-path="url(#clip0_160_321)">
<path opacity="0.8" d="M1673.36 536.816C1412.69 519.08 1263.16 525.434 1004.94 565.22C714.245 610.008 574.37 758.073 280.548 771.348C13.9116 783.396 -145.296 756.867 -393.619 659.012M1705.38 48.2727C1533.81 163.363 1410.55 208.127 1206.82 242.666C985.606 280.324 842.81 273.672 627.318 204.666C485.648 163.36 429.436 72.9245 286.419 58.8952C99.5732 38.1318 -183.702 217.819 -183.702 217.819L-492.77 394.009M1703.27 55.3221C1532.5 168.006 1410.41 214.171 1208.65 248.124C989.749 285.136 844.826 278.558 631.011 211.277C489.27 171.207 434.206 81.4169 291.868 68.519C106.318 58.8952 -9.64865 133.601 -176.181 226.129C-310.028 287.651 -382.825 326.328 -492.334 396.721M1702.26 64.6907C1532.33 174.85 1410.65 219.997 1210.96 253.335C994.476 289.668 850.446 283.467 638.39 217.997C496.573 179.224 440.418 92.3001 298.793 80.5897C115.081 62.4131 -0.957412 146.078 -167.083 236.822C-303.687 297.316 -378.279 334.639 -490.672 401.536M1701.62 75.1778C1532.57 182.694 1411.31 226.774 1213.78 259.468C999.84 295.091 856.745 289.284 646.532 225.71C504.637 188.295 447.337 104.373 306.459 93.9061C124.428 77.1167 8.5583 159.819 -157.14 248.695C-296.633 308.113 -373.104 344.017 -488.516 407.256M1700.95 86.1356C1532.82 190.889 1412.01 233.855 1216.74 265.877C1005.45 300.757 863.328 295.361 655.04 233.768C513.063 197.774 454.569 116.988 314.47 107.821C134.196 92.481 18.5026 174.177 -146.75 261.101C-289.261 319.395 -367.696 353.817 -486.263 413.232M1700.25 97.5664C1533.07 199.438 1412.73 241.242 1219.82 272.561C1011.29 306.667 870.195 301.701 663.914 242.175C521.852 207.661 462.111 130.148 322.825 122.336C144.384 108.508 28.8752 189.155 -135.912 274.042C-281.571 331.163 -362.055 364.04 -483.913 419.465M1699.52 109.47C1533.34 208.34 1413.48 248.935 1223.03 279.523C1017.38 312.822 877.344 308.303 673.155 250.93C531.004 217.958 469.965 143.851 331.526 137.451C154.992 125.197 39.6757 204.752 -124.627 287.519C-273.564 343.418 -356.182 374.685 -481.467 425.957M1698.76 121.845C1533.62 217.596 1414.26 256.932 1226.36 286.761C1023.71 319.221 884.778 315.167 682.763 260.031C540.519 228.663 478.131 158.098 340.572 153.165C166.023 142.549 50.9054 220.968 -112.894 301.53C-265.24 356.16 -350.075 385.753 -478.923 432.706M1697.97 134.693C1533.92 227.204 1415.07 265.235 1229.83 294.274C1030.29 325.864 892.496 322.293 692.738 269.48C550.399 239.776 486.609 172.889 349.965 169.479C177.474 160.562 62.5644 237.802 -100.712 316.076C-253.69 368.393 -340.462 396.195 -468.915 437.352C-597.369 478.509 -476.281 439.712 -476.281 439.712M1697.16 148.012C1534.22 237.165 1415.92 273.842 1233.42 302.063C1037.1 332.751 900.497 329.68 703.079 279.275C560.64 251.297 495.398 188.222 359.701 186.392C189.346 179.237 74.6508 255.255 -88.0834 331.155C-247.636 383.099 -337.161 409.154 -473.543 446.976M1696.31 161.805C1534.53 247.481 1416.79 282.756 1237.14 310.13C1044.15 339.883 908.782 337.33 713.787 289.419C571.245 263.228 504.498 204.101 369.783 203.906C201.639 198.576 87.1661 273.327 -75.0068 346.771C-238.358 397.3 -330.356 421.489 -470.708 454.498M1695.44 176.068C1534.85 258.148 1417.69 291.973 1240.98 318.472C1051.45 347.259 917.35 345.241 724.861 299.909C582.212 275.566 513.911 220.522 380.21 222.019C214.352 218.575 100.109 292.018 -61.4829 362.92C-228.763 411.985 -323.316 434.245 -467.776 462.277M1694.54 190.805C1535.19 269.17 1418.62 301.497 1244.95 327.09C1058.99 354.878 926.202 353.415 736.302 310.747C593.543 288.313 523.634 237.487 390.982 240.731C227.486 239.237 113.481 311.327 -47.5115 379.605C-218.85 427.157 -316.045 447.424 -464.747 470.313M1693.61 206.014C1535.53 280.545 1419.58 311.326 1249.05 335.985C1066.77 362.743 935.338 361.851 748.111 321.933C605.238 301.47 533.67 254.997 402.101 260.045C241.042 260.562 127.283 331.256 -33.0909 396.824C-208.618 442.817 -308.539 461.027 -461.62 478.608M1692.65 221.695C1535.89 292.272 1420.57 321.459 1253.28 345.155C1074.79 370.851 944.757 370.548 760.284 333.465C617.294 315.033 544.016 273.049 413.562 279.956C255.018 282.547 141.511 351.802 -18.2246 414.577C-198.071 458.96 -300.802 475.05 -458.398 487.159M1691.66 237.848C1536.25 304.353 1421.59 331.898 1257.64 354.602C1083.05 379.203 954.46 379.507 772.825 345.345C629.714 329.006 554.675 291.645 425.371 300.467C269.415 305.195 156.169 372.968 -2.90897 432.865C-187.204 475.591 -292.83 489.496 -455.077 495.968M1690.64 254.474C1536.63 316.787 1422.64 342.642 1262.12 364.326C1091.56 387.8 964.447 388.729 785.733 357.572C642.497 343.387 565.646 310.785 437.524 321.579C284.233 328.507 171.255 394.754 12.8539 451.689C-176.02 492.708 -284.626 504.365 -451.659 505.036M1689.59 271.572C1537.02 329.575 1423.72 353.692 1266.73 374.325C1100.3 396.641 974.718 398.212 799.008 370.147C655.645 358.177 576.928 330.469 450.023 343.291C299.473 352.479 186.771 417.157 29.0651 471.047C-164.518 510.312 -276.188 519.656 -448.144 514.36M1688.52 289.142C1537.41 342.715 1424.83 365.046 1271.46 384.6C1109.29 405.726 985.272 407.957 812.648 383.069C669.153 373.375 588.521 350.696 462.866 365.601C315.133 377.114 202.713 440.179 45.7229 490.939C-152.699 528.401 -267.518 535.369 -444.533 523.942M1687.41 307.183C1537.82 356.208 1425.97 376.705 1276.33 395.151C1118.52 415.055 996.11 417.963 826.656 396.337C683.026 388.981 600.426 371.466 476.055 388.51C331.214 402.41 219.086 463.82 62.8294 511.365C-140.562 546.976 -258.614 551.503 -440.824 533.781M1686.28 325.699C1538.24 370.055 1427.14 388.67 1281.32 405.98C1127.99 424.629 1007.23 428.233 841.03 409.955C697.262 404.997 612.644 392.782 489.589 412.021C347.716 428.37 235.886 488.08 80.3835 532.327C-128.107 566.038 -249.478 568.062 -437.018 543.879M1685.12 344.685C1538.67 384.255 1428.34 400.94 1286.44 417.084C1137.7 434.446 1018.64 438.763 855.771 423.918C711.862 421.42 625.172 414.64 503.469 436.131C364.639 454.991 253.116 512.959 98.3855 553.823C-115.335 585.586 -240.108 585.042 -433.114 554.233M1683.93 364.143C1539.11 398.807 1429.57 413.514 1291.68 428.463C1147.66 444.507 1030.33 449.555 870.878 438.228C726.823 438.251 638.012 437.04 517.693 460.839C381.982 482.273 270.772 538.455 116.834 575.853C-102.245 605.619 -230.506 602.443 -429.115 564.844M1682.71 384.074C1539.57 413.714 1430.83 426.395 1297.06 440.119C1157.85 454.813 1042.3 460.61 886.353 452.886C742.149 455.492 651.164 459.986 532.263 486.148C399.747 510.218 288.859 564.571 135.732 598.419C-88.8369 626.139 -220.67 620.268 -425.017 575.713M1681.46 404.478C1540.03 428.974 1432.12 439.58 1302.56 452.052C1168.29 465.363 1054.55 471.927 902.193 467.892C757.837 473.141 664.627 483.475 547.178 512.057C417.932 538.826 307.374 591.307 155.077 621.519C-75.1114 647.146 -210.601 638.516 -420.823 586.841M1680.18 425.353C1540.5 444.586 1433.43 453.071 1308.18 464.261C1178.97 476.157 1067.09 483.505 918.4 483.245C773.887 491.199 678.401 507.508 562.437 538.565C436.538 568.096 326.316 618.66 174.869 645.154C-61.0692 668.639 -200.301 657.185 -416.532 598.225M1678.88 446.702C1540.98 460.553 1434.78 466.867 1313.94 476.746C1189.89 487.196 1079.92 495.346 934.974 498.946C790.302 509.665 692.487 532.085 578.043 565.674C455.565 598.028 345.687 646.633 195.109 669.324C-46.7082 690.618 -189.765 676.277 -412.144 609.868M1677.54 468.522C1541.48 476.871 1436.16 480.968 1319.82 489.506C1201.05 498.478 1093.03 507.448 951.915 514.993C807.08 528.539 706.886 557.205 593.994 593.381C475.014 628.621 365.488 675.224 215.798 694.028C-32.0293 713.083 -178.997 695.791 -407.658 621.767M1676.18 490.814C1541.98 493.543 1437.57 495.374 1325.83 502.543C1212.46 510.005 1106.42 519.812 969.222 531.388C824.22 547.822 721.595 582.868 610.289 621.688C494.883 659.877 385.716 704.434 236.933 719.266C-17.0333 736.034 -167.997 715.727 -403.075 633.924M1674.78 513.579C1542.5 510.569 1439.01 510.085 1331.97 515.857C1224.1 521.776 1120.09 532.438 986.896 548.13C841.724 567.514 736.616 609.076 626.93 650.595C515.172 691.795 406.373 734.263 258.516 745.04C-1.72023 759.472 -156.763 736.086 -398.396 646.339M1705.38 47.2727C1533.81 162.363 1410.55 207.127 1206.82 241.666C985.605 279.325 842.81 272.672 627.318 203.666C485.648 162.36 429.435 71.9247 286.419 57.8953C99.573 37.1319 -183.702 216.819 -183.702 216.819L-492.769 393.009M1705.38 46.2727C1533.81 161.363 1410.55 206.127 1206.82 240.666C985.605 278.325 842.81 271.672 627.318 202.666C485.648 161.36 429.435 70.9247 286.419 56.8953C99.573 36.1319 -183.702 215.819 -183.702 215.819L-492.769 392.009" stroke="url(#paint0_linear_160_321)"/>
</g>
<defs>
<linearGradient id="paint0_linear_160_321" x1="-31.6822" y1="398.666" x2="1458.82" y2="272.167" gradientUnits="userSpaceOnUse">
<stop stop-color="white" stop-opacity="0.2"/>
<stop offset="0.646899" stop-color="#216DFF" stop-opacity="0.5"/>
<stop offset="1" stop-color="#1C63EC"/>
</linearGradient>
<clipPath id="clip0_160_321">
<rect x="-240" width="1920" height="844" rx="50" fill="white"/>
</clipPath>
</defs>
</svg>
