<svg width="1440" height="844" fill="none" xmlns="http://www.w3.org/2000/svg"><g clip-path="url(#clip0_160_321)"><path opacity=".8" d="M1673.36 536.816c-260.67-17.736-410.2-11.382-668.42 28.404-290.695 44.788-430.57 192.853-724.392 206.128-266.636 12.048-425.844-14.481-674.167-112.336M1705.38 48.272c-171.57 115.091-294.83 159.855-498.56 194.394-221.214 37.658-364.01 31.006-579.502-38-141.67-41.306-197.882-131.742-340.899-145.77C99.573 38.131-183.702 217.818-183.702 217.818l-309.068 176.19M1703.27 55.322c-170.77 112.684-292.86 158.849-494.62 192.802-218.901 37.012-363.824 30.434-577.639-36.847-141.741-40.07-196.805-129.86-339.143-142.758-185.55-9.624-301.517 65.082-468.049 157.61-133.847 61.522-206.644 100.199-316.153 170.592M1702.26 64.691c-169.93 110.159-291.61 155.306-491.3 188.644-216.484 36.333-360.514 30.132-572.57-35.338C496.573 179.224 440.418 92.3 298.793 80.59 115.081 62.413-.957 146.078-167.083 236.822c-136.604 60.494-211.196 97.817-323.589 164.714M1701.62 75.178c-169.05 107.516-290.31 151.596-487.84 184.29-213.94 35.623-357.035 29.816-567.248-33.758-141.895-37.415-199.195-121.337-340.073-131.804-182.031-16.79-297.9 65.913-463.599 154.789-139.493 59.418-215.964 95.322-331.376 158.561M1700.95 86.136c-168.13 104.753-288.94 147.719-484.21 179.741-211.29 34.88-353.412 29.484-561.7-32.109-141.977-35.994-200.471-116.78-340.57-125.947-180.274-15.34-295.967 66.356-461.22 153.28-142.511 58.294-220.946 92.716-339.513 152.131M1700.25 97.566c-167.18 101.872-287.52 143.676-480.43 174.995-208.53 34.106-349.625 29.14-555.906-30.386-142.062-34.514-201.803-112.027-341.089-119.839-178.441-13.828-293.95 66.819-458.737 151.706-145.659 57.121-226.143 89.998-348.001 145.423M1699.52 109.47c-166.18 98.87-286.04 139.465-476.49 170.053-205.65 33.299-345.686 28.78-549.875-28.593-142.151-32.972-203.19-107.079-341.629-113.479-176.534-12.254-291.85 67.301-456.153 150.068-148.937 55.899-231.555 87.166-356.84 138.438M1698.76 121.845c-165.14 95.751-284.5 135.087-472.4 164.916-202.65 32.46-341.582 28.406-543.597-26.73-142.244-31.368-204.632-101.933-342.191-106.866-174.549-10.616-289.667 67.803-453.466 148.365-152.346 54.63-237.181 84.223-366.029 131.176M1697.97 134.693c-164.05 92.511-282.9 130.542-468.14 159.581-199.54 31.59-337.334 28.019-537.092-24.794-142.339-29.704-206.129-96.591-342.773-100.001-172.491-8.917-287.4 68.323-450.677 146.597-152.978 52.317-239.75 80.119-368.203 121.276-128.454 41.157-7.366 2.36-7.366 2.36m2173.441-291.7c-162.94 89.153-281.24 125.83-463.74 154.051-196.32 30.688-332.923 27.617-530.341-22.788-142.439-27.978-207.681-91.053-343.378-92.883-170.355-7.155-285.05 68.863-447.784 144.763-159.553 51.944-249.078 77.999-385.46 115.821M1696.31 161.805c-161.78 85.676-279.52 120.951-459.17 148.325-192.99 29.753-328.358 27.2-523.353-20.711-142.542-26.191-209.289-85.318-344.004-85.513-168.144-5.33-282.617 69.421-444.79 142.865-163.351 50.529-255.349 74.718-395.701 107.727m2166.148-278.43c-160.59 82.08-277.75 115.905-454.46 142.404-189.53 28.787-323.63 26.769-516.119-18.563-142.649-24.343-210.95-79.387-344.651-77.89-165.858-3.444-280.101 69.999-441.693 140.901-167.28 49.065-261.833 71.325-406.293 99.357M1694.54 190.805c-159.35 78.365-275.92 110.692-449.59 136.285-185.96 27.788-318.748 26.325-508.648-16.343-142.759-22.434-212.668-73.26-345.32-70.016-163.496-1.494-277.501 70.596-438.494 138.874-171.338 47.552-268.533 67.819-417.235 90.708M1693.61 206.014c-158.08 74.531-274.03 105.312-444.56 129.971-182.28 26.758-313.712 25.866-500.939-14.052-142.873-20.463-214.441-66.936-346.01-61.888-161.059.517-274.818 71.211-435.192 136.779-175.527 45.993-275.448 64.203-428.529 81.784m2154.27-256.913c-156.76 70.577-272.08 99.764-439.37 123.46-178.49 25.696-308.523 25.393-492.996-11.69-142.99-18.432-216.268-60.416-346.722-53.509-158.544 2.591-272.051 71.846-431.787 134.621-179.846 44.383-282.577 60.473-440.173 72.582M1691.66 237.848c-155.41 66.505-270.07 94.05-434.02 116.754-174.59 24.601-303.18 24.905-484.815-9.257-143.111-16.339-218.15-53.7-347.454-44.878-155.956 4.728-269.202 72.501-428.28 132.398-184.295 42.726-289.921 56.631-452.168 63.103M1690.64 254.474c-154.01 62.313-268 88.168-428.52 109.852-170.56 23.474-297.673 24.403-476.387-6.754-143.236-14.185-220.087-46.787-348.209-35.993-153.291 6.928-266.269 73.175-424.67 130.11-188.874 41.019-297.48 52.676-464.513 53.347M1689.59 271.572c-152.57 58.003-265.87 82.12-422.86 102.753-166.43 22.316-292.012 23.887-467.722-4.178-143.363-11.97-222.08-39.678-348.985-26.856-150.55 9.188-263.252 73.866-420.958 127.756-193.583 39.265-305.253 48.609-477.209 43.313M1688.52 289.142c-151.11 53.573-263.69 75.904-417.06 95.458-162.17 21.126-286.188 23.357-458.812-1.531-143.495-9.694-224.127-32.373-349.782-17.468-147.733 11.513-260.153 74.578-417.143 125.338-198.422 37.462-313.241 44.43-490.256 33.003M1687.41 307.183c-149.59 49.025-261.44 69.522-411.08 87.968-157.81 19.904-280.22 22.812-449.674 1.186-143.63-7.356-226.23-24.871-350.601-7.827-144.841 13.9-256.969 75.31-413.226 122.855-203.391 35.611-321.443 40.138-503.653 22.416M1686.28 325.699c-148.04 44.356-259.14 62.971-404.96 80.281-153.33 18.649-274.09 22.253-440.29 3.975-143.768-4.958-228.386-17.173-351.441 2.066C347.716 428.37 235.886 488.08 80.383 532.327c-208.49 33.711-329.861 35.735-517.401 11.552M1685.12 344.685c-146.45 39.57-256.78 56.255-398.68 72.399-148.74 17.362-267.8 21.679-430.669 6.834-143.909-2.498-230.599-9.278-352.302 12.213-138.83 18.86-250.353 76.828-405.084 117.692-213.72 31.763-338.493 31.219-531.499.41m2117.044-190.09c-144.82 34.664-254.36 49.371-392.25 64.32-144.02 16.044-261.35 21.092-420.802 9.765-144.055.023-232.866-1.188-353.185 22.611-135.711 21.434-246.921 77.616-400.859 115.014-219.079 29.766-347.34 26.59-545.949-11.009m2111.825-180.77c-143.14 29.64-251.88 42.321-385.65 56.045-139.21 14.694-254.76 20.491-410.707 12.767-144.204 2.606-235.189 7.1-354.09 33.262-132.516 24.07-243.404 78.423-396.531 112.271-224.569 27.72-356.402 21.849-560.749-22.706M1681.46 404.478c-141.43 24.496-249.34 35.102-378.9 47.574-134.27 13.311-248.01 19.875-400.367 15.84-144.356 5.249-237.566 15.583-355.015 44.165-129.246 26.769-239.804 79.25-392.101 109.462-230.188 25.627-365.678 16.997-575.9-34.678M1680.18 425.353c-139.68 19.233-246.75 27.718-372 38.908-129.21 11.896-241.09 19.244-389.78 18.984-144.513 7.954-239.999 24.263-355.963 55.32-125.899 29.531-236.121 80.095-387.568 106.589-235.938 23.485-375.17 12.031-591.401-46.929M1678.88 446.702c-137.9 13.851-244.1 20.165-364.94 30.044-124.05 10.45-234.02 18.6-378.966 22.2-144.672 10.719-242.487 33.139-356.931 66.728-122.478 32.354-232.356 80.959-382.934 103.65-241.817 21.294-384.874 6.953-607.253-59.456M1677.54 468.522c-136.06 8.349-241.38 12.446-357.72 20.984-118.77 8.972-226.79 17.942-367.905 25.487-144.835 13.546-245.029 42.212-357.921 78.388-118.98 35.24-228.506 81.843-378.196 100.647-247.827 19.055-394.795 1.763-623.456-72.261M1676.18 490.814c-134.2 2.729-238.61 4.56-350.35 11.729-113.37 7.462-219.41 17.269-356.608 28.845-145.002 16.434-247.627 51.48-358.933 90.3-115.406 38.189-224.573 82.746-373.356 97.578-253.966 16.768-404.93-3.539-640.008-85.342M1674.78 513.579c-132.28-3.01-235.77-3.494-342.81 2.278-107.87 5.919-211.88 16.581-345.074 32.273-145.172 19.384-250.28 60.946-359.966 102.465-111.758 41.2-220.557 83.668-368.414 94.445-260.236 14.432-415.279-8.954-656.912-98.701M1705.38 47.273c-171.57 115.09-294.83 159.854-498.56 194.393-221.215 37.659-364.01 31.006-579.502-38-141.67-41.306-197.883-131.741-340.899-145.77C99.573 37.131-183.702 216.818-183.702 216.818l-309.067 176.19M1705.38 46.273c-171.57 115.09-294.83 159.854-498.56 194.393-221.215 37.659-364.01 31.006-579.502-38-141.67-41.306-197.883-131.741-340.899-145.77C99.573 36.131-183.702 215.818-183.702 215.818l-309.067 176.19" stroke="url(#paint0_linear_160_321)"/></g><defs><linearGradient id="paint0_linear_160_321" x1="-31.682" y1="398.666" x2="1458.82" y2="272.167" gradientUnits="userSpaceOnUse"><stop stop-color="#fff" stop-opacity=".2"/><stop offset=".647" stop-color="#216DFF" stop-opacity=".5"/><stop offset="1" stop-color="#1C63EC"/></linearGradient><clipPath id="clip0_160_321"><rect x="-240" width="1920" height="844" rx="50" fill="#fff"/></clipPath></defs></svg>