<svg width="229" height="1283" viewBox="0 0 229 1283" fill="none" xmlns="http://www.w3.org/2000/svg">
<path opacity="0.6" d="M430.505 1C390.258 98.1128 298.412 310.019 253.009 380.741C196.254 469.143 76.3691 589.793 84.9712 708.219C93.5732 826.645 213.503 991.773 213.503 1055.71C213.503 1119.65 252.905 1282 430.505 1282C585.745 1282 903.458 1218.06 1051.46 1129.66M484.477 260.091C500.243 350.532 531.773 531.414 452.762 609.809C373.751 688.203 18.7577 809.409 1.50885 949.518C-15.74 1089.63 410.474 1102.42 528.991 1154.12C647.507 1205.83 1068.34 1251.79 1254 1183.59M433.075 13.3376C395.12 107.979 308.211 313.025 264.968 383.537C210.915 470.888 96.1738 588.88 102.485 703.533C106.915 820.052 204.229 983.089 203.408 1050.66C202.587 1118.22 260.408 1273.45 435.195 1275.91C588.686 1278.37 911.31 1219.67 1061.11 1132.23M435.645 25.6753C399.982 117.846 318.009 316.031 276.928 386.334C225.577 472.634 115.979 587.966 119.999 698.846C120.257 813.46 194.956 974.405 193.313 1045.6C191.67 1116.79 267.911 1264.9 439.885 1269.82C591.627 1274.75 919.162 1221.27 1070.75 1134.8M438.215 38.0129C404.844 127.713 327.808 319.037 288.888 389.13C240.238 474.379 135.783 587.053 137.513 694.16C133.599 806.867 185.682 965.721 183.218 1040.54C180.754 1115.36 275.415 1256.35 444.575 1263.73C594.568 1271.12 927.013 1222.88 1080.4 1137.36M440.786 50.3506C409.706 137.579 337.607 322.042 300.847 391.927C254.899 476.124 155.588 586.139 155.026 689.474C146.94 800.275 176.409 957.037 173.123 1035.48C169.838 1113.93 282.918 1247.79 449.264 1257.64C597.509 1267.49 934.865 1224.49 1090.04 1139.93M443.356 62.6882C414.568 147.446 347.405 325.048 312.807 394.723C269.56 477.869 175.393 585.226 172.54 684.788C160.282 793.682 167.135 948.353 163.028 1030.43C158.921 1112.5 290.421 1239.24 453.954 1251.55C600.45 1263.86 942.717 1226.09 1099.69 1142.5M445.926 75.0262C419.43 157.313 357.204 328.054 324.766 397.52C284.221 479.614 195.197 584.313 190.054 680.102C173.624 787.09 157.862 939.669 152.933 1025.37C148.005 1111.07 297.924 1230.69 458.644 1245.46C603.391 1260.24 950.568 1227.7 1109.33 1145.07M448.496 87.3638C424.292 167.179 367.003 331.06 336.726 400.316C298.882 481.36 215.002 583.399 207.568 675.415C186.966 780.497 148.588 930.985 142.838 1020.31C137.089 1109.64 305.428 1222.14 463.334 1239.37C606.332 1256.61 958.42 1229.3 1118.98 1147.64M451.066 99.7014C429.154 177.046 376.801 334.066 348.686 403.113C313.543 483.105 234.807 582.486 225.082 670.729C200.308 773.905 139.314 922.301 132.743 1015.26C126.172 1108.21 312.931 1213.59 468.024 1233.28C609.274 1252.98 966.271 1230.91 1128.62 1150.2M453.636 112.039C434.016 186.912 386.6 337.072 360.645 405.909C328.204 484.85 254.611 581.572 242.596 666.043C213.649 767.313 130.041 913.617 122.648 1010.2C115.256 1106.78 320.434 1205.04 472.713 1227.2C612.215 1249.36 974.123 1232.52 1138.27 1152.77M456.206 124.377C438.878 196.779 396.399 340.078 372.605 408.706C342.865 486.595 274.416 580.659 260.11 661.357C226.991 760.72 120.767 904.933 112.553 1005.14C104.34 1105.35 327.938 1196.48 477.403 1221.11C615.156 1245.73 981.975 1234.12 1147.91 1155.34M458.776 136.714C443.74 206.646 406.197 343.084 384.564 411.502C357.526 488.34 294.221 579.745 277.623 656.671C240.333 754.128 111.494 896.249 102.459 1000.09C93.4235 1103.92 335.441 1187.93 482.093 1215.02C618.097 1242.1 989.826 1235.73 1157.55 1157.91M461.346 149.052C448.602 216.512 415.996 346.089 396.524 414.299C372.188 490.085 314.025 578.832 295.137 651.984C253.675 747.535 102.22 887.565 92.3635 995.03C82.507 1102.49 342.944 1179.38 486.783 1208.93C621.038 1238.47 997.678 1237.34 1167.2 1160.48M463.916 161.39C453.464 226.379 425.795 349.095 408.484 417.095C386.849 491.831 333.83 577.919 312.651 647.298C267.016 740.943 92.9464 878.881 82.2686 989.973C71.5907 1101.07 350.448 1170.83 491.472 1202.84C623.979 1234.85 1005.53 1238.94 1176.84 1163.04M466.487 173.727C458.326 236.245 435.593 352.101 420.443 419.892C401.51 493.576 353.635 577.005 330.165 642.612C280.358 734.35 83.6728 870.197 72.1736 984.916C60.6744 1099.64 357.951 1162.28 496.162 1196.75C626.92 1231.22 1013.38 1240.55 1186.49 1165.61M469.057 186.065C463.188 246.112 445.392 355.107 432.403 422.688C416.171 495.321 373.439 576.092 347.679 637.926C293.7 727.758 74.3993 861.513 62.0787 979.859C49.7581 1098.21 365.454 1153.73 500.852 1190.66C629.861 1227.59 1021.23 1242.15 1196.13 1168.18M471.627 198.403C468.05 255.979 455.191 358.113 444.362 425.485C430.832 497.066 393.244 575.178 365.193 633.24C307.042 721.165 65.1256 852.829 51.9836 974.803C38.8415 1096.78 372.958 1145.17 505.542 1184.57C632.802 1223.97 1029.08 1243.76 1205.78 1170.75M474.197 210.741C472.912 265.845 464.989 361.119 456.322 428.281C445.493 498.812 413.049 574.265 382.706 628.553C320.384 714.573 55.8521 844.145 41.8888 969.746C27.9254 1095.35 380.461 1136.62 510.232 1178.48C635.743 1220.34 1036.94 1245.37 1215.42 1173.32M476.767 223.078C477.774 275.712 474.788 364.125 468.282 431.078C460.154 500.557 432.853 573.352 400.22 623.867C333.725 707.981 46.5785 835.461 31.7937 964.689C17.0089 1093.92 387.964 1128.07 514.921 1172.39C638.684 1216.71 1044.79 1246.97 1225.07 1175.89M479.337 235.416C482.636 285.578 484.586 367.131 480.241 433.874C474.815 502.302 452.658 572.438 417.734 619.181C347.067 701.388 37.3049 826.777 21.6987 959.632C6.09262 1092.49 395.468 1119.52 519.611 1166.3C641.625 1213.08 1052.64 1248.58 1234.71 1178.45M481.907 247.753C487.498 295.445 494.385 370.137 492.201 436.671C489.476 504.047 472.463 571.525 435.248 614.495C360.409 694.796 28.0314 818.093 11.6038 954.575C-4.82377 1091.06 402.971 1110.97 524.301 1160.21C644.566 1209.46 1060.49 1250.18 1244.36 1181.02" stroke="url(#paint0_linear_193_954)"/>
<defs>
<linearGradient id="paint0_linear_193_954" x1="285.5" y1="203" x2="573.747" y2="970.297" gradientUnits="userSpaceOnUse">
<stop offset="0.1926" stop-color="#A3A3A3" stop-opacity="0.2"/>
<stop offset="0.646899" stop-color="#71A1FD" stop-opacity="0.5"/>
<stop offset="1" stop-color="#1C63EC"/>
</linearGradient>
</defs>
</svg>
